<svg width="28" height="28" viewBox="0 0 28 28" fill="none" xmlns="http://www.w3.org/2000/svg">
<g id="css" clip-path="url(#clip0_3357_3931)">
<path id="Vector" d="M4.40376 24.6722L2.23926 0.965698H25.4819L23.3689 24.6722L13.8863 27.352" fill="#778295"/>
<path id="Vector_2" d="M13.8864 2.87256V25.2906L21.5652 23.1777L23.3689 2.87256" fill="#778295"/>
<path id="Vector_3" d="M6.56824 5.81006H13.8863V8.69606H6.82592M7.08359 11.6851H13.8863V14.6227H7.34127M7.49588 16.0657H10.3819L10.588 18.3848L13.8863 19.2609V22.3015L7.85663 20.6524" fill="white"/>
<path id="Vector_4" d="M13.8864 11.6851V14.6227H17.4423L17.0816 18.3848L13.8864 19.2609V22.3015L19.813 20.6524L21.1529 5.81006H13.8864V8.69606H18.0092L17.7258 11.6851H13.8864Z" fill="white"/>
</g>
<defs>
<clipPath id="clip0_3357_3931">
<rect width="26.3863" height="26.3863" fill="white" transform="translate(0.693115 0.965698)"/>
</clipPath>
</defs>
</svg>
