<svg width="28" height="27" viewBox="0 0 28 27" fill="none" xmlns="http://www.w3.org/2000/svg">
<g id="ex">
<path id="Vector" d="M25.4963 20.2225C24.6517 20.4328 24.1292 20.2317 23.6605 19.5424L20.327 15.0256L19.8452 14.4002L15.9522 19.5573C15.5074 20.1777 15.0408 20.4477 14.2107 20.2282L19.1957 13.6746L14.5546 7.755C15.3528 7.60292 15.9043 7.68038 16.3941 8.38036L19.8517 12.9533L23.3347 8.40523C23.7809 7.78484 24.2606 7.54891 25.0617 7.77774L23.2621 10.1143L20.824 13.2234C20.5338 13.5787 20.5737 13.8217 20.8407 14.165L25.4963 20.2225ZM2.28217 13.5652L2.68997 11.601C3.80018 7.71378 8.34984 6.09849 11.4874 8.50046C13.3211 9.91321 13.7768 11.9115 13.6861 14.1501H3.35029C3.19501 18.1794 6.15628 20.6112 9.9317 19.3704C11.256 18.9348 12.036 17.9193 12.4264 16.6487C12.6245 16.0119 12.9525 15.9124 13.5634 16.0944C13.2514 17.6834 12.5476 19.0108 11.06 19.8416C8.83746 21.0852 5.66503 20.683 3.9961 18.9547C3.00199 17.952 2.59129 16.6814 2.40698 15.3226C2.37795 15.098 2.3199 14.8841 2.27637 14.6688C2.28024 14.3012 2.28217 13.9335 2.28217 13.5659V13.5652ZM3.36916 13.2952H12.7094C12.6484 10.3815 10.7959 8.31214 8.26421 8.29437C5.48507 8.27305 3.48961 10.2934 3.36916 13.2952Z" fill="#778295"/>
</g>
</svg>
