<svg width="27" height="28" viewBox="0 0 27 28" fill="none" xmlns="http://www.w3.org/2000/svg">
<g id="git">
<path id="Vector" d="M2.53431 15.0969C1.89075 14.4533 1.89075 13.4099 2.53431 12.7663L12.4304 2.87024C13.0739 2.22668 14.1174 2.22668 14.7609 2.87024L24.657 12.7663C25.3005 13.4099 25.3005 14.4533 24.657 15.0969L14.7609 24.9929C14.1174 25.6365 13.0739 25.6365 12.4304 24.9929L2.53431 15.0969Z" fill="#778295"/>
<path id="Vector_2" d="M10.4202 4.91199L9.41809 5.91412L12.0063 8.50238C11.9016 8.72701 11.8432 8.97753 11.8432 9.24172C11.8432 9.99175 12.3144 10.6317 12.9769 10.8816V17.2132C12.3144 17.4631 11.8432 18.1031 11.8432 18.8531C11.8432 19.8208 12.6277 20.6053 13.5954 20.6053C14.5631 20.6053 15.3476 19.8208 15.3476 18.8531C15.3476 18.1732 14.9603 17.5836 14.3942 17.2932V10.8903L16.8683 13.3644C16.7687 13.5845 16.7133 13.8288 16.7133 14.0861C16.7133 15.0538 17.4978 15.8383 18.4655 15.8383C19.4333 15.8383 20.2178 15.0538 20.2178 14.0861C20.2178 13.1184 19.4333 12.3339 18.4655 12.3339C18.2775 12.3339 18.0964 12.3635 17.9265 12.4183L15.2693 9.76112C15.3202 9.59703 15.3476 9.42255 15.3476 9.24172C15.3476 8.27398 14.5631 7.48948 13.5954 7.48948C13.4145 7.48948 13.2401 7.51689 13.076 7.56775L10.4202 4.91199Z" fill="white"/>
</g>
</svg>
