<svg width="27" height="28" viewBox="0 0 27 28" fill="none" xmlns="http://www.w3.org/2000/svg">
<g id="html" clip-path="url(#clip0_3357_3924)">
<path id="Vector" d="M3.69829 24.6723L1.58533 0.96582H24.828L22.715 24.6723L13.1809 27.3521" fill="#778295"/>
<path id="Vector_2" d="M13.2324 25.2906L20.9113 23.1777L22.715 2.87256H13.2324" fill="#778295"/>
<path id="Vector_3" d="M13.2324 11.6853H9.3672L9.10952 8.69618H13.2324V5.81018H5.91431L6.68734 14.6228H13.2324V11.6853ZM13.1808 19.261L9.9341 18.3849L9.72795 16.0658H6.84195L7.2027 20.6525L13.1808 22.3016V19.261Z" fill="white"/>
<path id="Vector_4" d="M13.1809 11.6853V14.6228H16.7884L16.4277 18.3849L13.1809 19.261V22.3016L19.1591 20.6525L19.9836 11.6853H13.1809ZM13.1809 5.81018V8.69618H20.2413L20.499 5.81018H13.1809Z" fill="white"/>
</g>
<defs>
<clipPath id="clip0_3357_3924">
<rect width="26.3863" height="26.3863" fill="white" transform="translate(0.0393066 0.96582)"/>
</clipPath>
</defs>
</svg>
