<svg width="27" height="28" viewBox="0 0 27 28" fill="none" xmlns="http://www.w3.org/2000/svg">
<g id="mongodb" clip-path="url(#clip0_3357_3982)">
<path id="Vector" d="M13.5957 27.1746C20.8821 27.1746 26.7889 21.2679 26.7889 13.9815C26.7889 6.69511 20.8821 0.78833 13.5957 0.78833C6.30936 0.78833 0.402588 6.69511 0.402588 13.9815C0.402588 21.2679 6.30936 27.1746 13.5957 27.1746Z" fill="#778295"/>
<path id="Vector_2" d="M17.1221 12.3695C16.2887 8.69165 14.3193 7.48237 14.1072 7.02035C13.8753 6.69438 13.6403 6.11461 13.6403 6.11461C13.6364 6.10481 13.6303 6.08755 13.623 6.0708C13.5991 6.39676 13.5867 6.52251 13.2785 6.85131C12.8013 7.22443 10.3528 9.2789 10.1537 13.4574C9.96787 17.3546 12.9688 19.6768 13.3746 19.9728L13.4208 20.0056V20.0027C13.4233 20.0223 13.5496 20.9304 13.6382 21.8925H13.9562C14.0308 21.2124 14.1427 20.5369 14.2912 19.869L14.317 19.8522C14.4985 19.7221 14.6716 19.5805 14.8352 19.4284L14.8537 19.4116C15.7164 18.6146 17.2674 16.7712 17.2522 13.8321C17.249 13.3418 17.2055 12.8526 17.1221 12.3695ZM13.6045 17.7725C13.6045 17.7725 13.6045 12.3066 13.7849 12.3077C13.9256 12.3077 14.1077 19.358 14.1077 19.358C13.8573 19.3279 13.6045 18.1977 13.6045 17.7725Z" fill="white"/>
</g>
<defs>
<clipPath id="clip0_3357_3982">
<rect width="26.3863" height="26.3863" fill="white" transform="translate(0.402588 0.78833)"/>
</clipPath>
</defs>
</svg>
