<svg width="27" height="27" viewBox="0 0 27 27" fill="none" xmlns="http://www.w3.org/2000/svg">
<g id="next" clip-path="url(#clip0_3357_3914)">
<g id="Group">
<path id="Vector" d="M12.7317 0.200338C12.6749 0.205496 12.4944 0.223548 12.3319 0.236443C8.58415 0.574283 5.07371 2.59616 2.85035 5.70377C1.61228 7.43165 0.820436 9.39164 0.521236 11.4677C0.415484 12.1924 0.402588 12.4064 0.402588 13.389C0.402588 14.3715 0.415484 14.5856 0.521236 15.3103C1.23828 20.2644 4.7642 24.4268 9.54623 25.969C10.4026 26.2449 11.3053 26.4332 12.3319 26.5467C12.7317 26.5905 14.4598 26.5905 14.8596 26.5467C16.6316 26.3507 18.1327 25.9123 19.6133 25.1566C19.8402 25.0406 19.8841 25.0096 19.8531 24.9838C19.8325 24.9684 18.8653 23.6712 17.7046 22.1032L15.5947 19.2535L12.9509 15.3412C11.4962 13.1904 10.2994 11.4316 10.2891 11.4316C10.2788 11.429 10.2684 13.1672 10.2633 15.2896C10.2555 19.0059 10.253 19.1555 10.2065 19.2431C10.1395 19.3695 10.0879 19.4211 9.97956 19.4778C9.89702 19.5191 9.8248 19.5268 9.43532 19.5268H8.9891L8.87045 19.452C8.79307 19.403 8.73633 19.3386 8.69764 19.2638L8.64347 19.1477L8.64863 13.977L8.65637 8.80364L8.73633 8.70306C8.7776 8.64891 8.86529 8.57928 8.9272 8.54575C9.03295 8.49417 9.07422 8.48901 9.52044 8.48901C10.0466 8.48901 10.1343 8.50964 10.271 8.65922C10.3097 8.70049 11.7412 10.8565 13.4539 13.4534C15.1665 16.0504 17.5086 19.5965 18.6589 21.3372L20.7482 24.5016L20.8539 24.4319C21.7902 23.8233 22.7807 22.9568 23.5648 22.0542C25.2336 20.138 26.3091 17.8015 26.6703 15.3103C26.776 14.5856 26.7889 14.3715 26.7889 13.389C26.7889 12.4064 26.776 12.1924 26.6703 11.4677C25.9532 6.51355 22.4273 2.35116 17.6453 0.808965C16.8018 0.535599 15.9042 0.347337 14.8983 0.233864C14.6507 0.208075 12.9458 0.179707 12.7317 0.200338ZM18.1327 8.17954C18.2566 8.24144 18.3571 8.36007 18.3933 8.48386C18.4139 8.55091 18.419 9.98479 18.4139 13.2162L18.4062 17.8531L17.5885 16.5997L16.7683 15.3464V11.9757C16.7683 9.79653 16.7786 8.57154 16.7941 8.51222C16.8354 8.3678 16.9256 8.25433 17.0494 8.18728C17.1552 8.13312 17.1939 8.12796 17.5988 8.12796C17.9806 8.12796 18.0476 8.13312 18.1327 8.17954Z" fill="#778295"/>
</g>
</g>
<defs>
<clipPath id="clip0_3357_3914">
<rect width="26.3863" height="26.3863" fill="white" transform="translate(0.402588 0.193237)"/>
</clipPath>
</defs>
</svg>
