<svg width="27" height="27" viewBox="0 0 27 27" fill="none" xmlns="http://www.w3.org/2000/svg">
<g id="nodejs" clip-path="url(#clip0_3357_3973)">
<g id="Group">
<path id="Vector" d="M13.2324 26.8485C12.8695 26.8485 12.5308 26.7517 12.2162 26.5823L8.99815 24.6708C8.51423 24.4047 8.75619 24.3079 8.90136 24.2595C9.55466 24.0417 9.67563 23.9933 10.3531 23.6062C10.4257 23.5578 10.5225 23.582 10.5951 23.6304L13.0631 25.1063C13.1599 25.1547 13.2808 25.1547 13.3534 25.1063L23.0076 19.5171C23.1044 19.4687 23.1528 19.3719 23.1528 19.2509V8.09656C23.1528 7.97558 23.1044 7.87879 23.0076 7.8304L13.3534 2.26532C13.2566 2.21693 13.1357 2.21693 13.0631 2.26532L3.40887 7.8304C3.31208 7.87879 3.26369 7.99977 3.26369 8.09656V19.2509C3.26369 19.3477 3.31208 19.4687 3.40887 19.5171L6.04623 21.0414C7.4738 21.7673 8.36905 20.9204 8.36905 20.0736V9.0644C8.36905 8.91922 8.49003 8.77404 8.6594 8.77404H9.8934C10.0386 8.77404 10.1838 8.89502 10.1838 9.0644V20.0736C10.1838 21.9851 9.14332 23.0981 7.32862 23.0981C6.77211 23.0981 6.33659 23.0981 5.10259 22.4932L2.56201 21.0414C1.93291 20.6785 1.54578 20.001 1.54578 19.2751V8.12075C1.54578 7.39487 1.93291 6.71738 2.56201 6.35444L12.2162 0.765166C12.8211 0.426422 13.6438 0.426422 14.2487 0.765166L23.9029 6.35444C24.532 6.71738 24.9191 7.39487 24.9191 8.12075V19.2751C24.9191 20.001 24.532 20.6785 23.9029 21.0414L14.2487 26.6307C13.9341 26.7759 13.5712 26.8485 13.2324 26.8485ZM16.2086 19.1783C11.9743 19.1783 11.1032 17.2426 11.1032 15.5973C11.1032 15.4521 11.2242 15.307 11.3936 15.307H12.6517C12.7969 15.307 12.9179 15.4037 12.9179 15.5489C13.1115 16.8313 13.668 17.4604 16.2328 17.4604C18.2652 17.4604 19.1363 17.0007 19.1363 15.9119C19.1363 15.2828 18.8943 14.823 15.7246 14.5085C13.0873 14.2423 11.4419 13.6616 11.4419 11.5566C11.4419 9.59671 13.0873 8.4353 15.8456 8.4353C18.9427 8.4353 20.4671 9.49992 20.6606 11.8227C20.6606 11.8953 20.6364 11.9679 20.588 12.0405C20.5396 12.0889 20.4671 12.1373 20.3945 12.1373H19.1363C19.0153 12.1373 18.8943 12.0405 18.8701 11.9195C18.5798 10.5887 17.8297 10.1532 15.8456 10.1532C13.6196 10.1532 13.3534 10.9275 13.3534 11.5082C13.3534 12.2099 13.668 12.4276 16.6683 12.8148C19.6444 13.2019 21.0478 13.7584 21.0478 15.8393C21.0236 17.9685 19.2814 19.1783 16.2086 19.1783Z" fill="#778295"/>
</g>
</g>
<defs>
<clipPath id="clip0_3357_3973">
<rect width="26.3863" height="26.3863" fill="white" transform="translate(0.0393066 0.511108)"/>
</clipPath>
</defs>
</svg>
