<svg width="28" height="27" viewBox="0 0 28 27" fill="none" xmlns="http://www.w3.org/2000/svg">
<g id="react" clip-path="url(#clip0_3357_3989)">
<path id="Vector" d="M15.8972 13.4796C15.8972 12.2694 14.8853 11.2881 13.6369 11.2881C12.3887 11.2881 11.3766 12.2694 11.3766 13.4796C11.3766 14.6901 12.3887 15.6713 13.6369 15.6713C14.8853 15.6713 15.8972 14.6901 15.8972 13.4796Z" fill="#778295"/>
<path id="Vector_2" fill-rule="evenodd" clip-rule="evenodd" d="M21.7074 9.00525C22.2222 6.86806 22.8694 2.90488 20.5879 1.56123C18.317 0.223448 15.3619 2.78689 13.8015 4.3256C12.2456 2.80223 9.20744 0.24974 6.92784 1.59765C4.65785 2.93993 5.35786 6.8374 5.88416 8.98799C3.76664 9.60232 0.136719 10.9255 0.136719 13.629C0.136719 16.3248 3.76286 17.7644 5.86785 18.3781C5.3396 20.5406 4.67464 24.3824 6.94754 25.7217C9.23565 27.0694 12.2643 24.5776 13.8392 23.0221C15.4097 24.5698 18.3364 27.0779 20.6078 25.7348C22.8862 24.3876 22.2928 20.4775 21.7665 18.3145C23.807 17.6994 27.4409 16.2911 27.4409 13.629C27.4409 10.9515 23.7915 9.61756 21.7074 9.00525ZM21.4487 17.1682C21.1031 16.0507 20.6367 14.8624 20.0661 13.6349C20.6108 12.4364 21.0591 11.2634 21.395 10.1532C22.9229 10.6056 26.2746 11.6398 26.2746 13.629C26.2746 15.6369 23.0582 16.6808 21.4487 17.1682ZM20.0233 24.7037C18.3286 25.7057 15.8112 23.3072 14.6514 22.1675C15.4209 21.3079 16.1898 20.3086 16.9402 19.1989C18.2602 19.0793 19.5072 18.8837 20.6382 18.6167C21.0086 20.1467 21.7254 23.6972 20.0233 24.7037ZM7.53034 24.6894C5.83549 23.6912 6.61016 20.2629 6.99878 18.67C8.11713 18.9227 9.35516 19.1045 10.6783 19.2141C11.4336 20.2999 12.2248 21.298 13.0221 22.1721C12.0371 23.1454 9.23311 25.6923 7.53034 24.6894ZM1.30305 13.629C1.30305 11.6136 4.63469 10.587 6.19737 10.1356C6.5391 11.2708 6.98729 12.4578 7.52817 13.658C6.98028 14.8761 6.52569 16.0819 6.18082 17.2305C4.69077 16.7948 1.30305 15.6456 1.30305 13.629ZM7.51221 2.62879C9.21399 1.6226 11.8545 4.07309 12.9842 5.17604C12.191 6.0461 11.4071 7.03665 10.6582 8.11621C9.37409 8.23779 8.14481 8.43301 7.01472 8.69458C6.59074 6.96004 5.81227 3.6339 7.51221 2.62879ZM17.7746 9.41122C18.6458 9.5235 19.4805 9.67289 20.2642 9.85564C20.0289 10.626 19.7357 11.4315 19.3903 12.2573C18.8896 11.2869 18.3522 10.336 17.7746 9.41122ZM13.8018 6.02747C14.3398 6.62278 14.8786 7.28758 15.4087 8.00882C14.3335 7.95685 13.2566 7.95666 12.1815 8.00805C12.712 7.2935 13.2555 6.62969 13.8018 6.02747ZM8.19737 12.2564C7.85769 11.4335 7.56708 10.6244 7.32975 9.84308C8.10879 9.66503 8.93959 9.51947 9.80513 9.40901C9.22592 10.3318 8.68939 11.2823 8.19737 12.2564ZM9.82998 17.934C8.93585 17.8321 8.09248 17.6939 7.31368 17.5207C7.55475 16.7257 7.85177 15.8991 8.1987 15.0585C8.69749 16.0428 9.24221 17.0025 9.82998 17.934ZM13.8341 21.3147C13.2813 20.7053 12.7299 20.0314 12.1913 19.3065C13.2726 19.3498 14.3559 19.3499 15.4371 19.3006C14.9054 20.0387 14.3685 20.7137 13.8341 21.3147ZM19.4014 15.0157C19.7663 15.8655 20.074 16.6875 20.3183 17.4691C19.5266 17.6537 18.6719 17.8023 17.7713 17.9127C18.3532 16.9703 18.8992 16.0047 19.4014 15.0157ZM16.2892 18.0571C14.6353 18.1778 12.9711 18.1765 11.3167 18.067C10.3766 16.6643 9.53973 15.1891 8.81735 13.6576C9.53627 12.1293 10.367 10.657 11.3027 9.25656C12.9583 9.12875 14.6241 9.12836 16.2798 9.25733C17.2074 10.6577 18.0369 12.1262 18.7725 13.6407C18.0456 15.1682 17.2105 16.6435 16.2892 18.0571ZM20.0053 2.59337C21.7076 3.59626 20.9499 7.15809 20.578 8.70695C19.4452 8.43991 18.2151 8.24124 16.9272 8.11774C16.1769 7.02652 15.3996 6.03425 14.6192 5.17543C15.7634 4.04871 18.3196 1.60029 20.0053 2.59337Z" fill="#778295"/>
</g>
<defs>
<clipPath id="clip0_3357_3989">
<rect width="27" height="27" fill="white" transform="translate(0.136719)"/>
</clipPath>
</defs>
</svg>
