<svg width="27" height="27" viewBox="0 0 27 27" fill="none" xmlns="http://www.w3.org/2000/svg">
<g id="redux">
<path id="Vector" d="M18.1855 17.9677C19.0984 17.8748 19.7909 17.1011 19.7595 16.1726C19.728 15.2442 18.941 14.5014 17.9966 14.5014H17.9337C16.9577 14.5323 16.2023 15.337 16.2338 16.2964C16.2653 16.7606 16.4542 17.1629 16.7375 17.4415C15.6672 19.5151 14.0302 21.0316 11.5749 22.3005C9.90647 23.1671 8.1752 23.4766 6.44389 23.26C5.0273 23.0743 3.92553 22.4554 3.23289 21.4339C2.22561 19.9174 2.13121 18.2771 2.98116 16.6369C3.5793 15.4608 4.52356 14.5942 5.1217 14.1608C4.9958 13.7585 4.80688 13.0777 4.71247 12.5825C0.147984 15.8322 0.620213 20.227 2.0053 22.3005C3.04407 23.848 5.1532 24.8075 7.48265 24.8075C8.11219 24.8075 8.74176 24.7455 9.37141 24.5909C13.4008 23.8171 16.4542 21.4649 18.1855 17.9677ZM23.7259 14.13C21.3335 11.3755 17.8078 9.85905 13.7784 9.85905H13.2748C12.9915 9.30197 12.3934 8.9305 11.7323 8.9305H11.6693C10.6935 8.9615 9.93813 9.76612 9.96955 10.7256C10.001 11.6541 10.7879 12.3968 11.7323 12.3968H11.7952C12.4878 12.3659 13.0859 11.9326 13.3378 11.3445H13.9043C16.2968 11.3445 18.5632 12.0254 20.6095 13.3562C22.1834 14.3775 23.3167 15.7084 23.9462 17.3177C24.4814 18.6176 24.4499 19.8865 23.8832 20.9697C23.0018 22.61 21.5224 23.5075 19.5706 23.5075C18.3114 23.5075 17.1153 23.1361 16.4857 22.8576C16.1394 23.1671 15.5098 23.6622 15.069 23.9718C16.4227 24.5908 17.8078 24.9312 19.1299 24.9312C22.1519 24.9312 24.3869 23.2908 25.2369 21.6506C26.1497 19.8555 26.0867 16.7606 23.7259 14.13ZM7.73446 18.4937C7.76597 19.4222 8.55294 20.1649 9.49732 20.1649H9.56032C10.5361 20.134 11.2916 19.3293 11.2601 18.37C11.2287 17.4414 10.4416 16.6987 9.49732 16.6987H9.4344C9.37141 16.6987 9.27691 16.6987 9.21408 16.7295C7.92337 14.6251 7.38824 12.3349 7.57715 9.85897C7.70297 8.002 8.3326 6.39261 9.4344 5.06177C10.3472 3.91665 12.1101 3.35957 13.3063 3.3287C16.6431 3.26676 18.0595 7.35201 18.154 8.99234C18.5632 9.08519 19.2558 9.30189 19.728 9.45666C19.3502 4.44294 16.2023 1.8432 13.1804 1.8432C10.3472 1.8432 7.73446 3.8549 6.6956 6.826C5.24761 10.7874 6.19197 14.5942 7.95478 17.5963C7.79747 17.8129 7.70297 18.1533 7.73446 18.4937Z" fill="#778295"/>
</g>
</svg>
