<svg width="28" height="28" viewBox="0 0 28 28" fill="none" xmlns="http://www.w3.org/2000/svg">
<g id="sass" clip-path="url(#clip0_3357_3938)">
<path id="Vector" d="M23.3032 0.965698H4.83282C2.64691 0.965698 0.874878 2.73773 0.874878 4.92365V23.3941C0.874878 25.58 2.64691 27.352 4.83282 27.352H23.3032C25.4892 27.352 27.2612 25.58 27.2612 23.3941V4.92365C27.2612 2.73773 25.4892 0.965698 23.3032 0.965698Z" fill="#778295"/>
<path id="Vector_2" d="M14.1712 5.50087C9.22376 7.20155 6.02854 10.6545 6.33775 12.7159C6.64697 14.7773 9.73911 16.4265 11.1306 17.5087C9.32683 18.4364 7.05926 19.8278 7.11079 21.6316C7.21386 24.1053 9.89372 23.3322 11.0275 22.6107C12.1613 21.8892 13.2951 19.8794 12.5736 17.7664C14.1712 17.3541 15.5627 17.8695 15.9749 18.1787C17.5726 19.3125 16.748 20.6009 16.1811 20.807C15.6142 21.0131 15.9749 21.1162 16.3357 21.0131C16.6964 20.9101 17.4695 20.3947 17.4695 19.5186C17.4695 17.3026 15.0988 16.2718 12.1613 17.0449C10.4606 15.2411 8.14151 14.4166 8.24458 12.4582C8.29611 11.7367 8.55379 9.88141 13.1405 7.5623C17.7272 5.24319 20.9739 6.17084 20.5616 8.2838C19.9432 11.479 14.3773 13.6435 12.419 11.7882C12.3159 11.5821 11.9552 11.4275 12.1613 11.9944C13.192 14.5712 21.5408 13.3858 21.9016 7.92305C22.0046 5.03705 17.8302 4.26402 14.1712 5.50087ZM9.73911 21.9923C8.45072 22.4046 8.50226 21.58 8.55379 21.2708C8.7084 20.3947 9.4299 19.3125 11.5944 18.2302C12.2128 20.1886 10.8214 21.6831 9.73911 21.9923Z" fill="white"/>
</g>
<defs>
<clipPath id="clip0_3357_3938">
<rect width="26.3863" height="26.3863" fill="white" transform="translate(0.874878 0.965698)"/>
</clipPath>
</defs>
</svg>
