<svg width="27" height="28" viewBox="0 0 27 28" fill="none" xmlns="http://www.w3.org/2000/svg">
<g id="tailwind">
<path id="Vector" d="M7.46036 12.0351C8.22996 8.95668 10.154 7.41748 13.2324 7.41748C17.85 7.41748 18.4272 10.8807 20.736 11.4579C22.2752 11.8427 23.622 11.2655 24.7764 9.72628C24.0068 12.8047 22.0828 14.3439 19.0044 14.3439C14.3868 14.3439 13.8096 10.8807 11.5008 10.3035C9.96156 9.91868 8.61476 10.4959 7.46036 12.0351ZM1.68835 18.9615C2.45796 15.8831 4.38196 14.3439 7.46036 14.3439C12.078 14.3439 12.6552 17.8071 14.964 18.3843C16.5032 18.7691 17.85 18.1919 19.0044 16.6527C18.2348 19.7311 16.3108 21.2703 13.2324 21.2703C8.61476 21.2703 8.03756 17.8071 5.72876 17.2299C4.18956 16.8451 2.84276 17.4223 1.68835 18.9615Z" fill="#778295"/>
</g>
</svg>
