<svg width="28" height="28" viewBox="0 0 28 28" fill="none" xmlns="http://www.w3.org/2000/svg">
<g id="ts" clip-path="url(#clip0_3357_3919)">
<path id="Vector" d="M23.286 0.96582H4.81561C2.6297 0.96582 0.857666 2.73785 0.857666 4.92377V23.3942C0.857666 25.5801 2.6297 27.3521 4.81561 27.3521H23.286C25.4719 27.3521 27.244 25.5801 27.244 23.3942V4.92377C27.244 2.73785 25.4719 0.96582 23.286 0.96582Z" fill="#778295"/>
<path id="Vector_2" d="M12.8655 15.6019H16.1637V13.4889H6.93884V15.6019H10.2371V25.0329H12.8655V15.6019ZM17.1945 24.5176C17.6119 24.734 18.1221 24.8938 18.689 25.002C19.2559 25.1102 19.8743 25.1618 20.4927 25.1618C21.1112 25.1618 21.6781 25.1051 22.245 24.9866C22.8119 24.868 23.2757 24.6722 23.688 24.4197C24.1054 24.1465 24.461 23.8012 24.6671 23.3374C24.8733 22.8736 25.0331 22.3582 25.0331 21.6883C25.0331 21.2193 24.9609 20.8122 24.8218 20.4514C24.6826 20.0907 24.4816 19.7814 24.2033 19.5238C23.9405 19.2506 23.6364 19.0084 23.2757 18.8023C22.9149 18.5961 22.5026 18.3797 22.0388 18.1838C21.6987 18.0447 21.4204 17.9107 21.1112 17.7767C20.8432 17.6427 20.6113 17.5087 20.4412 17.3747C20.2505 17.2356 20.1062 17.0913 20.0032 16.9418C19.9001 16.7872 19.8486 16.6172 19.8486 16.4265C19.8486 16.2512 19.8944 16.0915 19.9877 15.9472C20.081 15.8029 20.2093 15.6844 20.3742 15.5813C20.5391 15.4782 20.7453 15.4009 20.9926 15.3442C21.2349 15.2875 21.5029 15.2618 21.8172 15.2618C22.0337 15.2618 22.2604 15.2777 22.4872 15.3102C22.7242 15.3427 22.9665 15.3927 23.2087 15.4597C23.4509 15.5267 23.688 15.6091 23.9302 15.7122C24.1569 15.8153 24.3682 15.9338 24.5486 16.0678V13.6456C24.1569 13.4961 23.724 13.3828 23.2602 13.3106C22.7964 13.2385 22.281 13.2024 21.6626 13.2024C21.0442 13.2024 20.4773 13.2694 19.9104 13.3982C19.3435 13.5271 18.8797 13.7332 18.4674 14.0167C18.05 14.295 17.7459 14.6351 17.4882 15.0989C17.246 15.5318 17.1275 16.0266 17.1275 16.645C17.1275 17.418 17.3491 18.088 17.7974 18.6033C18.2406 19.1702 18.9312 19.5825 19.8073 19.9948C20.1629 20.1391 20.4773 20.2834 20.7865 20.4226C21.0957 20.5617 21.3534 20.706 21.5595 20.8555C21.7811 21.0049 21.9564 21.1698 22.0749 21.345C22.2037 21.5203 22.2707 21.7264 22.2707 21.9635C22.2707 22.1284 22.2305 22.283 22.1522 22.4273C22.0739 22.5716 21.9512 22.6953 21.7863 22.7984C21.6214 22.9014 21.4204 22.9839 21.1679 23.0457C20.9257 23.1024 20.6525 23.1333 20.2918 23.1333C19.7249 23.1333 19.158 23.0354 18.6426 22.8396C18.0757 22.6437 17.5604 22.35 17.1945 22.0439V24.5176Z" fill="white"/>
</g>
<defs>
<clipPath id="clip0_3357_3919">
<rect width="26.3863" height="26.3863" fill="white" transform="translate(0.857666 0.96582)"/>
</clipPath>
</defs>
</svg>
