<svg width="48" height="47" viewBox="0 0 48 47" fill="none" xmlns="http://www.w3.org/2000/svg">
<g id="tailwind">
<path id="Vector" d="M13.6364 20.0397C14.9959 14.6019 18.3945 11.8829 23.8324 11.8829C31.9892 11.8829 33.0088 18.0005 37.0871 19.0201C39.8061 19.6998 42.1851 18.6802 44.2243 15.9613C42.8649 21.3992 39.4662 24.1181 34.0284 24.1181C25.8716 24.1181 24.852 18.0005 20.7736 16.9809C18.0547 16.3012 15.6756 17.3208 13.6364 20.0397ZM3.44043 32.2749C4.79989 26.837 8.19855 24.1181 13.6364 24.1181C21.7932 24.1181 22.8128 30.2357 26.8912 31.2553C29.6101 31.935 31.9892 30.9154 34.0284 28.1965C32.6689 33.6343 29.2702 36.3533 23.8324 36.3533C15.6756 36.3533 14.656 30.2357 10.5776 29.2161C7.85869 28.5364 5.47962 29.556 3.44043 32.2749Z" fill="#44A8B3"/>
</g>
</svg>
