<svg width="25" height="25" viewBox="0 0 25 25" fill="none" xmlns="http://www.w3.org/2000/svg">
<g id="Social icon" clip-path="url(#clip0_3357_7297)">
<path id="Icon" fill-rule="evenodd" clip-rule="evenodd" d="M12.5 0.0908203C5.8724 0.0908203 0.5 5.47162 0.5 12.1112C0.5 17.4212 3.938 21.9272 8.7068 23.516C9.3068 23.6264 9.5252 23.2556 9.5252 22.9364C9.5252 22.652 9.5156 21.8948 9.5096 20.8928C6.1712 21.6188 5.4668 19.2812 5.4668 19.2812C4.922 17.8916 4.1348 17.522 4.1348 17.522C3.0452 16.778 4.2176 16.7924 4.2176 16.7924C5.4212 16.8764 6.0548 18.0308 6.0548 18.0308C7.1252 19.8668 8.864 19.3364 9.5468 19.0292C9.6572 18.2528 9.9668 17.7236 10.31 17.4236C7.646 17.12 4.844 16.088 4.844 11.4824C4.844 10.1708 5.312 9.09682 6.0788 8.25682C5.9552 7.95322 5.5436 6.73042 6.1964 5.07682C6.1964 5.07682 7.2044 4.75282 9.4964 6.30802C10.4753 6.04104 11.4853 5.90505 12.5 5.90362C13.52 5.90842 14.546 6.04162 15.5048 6.30802C17.7956 4.75282 18.8012 5.07562 18.8012 5.07562C19.4564 6.73042 19.0436 7.95322 18.9212 8.25682C19.6892 9.09682 20.1548 10.1708 20.1548 11.4824C20.1548 16.1 17.348 17.1164 14.6756 17.414C15.1064 17.7848 15.4892 18.518 15.4892 19.64C15.4892 21.2456 15.4748 22.5428 15.4748 22.9364C15.4748 23.258 15.6908 23.6324 16.3004 23.5148C18.69 22.7133 20.7672 21.1812 22.2386 19.1349C23.7099 17.0886 24.501 14.6316 24.5 12.1112C24.5 5.47162 19.1264 0.0908203 12.5 0.0908203Z" fill="#778295"/>
</g>
<defs>
<clipPath id="clip0_3357_7297">
<rect width="24" height="24" fill="white" transform="translate(0.5 0.0908203)"/>
</clipPath>
</defs>
</svg>
