<svg width="30" height="30" viewBox="0 0 30 30" fill="none" xmlns="http://www.w3.org/2000/svg">
<g id="Social icon" clip-path="url(#clip0_3316_18221)">
<path id="Icon" fill-rule="evenodd" clip-rule="evenodd" d="M15 0C6.7155 0 0 6.726 0 15.0255C0 21.663 4.2975 27.2955 10.2585 29.2815C11.0085 29.4195 11.2815 28.956 11.2815 28.557C11.2815 28.2015 11.2695 27.255 11.262 26.0025C7.089 26.91 6.2085 23.988 6.2085 23.988C5.5275 22.251 4.5435 21.789 4.5435 21.789C3.1815 20.859 4.647 20.877 4.647 20.877C6.1515 20.982 6.9435 22.425 6.9435 22.425C8.2815 24.72 10.455 24.057 11.3085 23.673C11.4465 22.7025 11.8335 22.041 12.2625 21.666C8.9325 21.2865 5.43 19.9965 5.43 14.2395C5.43 12.6 6.015 11.2575 6.9735 10.2075C6.819 9.828 6.3045 8.2995 7.1205 6.2325C7.1205 6.2325 8.3805 5.8275 11.2455 7.7715C12.4692 7.43777 13.7317 7.26779 15 7.266C16.275 7.272 17.5575 7.4385 18.756 7.7715C21.6195 5.8275 22.8765 6.231 22.8765 6.231C23.6955 8.2995 23.1795 9.828 23.0265 10.2075C23.9865 11.2575 24.5685 12.6 24.5685 14.2395C24.5685 20.0115 21.06 21.282 17.7195 21.654C18.258 22.1175 18.7365 23.034 18.7365 24.4365C18.7365 26.4435 18.7185 28.065 18.7185 28.557C18.7185 28.959 18.9885 29.427 19.7505 29.28C22.7374 28.2782 25.334 26.363 27.1732 23.8051C29.0124 21.2472 30.0013 18.176 30 15.0255C30 6.726 23.283 0 15 0Z" fill="#F3F8FF"/>
</g>
<defs>
<clipPath id="clip0_3316_18221">
<rect width="30" height="30" fill="white"/>
</clipPath>
</defs>
</svg>
