<svg width="30" height="30" viewBox="0 0 30 30" fill="none" xmlns="http://www.w3.org/2000/svg">
<g id="ri:instagram-fill">
<path id="Vector" d="M15.8878 2.0016C16.8729 1.99796 17.858 2.00749 18.8428 2.0302L19.1047 2.0393C19.4071 2.0497 19.7054 2.0627 20.0658 2.0783C21.5022 2.14329 22.4822 2.36169 23.3421 2.68278C24.2331 3.01297 24.9837 3.46015 25.7342 4.18292C26.4205 4.83239 26.9516 5.61801 27.2907 6.48515C27.6241 7.31322 27.8509 8.25829 27.9184 9.64144C27.9346 9.98723 27.9481 10.2758 27.9589 10.567L27.967 10.8192C27.991 11.7671 28.0013 12.7153 27.998 13.6635L27.9994 14.6333V16.3362C28.0027 17.2848 27.9924 18.2335 27.9683 19.1818L27.9602 19.434C27.9494 19.7252 27.9359 20.0125 27.9198 20.3596C27.8523 21.7427 27.6228 22.6865 27.2907 23.5146C26.9527 24.3826 26.4215 25.1689 25.7342 25.8181C25.0592 26.4789 24.243 26.9903 23.3421 27.3169C22.4822 27.638 21.5022 27.8564 20.0658 27.9214C19.7054 27.937 19.4071 27.95 19.1047 27.9604L18.8428 27.9682C17.858 27.9913 16.8729 28.0013 15.8878 27.9981L14.8808 27.9994H13.1137C12.1286 28.0026 11.1435 27.9927 10.1587 27.9695L9.89682 27.9617C9.57636 27.9505 9.25597 27.9375 8.93567 27.9227C7.49935 27.8577 6.5193 27.6367 5.65804 27.3169C4.75721 26.9911 3.94125 26.4795 3.26731 25.8181C2.58026 25.1685 2.04863 24.3824 1.70949 23.5146C1.37606 22.6865 1.14927 21.7427 1.08177 20.3596C1.06674 20.0511 1.05324 19.7426 1.04128 19.434L1.03453 19.1818C1.00964 18.2335 0.998389 17.2849 1.00078 16.3362V13.6635C0.997011 12.7153 1.00691 11.7671 1.03048 10.8192L1.03993 10.567C1.05073 10.2758 1.06423 9.98723 1.08042 9.64144C1.14792 8.25699 1.37471 7.31452 1.70814 6.48515C2.04748 5.61758 2.58015 4.83218 3.26866 4.18423C3.94214 3.52223 4.75758 3.00981 5.65804 2.68278C6.5193 2.36169 7.498 2.14329 8.93567 2.0783L9.89682 2.0393L10.1587 2.0328C11.1431 2.00884 12.1277 1.99801 13.1124 2.0003L15.8878 2.0016ZM14.5001 8.50138C13.6058 8.4892 12.7178 8.6483 11.8879 8.96945C11.058 9.2906 10.3027 9.76738 9.66578 10.3721C9.02888 10.9768 8.52313 11.6974 8.17794 12.4919C7.83274 13.2865 7.65498 14.1392 7.65498 15.0005C7.65498 15.8618 7.83274 16.7145 8.17794 17.5091C8.52313 18.3036 9.02888 19.0242 9.66578 19.6289C10.3027 20.2336 11.058 20.7104 11.8879 21.0316C12.7178 21.3527 13.6058 21.5118 14.5001 21.4996C16.2902 21.4996 18.007 20.8148 19.2728 19.5959C20.5386 18.3769 21.2497 16.7237 21.2497 14.9999C21.2497 13.276 20.5386 11.6228 19.2728 10.4038C18.007 9.18487 16.2902 8.50138 14.5001 8.50138ZM14.5001 11.1013C15.038 11.0917 15.5726 11.1855 16.0725 11.3771C16.5724 11.5688 17.0276 11.8544 17.4116 12.2174C17.7956 12.5803 18.1006 13.0133 18.3088 13.4911C18.5171 13.9688 18.6244 14.4817 18.6245 14.9998C18.6246 15.518 18.5174 16.0309 18.3094 16.5087C18.1013 16.9866 17.7964 17.4196 17.4126 17.7827C17.0287 18.1458 16.5736 18.4316 16.0737 18.6234C15.5739 18.8151 15.0394 18.9091 14.5014 18.8997C13.4274 18.8997 12.3973 18.4888 11.6378 17.7575C10.8783 17.0261 10.4516 16.0342 10.4516 14.9999C10.4516 13.9655 10.8783 12.9736 11.6378 12.2422C12.3973 11.5109 13.4274 11.1 14.5014 11.1L14.5001 11.1013ZM21.5872 6.55144C21.1517 6.56823 20.7399 6.74663 20.4379 7.04929C20.1359 7.35195 19.9673 7.75538 19.9673 8.17509C19.9673 8.5948 20.1359 8.99823 20.4379 9.30089C20.7399 9.60354 21.1517 9.78195 21.5872 9.79873C22.0348 9.79873 22.464 9.62753 22.7804 9.3228C23.0969 9.01806 23.2746 8.60475 23.2746 8.17379C23.2746 7.74283 23.0969 7.32952 22.7804 7.02478C22.464 6.72004 22.0348 6.54884 21.5872 6.54884V6.55144Z" fill="#F3F8FF"/>
</g>
</svg>
