<svg width="25" height="25" viewBox="0 0 25 25" fill="none" xmlns="http://www.w3.org/2000/svg">
<g id="ri:instagram-fill" clip-path="url(#clip0_3357_7287)">
<path id="Vector" d="M13.1823 0.592235C14.0215 0.589015 14.8606 0.597449 15.6996 0.617534L15.9227 0.625584C16.1803 0.634784 16.4344 0.646283 16.7414 0.660083C17.965 0.717581 18.7999 0.910775 19.5324 1.19481C20.2914 1.48691 20.9307 1.88249 21.5701 2.52187C22.1547 3.0964 22.6072 3.79136 22.896 4.55845C23.1801 5.29098 23.3733 6.127 23.4308 7.35055C23.4446 7.65644 23.4561 7.91174 23.4653 8.16933L23.4722 8.39242C23.4926 9.23096 23.5014 10.0697 23.4986 10.9085L23.4998 11.7664V13.2729C23.5026 14.112 23.4938 14.9512 23.4733 15.7901L23.4664 16.0132C23.4572 16.2708 23.4457 16.5249 23.4319 16.832C23.3744 18.0555 23.1789 18.8904 22.896 19.6229C22.6081 20.3908 22.1556 21.0864 21.5701 21.6607C20.9951 22.2452 20.2998 22.6976 19.5324 22.9866C18.7999 23.2706 17.965 23.4638 16.7414 23.5213C16.4344 23.5351 16.1803 23.5466 15.9227 23.5558L15.6996 23.5627C14.8606 23.5831 14.0215 23.592 13.1823 23.5892L12.3244 23.5903H10.8191C9.97997 23.5931 9.1408 23.5843 8.30188 23.5639L8.07878 23.557C7.80579 23.5471 7.53287 23.5356 7.26001 23.5225C6.03645 23.465 5.20158 23.2695 4.46791 22.9866C3.70052 22.6983 3.00543 22.2458 2.43133 21.6607C1.84605 21.086 1.39317 20.3906 1.10427 19.6229C0.820231 18.8904 0.627037 18.0555 0.569539 16.832C0.556732 16.5591 0.545232 16.2862 0.53504 16.0132L0.529291 15.7901C0.508089 14.9512 0.498505 14.112 0.500541 13.2729V10.9085C0.497332 10.0698 0.505766 9.23097 0.525841 8.39242L0.53389 8.16933C0.54309 7.91174 0.55459 7.65644 0.568389 7.35055C0.625887 6.12585 0.819081 5.29213 1.10312 4.55845C1.39219 3.79099 1.84595 3.09621 2.43248 2.52302C3.00618 1.9374 3.70084 1.48411 4.46791 1.19481C5.20158 0.910775 6.0353 0.717581 7.26001 0.660083L8.07878 0.625584L8.30188 0.619834C9.14041 0.598644 9.97919 0.58906 10.818 0.591085L13.1823 0.592235ZM12.0001 6.34204C11.2383 6.33126 10.4819 6.47201 9.77495 6.7561C9.06798 7.04019 8.42452 7.46196 7.88196 7.9969C7.33941 8.53183 6.90858 9.16926 6.61452 9.87215C6.32046 10.575 6.16903 11.3294 6.16903 12.0913C6.16903 12.8532 6.32046 13.6075 6.61452 14.3104C6.90858 15.0133 7.33941 15.6507 7.88196 16.1856C8.42452 16.7206 9.06798 17.1423 9.77495 17.4264C10.4819 17.7105 11.2383 17.8513 12.0001 17.8405C13.5251 17.8405 14.9876 17.2347 16.0659 16.1564C17.1442 15.0781 17.75 13.6156 17.75 12.0907C17.75 10.5658 17.1442 9.10327 16.0659 8.02497C14.9876 6.94667 13.5251 6.34204 12.0001 6.34204ZM12.0001 8.64196C12.4584 8.63352 12.9138 8.71648 13.3396 8.88599C13.7655 9.05551 14.1533 9.30818 14.4804 9.62925C14.8075 9.95033 15.0673 10.3334 15.2447 10.756C15.4221 11.1786 15.5135 11.6323 15.5136 12.0907C15.5137 12.549 15.4224 13.0028 15.2451 13.4255C15.0679 13.8482 14.8082 14.2313 14.4812 14.5525C14.1542 14.8736 13.7665 15.1264 13.3407 15.2961C12.9149 15.4658 12.4596 15.5489 12.0013 15.5406C11.0863 15.5406 10.2088 15.1771 9.56186 14.5301C8.91489 13.8832 8.55142 13.0057 8.55142 12.0907C8.55142 11.1757 8.91489 10.2982 9.56186 9.65126C10.2088 9.00428 11.0863 8.64081 12.0013 8.64081L12.0001 8.64196ZM18.0374 4.6171C17.6665 4.63195 17.3156 4.78977 17.0584 5.0575C16.8011 5.32523 16.6575 5.68212 16.6575 6.0534C16.6575 6.42468 16.8011 6.78156 17.0584 7.0493C17.3156 7.31703 17.6665 7.47485 18.0374 7.4897C18.4187 7.4897 18.7843 7.33826 19.0539 7.06868C19.3235 6.79911 19.4749 6.43349 19.4749 6.05225C19.4749 5.67101 19.3235 5.30539 19.0539 5.03582C18.7843 4.76624 18.4187 4.6148 18.0374 4.6148V4.6171Z" fill="#778295"/>
</g>
<defs>
<clipPath id="clip0_3357_7287">
<rect width="24" height="24" fill="white" transform="translate(0.5 0.0908203)"/>
</clipPath>
</defs>
</svg>
