<svg width="30" height="30" viewBox="0 0 30 30" fill="none" xmlns="http://www.w3.org/2000/svg">
<g id="Social icon">
<g id="Group">
<path id="Vector" d="M27.8718 0.625H3.37256C2.19897 0.625 1.25 1.55151 1.25 2.69702V27.2974C1.25 28.4429 2.19897 29.375 3.37256 29.375H27.8718C29.0454 29.375 30 28.4429 30 27.303V2.69702C30 1.55151 29.0454 0.625 27.8718 0.625ZM9.77954 25.1243H5.51196V11.4006H9.77954V25.1243ZM7.64575 9.53076C6.27563 9.53076 5.16943 8.42456 5.16943 7.06006C5.16943 5.69556 6.27563 4.58935 7.64575 4.58935C9.01025 4.58935 10.1165 5.69556 10.1165 7.06006C10.1165 8.41894 9.01025 9.53076 7.64575 9.53076ZM25.7493 25.1243H21.4873V18.4534C21.4873 16.8643 21.4592 14.8147 19.2693 14.8147C17.0513 14.8147 16.7144 16.5498 16.7144 18.3411V25.1243H12.458V11.4006H16.5459V13.2761H16.602C17.1692 12.198 18.5618 11.0581 20.6338 11.0581C24.9519 11.0581 25.7493 13.8994 25.7493 17.5942V25.1243Z" fill="#F3F8FF"/>
</g>
</g>
</svg>
