<svg width="25" height="25" viewBox="0 0 25 25" fill="none" xmlns="http://www.w3.org/2000/svg">
<g id="Social icon" clip-path="url(#clip0_3357_7294)">
<g id="Group">
<path id="Vector" d="M22.7975 0.59082H3.19805C2.25918 0.59082 1.5 1.33203 1.5 2.24844V21.9287C1.5 22.8451 2.25918 23.5908 3.19805 23.5908H22.7975C23.7363 23.5908 24.5 22.8451 24.5 21.9332V2.24844C24.5 1.33203 23.7363 0.59082 22.7975 0.59082ZM8.32363 20.1902H4.90957V9.21133H8.32363V20.1902ZM6.6166 7.71543C5.52051 7.71543 4.63555 6.83047 4.63555 5.73887C4.63555 4.64727 5.52051 3.7623 6.6166 3.7623C7.7082 3.7623 8.59316 4.64727 8.59316 5.73887C8.59316 6.82598 7.7082 7.71543 6.6166 7.71543ZM21.0994 20.1902H17.6898V14.8535C17.6898 13.5822 17.6674 11.9426 15.9154 11.9426C14.141 11.9426 13.8715 13.3307 13.8715 14.7637V20.1902H10.4664V9.21133H13.7367V10.7117H13.7816C14.2354 9.84922 15.3494 8.9373 17.007 8.9373C20.4615 8.9373 21.0994 11.2104 21.0994 14.1662V20.1902Z" fill="#778295"/>
</g>
</g>
<defs>
<clipPath id="clip0_3357_7294">
<rect width="24" height="24" fill="white" transform="translate(0.5 0.0908203)"/>
</clipPath>
</defs>
</svg>
