<svg width="30" height="31" viewBox="0 0 30 31" fill="none" xmlns="http://www.w3.org/2000/svg">
<g id="Message">
<g id="Iconly/Bold/Message">
<g id="Message_2">
<path id="Vector" d="M21.1747 4.25C22.851 4.25 24.4635 4.9125 25.6497 6.10125C26.8372 7.2875 27.501 8.8875 27.501 10.5625V20.4375C27.501 23.925 24.6635 26.75 21.1747 26.75H8.82598C5.33723 26.75 2.50098 23.925 2.50098 20.4375V10.5625C2.50098 7.075 5.32473 4.25 8.82598 4.25H21.1747ZM22.5885 10.75C22.326 10.7362 22.076 10.825 21.8872 11L16.251 15.5C15.526 16.1012 14.4872 16.1012 13.751 15.5L8.12598 11C7.73723 10.7125 7.19973 10.75 6.87598 11.0875C6.53848 11.425 6.50098 11.9625 6.78723 12.3375L6.95098 12.5L12.6385 16.9375C13.3385 17.4875 14.1872 17.7875 15.076 17.7875C15.9622 17.7875 16.826 17.4875 17.5247 16.9375L23.1635 12.425L23.2635 12.325C23.5622 11.9625 23.5622 11.4375 23.2497 11.075C23.076 10.8888 22.8372 10.775 22.5885 10.75Z" fill="#F3F8FF"/>
</g>
</g>
</g>
</svg>
