<svg width="25" height="25" viewBox="0 0 25 25" fill="none" xmlns="http://www.w3.org/2000/svg">
<g id="Social icon" clip-path="url(#clip0_3357_7289)">
<g id="Group">
<path id="Vector" d="M13 23.5908C19.3513 23.5908 24.5 18.4421 24.5 12.0908C24.5 5.73954 19.3513 0.59082 13 0.59082C6.64873 0.59082 1.5 5.73954 1.5 12.0908C1.5 18.4421 6.64873 23.5908 13 23.5908Z" fill="#778295"/>
<g id="layer1">
<path id="path1009" d="M5.10793 5.13867L10.8438 12.8079L5.07178 19.0434H6.37093L11.4244 13.584L15.5074 19.0434H19.9281L13.8694 10.9428L19.242 5.13867H17.9429L13.289 10.1665L9.52868 5.13867H5.10793ZM7.01838 6.09552H9.04926L18.0174 18.0865H15.9865L7.01838 6.09552Z" fill="white"/>
</g>
</g>
</g>
<defs>
<clipPath id="clip0_3357_7289">
<rect width="24" height="24" fill="white" transform="translate(0.5 0.0908203)"/>
</clipPath>
</defs>
</svg>
