<svg width="20" height="20" viewBox="0 0 20 20" fill="none" xmlns="http://www.w3.org/2000/svg">
<g id="Challegne" clipPath="url(#clip0_3316_22747)">
<g id="Group">
<g id="Group_2">
<path id="Vector" d="M10 20C15.5228 20 20 15.5228 20 10C20 4.47715 15.5228 0 10 0C4.47715 0 0 4.47715 0 10C0 15.5228 4.47715 20 10 20Z" fill="#FF3C7D"/>
<path id="Vector_2" d="M10 0V20C15.5229 20 20 15.5229 20 10C20 4.47715 15.5229 0 10 0Z" fill="#E50058"/>
<path id="Vector_3" d="M10 17.6562C5.77832 17.6562 2.34375 14.2217 2.34375 10C2.34375 5.77832 5.77832 2.34375 10 2.34375C14.2217 2.34375 17.6562 5.77832 17.6562 10C17.6562 14.2217 14.2217 17.6562 10 17.6562Z" fill="#FFF5F5"/>
<path id="Vector_4" d="M10 2.34375V17.6562C14.2217 17.6562 17.6562 14.2217 17.6562 10C17.6562 5.77832 14.2217 2.34375 10 2.34375Z" fill="#ECE9E8"/>
<path id="Vector_5" d="M10 15.3125C7.0707 15.3125 4.6875 12.9293 4.6875 10C4.6875 7.0707 7.0707 4.6875 10 4.6875C12.9293 4.6875 15.3125 7.0707 15.3125 10C15.3125 12.9293 12.9293 15.3125 10 15.3125Z" fill="#FF3C7D"/>
<path id="Vector_6" d="M10 4.6875V15.3125C12.9293 15.3125 15.3125 12.9293 15.3125 10C15.3125 7.0707 12.9293 4.6875 10 4.6875Z" fill="#E50058"/>
<path id="Vector_7" d="M10 12.9688C8.36305 12.9688 7.03125 11.637 7.03125 10C7.03125 8.36305 8.36305 7.03125 10 7.03125C11.637 7.03125 12.9688 8.36305 12.9688 10C12.9688 11.637 11.637 12.9688 10 12.9688Z" fill="#FFF5F5"/>
<path id="Vector_8" d="M10 7.03125V12.9688C11.637 12.9688 12.9688 11.637 12.9688 10C12.9688 8.36305 11.637 7.03125 10 7.03125Z" fill="#ECE9E8"/>
<path id="Vector_9" d="M19.6038 2.79391L18.4349 2.39403L17.6773 2.32301L17.6063 1.5654L17.2064 0.39653C17.066 -0.0137046 16.5442 -0.13472 16.2377 0.171881L13.7517 2.65782C13.5936 2.81594 13.5393 3.05024 13.6116 3.2618L14.4087 5.59165L16.7385 6.38868C16.9501 6.46106 17.1844 6.40673 17.3425 6.2486L19.8284 3.76266C20.135 3.45606 20.014 2.93426 19.6038 2.79391Z" fill="#FF9F22"/>
<path id="Vector_10" d="M19.6033 2.79414L18.4344 2.39426L17.6768 2.32324L14.4082 5.59184L16.738 6.38887C16.9496 6.46125 17.1839 6.40691 17.342 6.24879L19.828 3.76285C20.1346 3.45629 20.0136 2.93449 19.6033 2.79414Z" fill="#FF7C48"/>
<path id="Vector_11" d="M17.606 1.56543L17.8172 2.18285L18.4346 2.39406L10.4143 10.4143C10.1855 10.6432 9.81451 10.6432 9.58568 10.4143C9.35686 10.1855 9.35686 9.81453 9.58568 9.5857L17.606 1.56543Z" fill="#FFF47D"/>
<path id="Vector_12" d="M17.8175 2.18262L18.4349 2.39383L10.4146 10.4141C10.1857 10.6429 9.81477 10.6429 9.58594 10.4141L17.8175 2.18262Z" fill="#FFD422"/>
</g>
</g>
</g>
<defs>
<clipPath id="clip0_3316_22747">
<rect width="20" height="20" fill="white"/>
</clipPath>
</defs>
</svg>
