<svg width="18" height="18" viewBox="0 0 18 18" fill="none" xmlns="http://www.w3.org/2000/svg">
<g id="dashicons:admin-site-alt">
<path id="Vector" d="M9 1C6.87827 1 4.84344 1.84285 3.34315 3.34315C1.84285 4.84344 1 6.87827 1 9C1 11.1217 1.84285 13.1566 3.34315 14.6569C4.84344 16.1571 6.87827 17 9 17C11.1217 17 13.1566 16.1571 14.6569 14.6569C16.1571 13.1566 17 11.1217 17 9C17 6.87827 16.1571 4.84344 14.6569 3.34315C13.1566 1.84285 11.1217 1 9 1ZM15.6667 6.76C15.5462 7.15419 15.346 7.51939 15.0784 7.83288C14.8108 8.14636 14.4815 8.40143 14.1111 8.58222C13.9138 7.84134 13.5491 7.15558 13.0452 6.57771C12.5413 5.99984 11.9116 5.54524 11.2044 5.24889C11.3195 4.85449 11.5677 4.51212 11.9067 4.28C11.5244 4.03111 11.0178 3.90667 10.7156 4.34222C10.2444 4.95556 10.7156 5.77333 10.9022 6.12V6.24444C10.4087 5.94509 10.0228 5.49695 9.8 4.96444C8.94111 4.93686 8.09153 5.14925 7.34667 5.57778C7.26934 5.07591 7.31822 4.56269 7.48889 4.08444C7.80988 4.11508 8.13347 4.06624 8.43111 3.94222C8.72875 3.8182 8.99129 3.62283 9.19556 3.37333C9.60444 2.91111 9.08 2.32444 8.67111 1.96889H8.99111C10.2012 1.96073 11.3927 2.26702 12.4489 2.85778C13.0459 3.29898 13.5368 3.86789 13.8859 4.52299C14.235 5.1781 14.4334 5.90288 14.4667 6.64444C14.68 6.64444 15.0889 6.15556 15.2756 5.82667C15.4284 6.128 15.5591 6.44 15.6667 6.76ZM9 15.9689C7.17778 14.12 9.22222 12.6356 8.11111 11.3111C7.29333 10.5556 6.07556 11.08 5.34667 10.2178C5.22362 9.57499 5.27682 8.91088 5.5006 8.29586C5.72438 7.68085 6.11042 7.13785 6.61778 6.72444C7.08 6.33333 10.1733 5.83556 11.4356 6.92C12.1738 7.55586 12.6932 8.40798 12.92 9.35556C13.3279 9.38637 13.7359 9.29674 14.0933 9.09778C14.4578 11.7467 11.2933 15.0889 9 15.9689ZM5.57778 2.85778C5.91749 2.72826 6.29068 2.71562 6.63838 2.82186C6.98608 2.9281 7.28847 3.14717 7.49778 3.44444C7.12444 3.78222 6.66222 4.00444 6.16444 4.08444C6.18283 3.82271 6.23974 3.56512 6.33333 3.32L5.57778 2.85778Z" fill="#0252CD"/>
</g>
</svg>
