<svg width="20" height="20" viewBox="0 0 20 20" fill="none" xmlns="http://www.w3.org/2000/svg">
<g id="Social icon">
<path id="Icon" fill-rule="evenodd" clip-rule="evenodd" d="M10.2126 1C5.12449 1 1 5.13094 1 10.2283C1 14.3049 3.63941 17.7642 7.3005 18.9839C7.76114 19.0687 7.9288 18.784 7.9288 18.539C7.9288 18.3206 7.92144 17.7393 7.91683 16.9701C5.35388 17.5274 4.8131 15.7328 4.8131 15.7328C4.39485 14.666 3.7905 14.3822 3.7905 14.3822C2.95399 13.8111 3.85407 13.8221 3.85407 13.8221C4.77809 13.8866 5.26452 14.7729 5.26452 14.7729C6.08628 16.1824 7.42119 15.7752 7.94539 15.5393C8.03014 14.9433 8.26783 14.537 8.53131 14.3067C6.48611 14.0736 4.33497 13.2813 4.33497 9.74553C4.33497 8.73859 4.69426 7.91407 5.28294 7.26918C5.18805 7.0361 4.87206 6.09734 5.37323 4.82784C5.37323 4.82784 6.14709 4.5791 7.90669 5.77305C8.65823 5.56809 9.43363 5.46369 10.2126 5.46259C10.9957 5.46627 11.7834 5.56853 12.5194 5.77305C14.2781 4.5791 15.0502 4.82692 15.0502 4.82692C15.5532 6.09734 15.2362 7.0361 15.1423 7.26918C15.7319 7.91407 16.0893 8.73859 16.0893 9.74553C16.0893 13.2905 13.9345 14.0709 11.8829 14.2993C12.2136 14.584 12.5075 15.1469 12.5075 16.0083C12.5075 17.2409 12.4964 18.2368 12.4964 18.539C12.4964 18.7859 12.6622 19.0733 13.1302 18.983C14.9647 18.3677 16.5595 17.1914 17.6891 15.6205C18.8187 14.0495 19.426 12.1632 19.4252 10.2283C19.4252 5.13094 15.2998 1 10.2126 1Z" fill="#428DFF"/>
</g>
</svg>
