<svg width="22" height="22" viewBox="0 0 22 22" fill="none" xmlns="http://www.w3.org/2000/svg">
<g id="tick" clipPath="url(#clip0_3316_22706)">
<path id="Vector" d="M11 22C17.0751 22 22 17.0751 22 11C22 4.92487 17.0751 0 11 0C4.92487 0 0 4.92487 0 11C0 17.0751 4.92487 22 11 22Z" fill="#02BC7D"/>
<path id="Vector_2" fillRule="evenodd" clipRule="evenodd" d="M8.6629 14.7451L5.78167 11.6292C5.38721 11.2026 5.40985 10.5277 5.83204 10.1291C6.25422 9.73052 6.92218 9.75346 7.31663 10.18L9.53909 12.5835L13.057 9.26232C13.0886 9.23242 13.1217 9.20503 13.1558 9.17983L14.8101 7.61807C15.2323 7.2195 15.9003 7.24244 16.2947 7.66903C16.6892 8.09556 16.6665 8.77054 16.2444 9.16911L11.1917 13.9393L11.1863 13.9334L9.43848 15.5835L8.6629 14.7451Z" fill="white"/>
</g>
<defs>
<clipPath id="clip0_3316_22706">
<rect width="22" height="22" fill="white"/>
</clipPath>
</defs>
</svg>
