<?xml version="1.0" encoding="UTF-8"?><svg xmlns="http://www.w3.org/2000/svg" xmlns:xlink="http://www.w3.org/1999/xlink" viewBox="0 0 600 400"><defs><style>.cls-1{fill:url(#_ÂÁ_Ï_ÌÌ_È_ËÂÌÚ_35);}.cls-1,.cls-2,.cls-3,.cls-4,.cls-5,.cls-6,.cls-7,.cls-8,.cls-9,.cls-10,.cls-11,.cls-12,.cls-13,.cls-14,.cls-15,.cls-16,.cls-17,.cls-18,.cls-19,.cls-20,.cls-21,.cls-22,.cls-23,.cls-24,.cls-25,.cls-26,.cls-27,.cls-28,.cls-29,.cls-30,.cls-31,.cls-32,.cls-33,.cls-34,.cls-35,.cls-36,.cls-37,.cls-38,.cls-39,.cls-40,.cls-41,.cls-42,.cls-43,.cls-44,.cls-45,.cls-46,.cls-47,.cls-48,.cls-49,.cls-50,.cls-51,.cls-52,.cls-53,.cls-54,.cls-55,.cls-56,.cls-57,.cls-58,.cls-59,.cls-60,.cls-61,.cls-62,.cls-63,.cls-64,.cls-65,.cls-66,.cls-67,.cls-68,.cls-69,.cls-70,.cls-71,.cls-72,.cls-73,.cls-74,.cls-75,.cls-76,.cls-77,.cls-78,.cls-79,.cls-80,.cls-81,.cls-82,.cls-83,.cls-84,.cls-85,.cls-86,.cls-87,.cls-88,.cls-89,.cls-90,.cls-91,.cls-92,.cls-93,.cls-94,.cls-95,.cls-96,.cls-97,.cls-98,.cls-99,.cls-100,.cls-101,.cls-102,.cls-103,.cls-104,.cls-105,.cls-106,.cls-107,.cls-108,.cls-109,.cls-110,.cls-111{strokeWidth:0px;}.cls-1,.cls-2,.cls-3,.cls-4,.cls-5,.cls-6,.cls-7,.cls-8,.cls-9,.cls-10,.cls-12,.cls-13,.cls-14,.cls-16,.cls-17,.cls-18,.cls-19,.cls-20,.cls-21,.cls-22,.cls-23,.cls-24,.cls-25,.cls-28,.cls-31,.cls-32,.cls-33,.cls-41,.cls-42,.cls-45,.cls-46,.cls-47,.cls-48,.cls-49,.cls-50,.cls-51,.cls-57,.cls-58,.cls-59,.cls-60,.cls-61,.cls-62,.cls-67,.cls-108,.cls-109,.cls-110,.cls-111{mix-blend-mode:multiply;}.cls-1,.cls-2,.cls-3,.cls-4,.cls-5,.cls-6,.cls-7,.cls-8,.cls-9,.cls-66{opacity:.6;}.cls-2{fill:url(#_ÂÁ_Ï_ÌÌ_È_ËÂÌÚ_48);}.cls-3{fill:url(#_ÂÁ_Ï_ÌÌ_È_ËÂÌÚ_52);}.cls-4{fill:url(#_ÂÁ_Ï_ÌÌ_È_ËÂÌÚ_89);}.cls-5{fill:url(#_ÂÁ_Ï_ÌÌ_È_ËÂÌÚ_48-5);}.cls-6{fill:url(#_ÂÁ_Ï_ÌÌ_È_ËÂÌÚ_48-3);}.cls-7{fill:url(#_ÂÁ_Ï_ÌÌ_È_ËÂÌÚ_48-2);}.cls-8{fill:url(#_ÂÁ_Ï_ÌÌ_È_ËÂÌÚ_48-4);}.cls-9{fill:url(#_ÂÁ_Ï_ÌÌ_È_ËÂÌÚ_48-6);}.cls-10{fill:url(#_ÂÁ_Ï_ÌÌ_È_ËÂÌÚ_85);}.cls-10,.cls-41,.cls-42,.cls-108,.cls-109,.cls-110{opacity:.3;}.cls-11{fill:#b3d9ff;}.cls-11,.cls-16,.cls-26,.cls-27,.cls-52,.cls-53,.cls-54,.cls-55,.cls-56{fillRule:evenodd;}.cls-11,.cls-112{mix-blend-mode:soft-light;}.cls-12{fill:#d1d4fb;}.cls-13{fill:url(#_ÂÁ_Ï_ÌÌ_È_ËÂÌÚ_94);}.cls-13,.cls-14{opacity:.62;}.cls-14{fill:url(#_ÂÁ_Ï_ÌÌ_È_ËÂÌÚ_27);}.cls-113{clip-path:url(#clippath);}.cls-15{fill:none;}.cls-16{fill:#601734;}.cls-16,.cls-17,.cls-18,.cls-19,.cls-20,.cls-21,.cls-22,.cls-23,.cls-24,.cls-25,.cls-28,.cls-29,.cls-46,.cls-47,.cls-48,.cls-49,.cls-50,.cls-51,.cls-57,.cls-58,.cls-59,.cls-60,.cls-61,.cls-63,.cls-64{opacity:.5;}.cls-17{fill:url(#_ÂÁ_Ï_ÌÌ_È_ËÂÌÚ_397);}.cls-18{fill:url(#_ÂÁ_Ï_ÌÌ_È_ËÂÌÚ_4-3);}.cls-19{fill:url(#_ÂÁ_Ï_ÌÌ_È_ËÂÌÚ_4-4);}.cls-20{fill:url(#_ÂÁ_Ï_ÌÌ_È_ËÂÌÚ_4-7);}.cls-21{fill:url(#_ÂÁ_Ï_ÌÌ_È_ËÂÌÚ_4-6);}.cls-22{fill:url(#_ÂÁ_Ï_ÌÌ_È_ËÂÌÚ_4-9);}.cls-23{fill:url(#_ÂÁ_Ï_ÌÌ_È_ËÂÌÚ_4-8);}.cls-24{fill:url(#_ÂÁ_Ï_ÌÌ_È_ËÂÌÚ_4-5);}.cls-25{fill:url(#_ÂÁ_Ï_ÌÌ_È_ËÂÌÚ_4-2);}.cls-26{fill:url(#_ÂÁ_Ï_ÌÌ_È_ËÂÌÚ_107);}.cls-27{fill:url(#_ÂÁ_Ï_ÌÌ_È_ËÂÌÚ_206);}.cls-28{fill:url(#_ÂÁ_Ï_ÌÌ_È_ËÂÌÚ_4);}.cls-29{fill:url(#_ÂÁ_Ï_ÌÌ_È_ËÂÌÚ_83-2);}.cls-29,.cls-63,.cls-64{mix-blend-mode:screen;}.cls-30{fill:url(#_ÂÁ_Ï_ÌÌ_È_ËÂÌÚ_97-2);}.cls-30,.cls-65{opacity:.73;}.cls-31{fill:url(#_ÂÁ_Ï_ÌÌ_È_ËÂÌÚ_70-2);}.cls-31,.cls-32,.cls-33,.cls-111{opacity:.76;}.cls-32{fill:url(#_ÂÁ_Ï_ÌÌ_È_ËÂÌÚ_70-8);}.cls-33{fill:url(#_ÂÁ_Ï_ÌÌ_È_ËÂÌÚ_70-3);}.cls-34{fill:url(#_ÂÁ_Ï_ÌÌ_È_ËÂÌÚ_322);}.cls-35{fill:url(#_ÂÁ_Ï_ÌÌ_È_ËÂÌÚ_302);}.cls-36{fill:url(#_ÂÁ_Ï_ÌÌ_È_ËÂÌÚ_28-2);}.cls-37{fill:url(#_ÂÁ_Ï_ÌÌ_È_ËÂÌÚ_25-2);}.cls-38{fill:url(#_ÂÁ_Ï_ÌÌ_È_ËÂÌÚ_71-3);}.cls-39{fill:url(#_ÂÁ_Ï_ÌÌ_È_ËÂÌÚ_71-2);}.cls-40{fill:url(#_ÂÁ_Ï_ÌÌ_È_ËÂÌÚ_64-2);}.cls-41{fill:url(#_ÂÁ_Ï_ÌÌ_È_ËÂÌÚ_70-10);}.cls-42{fill:url(#_ÂÁ_Ï_ÌÌ_È_ËÂÌÚ_70-13);}.cls-43{fill:url(#_ÂÁ_Ï_ÌÌ_È_ËÂÌÚ_302-2);}.cls-44{fill:url(#_ÂÁ_Ï_ÌÌ_È_ËÂÌÚ_322-2);}.cls-45{fill:url(#_ÂÁ_Ï_ÌÌ_È_ËÂÌÚ_73);}.cls-45,.cls-67{opacity:.91;}.cls-46{fill:url(#_ÂÁ_Ï_ÌÌ_È_ËÂÌÚ_70-9);}.cls-47{fill:url(#_ÂÁ_Ï_ÌÌ_È_ËÂÌÚ_70-7);}.cls-48{fill:url(#_ÂÁ_Ï_ÌÌ_È_ËÂÌÚ_70-4);}.cls-49{fill:url(#_ÂÁ_Ï_ÌÌ_È_ËÂÌÚ_70-6);}.cls-50{fill:url(#_ÂÁ_Ï_ÌÌ_È_ËÂÌÚ_70-5);}.cls-51{fill:url(#_ÂÁ_Ï_ÌÌ_È_ËÂÌÚ_4-10);}.cls-52{fill:url(#_ÂÁ_Ï_ÌÌ_È_ËÂÌÚ_107-3);}.cls-53{fill:url(#_ÂÁ_Ï_ÌÌ_È_ËÂÌÚ_107-2);}.cls-54{fill:url(#_ÂÁ_Ï_ÌÌ_È_ËÂÌÚ_206-4);}.cls-55{fill:url(#_ÂÁ_Ï_ÌÌ_È_ËÂÌÚ_206-2);}.cls-56{fill:url(#_ÂÁ_Ï_ÌÌ_È_ËÂÌÚ_206-3);}.cls-57{fill:url(#_ÂÁ_Ï_ÌÌ_È_ËÂÌÚ_70-12);}.cls-58{fill:url(#_ÂÁ_Ï_ÌÌ_È_ËÂÌÚ_70-11);}.cls-59{fill:url(#_ÂÁ_Ï_ÌÌ_È_ËÂÌÚ_70-15);}.cls-60{fill:url(#_ÂÁ_Ï_ÌÌ_È_ËÂÌÚ_70-16);}.cls-61{fill:url(#_ÂÁ_Ï_ÌÌ_È_ËÂÌÚ_70-14);}.cls-62{fill:#393c47;opacity:.2;}.cls-63{fill:url(#_ÂÁ_Ï_ÌÌ_È_ËÂÌÚ_83);}.cls-64{fill:url(#_ÂÁ_Ï_ÌÌ_È_ËÂÌÚ_95);}.cls-65{fill:url(#_ÂÁ_Ï_ÌÌ_È_ËÂÌÚ_97);}.cls-114{isolation:isolate;}.cls-66{fill:#36d1f7;}.cls-67{fill:url(#_ÂÁ_Ï_ÌÌ_È_ËÂÌÚ_73-2);}.cls-68{fill:#f3edfb;}.cls-69{fill:#5e3a2a;}.cls-70{fill:#4890a3;}.cls-71{fill:#5194e5;}.cls-72{fill:#282033;}.cls-73{fill:#4f31e0;}.cls-74{fill:#473da2;}.cls-75{fill:#953da2;}.cls-76{fill:#34c7ff;}.cls-77{fill:#d2726c;}.cls-78{fill:#cc765c;}.cls-79{fill:#e28183;}.cls-80{fill:#e0f3ff;}.cls-81{fill:#e0ffff;}.cls-82{fill:#d3aa98;}.cls-83{fill:#af7e66;}.cls-84{fill:#b28670;}.cls-85{fill:#9e6e52;}.cls-86{fill:#65bbce;}.cls-87{fill:#ff1d9c;}.cls-88{fill:#744ca2;}.cls-89{fill:#f2a48c;}.cls-90{fill:#f1f1f4;}.cls-91{fill:#fff;}.cls-92{fill:#ef9478;}.cls-93{fill:#ffebed;}.cls-94{fill:#e5e2ff;}.cls-95{fill:#ee8183;}.cls-96{fill:#ffc3ae;}.cls-97{fill:#ffbcaf;}.cls-98{fill:#efac97;}.cls-99{fill:#6877ff;}.cls-100{fill:url(#_ÂÁ_Ï_ÌÌ_È_ËÂÌÚ_25);}.cls-101{fill:url(#_ÂÁ_Ï_ÌÌ_È_ËÂÌÚ_29);}.cls-102{fill:url(#_ÂÁ_Ï_ÌÌ_È_ËÂÌÚ_28);}.cls-103{fill:url(#_ÂÁ_Ï_ÌÌ_È_ËÂÌÚ_71);}.cls-104{fill:url(#_ÂÁ_Ï_ÌÌ_È_ËÂÌÚ_14);}.cls-105{fill:url(#_ÂÁ_Ï_ÌÌ_È_ËÂÌÚ_64);}.cls-106{fill:url(#_ÂÁ_Ï_ÌÌ_È_ËÂÌÚ_65);}.cls-107{fill:url(#_ÂÁ_Ï_ÌÌ_È_ËÂÌÚ_115);opacity:.81;}.cls-108{fill:url(#_ÂÁ_Ï_ÌÌ_È_ËÂÌÚ_85-2);}.cls-109{fill:url(#_ÂÁ_Ï_ÌÌ_È_ËÂÌÚ_85-4);}.cls-110{fill:url(#_ÂÁ_Ï_ÌÌ_È_ËÂÌÚ_85-3);}.cls-111{fill:url(#_ÂÁ_Ï_ÌÌ_È_ËÂÌÚ_70);}</style><clipPath id="clippath"><rect class="cls-15" width="600" height="400"/></clipPath><linearGradient id="_ÂÁ_Ï_ÌÌ_È_ËÂÌÚ_29" x1="139.84" y1="275.2" x2="139.84" y2="204.01" gradientTransform="translate(-75.05 53.74) rotate(-25.04)" gradientUnits="userSpaceOnUse"><stop offset="0" stop-color="#dbccff"/><stop offset="1" stop-color="#d1bbff"/></linearGradient><linearGradient id="_ÂÁ_Ï_ÌÌ_È_ËÂÌÚ_28" x1="139.83" y1="277.98" x2="139.83" y2="206.79" gradientTransform="translate(-75.05 53.74) rotate(-25.04)" gradientUnits="userSpaceOnUse"><stop offset="0" stop-color="#b5a6e7"/><stop offset="1" stop-color="#7760bf"/></linearGradient><linearGradient id="_ÂÁ_Ï_ÌÌ_È_ËÂÌÚ_28-2" x1="139.83" y1="260.28" x2="139.83" y2="230.27" xlink:href="#_ÂÁ_Ï_ÌÌ_È_ËÂÌÚ_28"/><linearGradient id="_ÂÁ_Ï_ÌÌ_È_ËÂÌÚ_27" x1="135.57" y1="230.87" x2="144.09" y2="230.87" gradientTransform="translate(-75.05 53.74) rotate(-25.04)" gradientUnits="userSpaceOnUse"><stop offset="0" stop-color="#8b8be0"/><stop offset="1" stop-color="#a177b7"/></linearGradient><linearGradient id="_ÂÁ_Ï_ÌÌ_È_ËÂÌÚ_94" x1="139.83" y1="232.85" x2="139.83" y2="227.69" gradientTransform="translate(-75.05 53.74) rotate(-25.04)" gradientUnits="userSpaceOnUse"><stop offset="0" stop-color="#fff"/><stop offset="1" stop-color="#a177b7"/></linearGradient><linearGradient id="_ÂÁ_Ï_ÌÌ_È_ËÂÌÚ_95" x1="144.34" y1="263.34" x2="144.34" y2="230.26" gradientTransform="translate(-75.05 53.74) rotate(-25.04)" gradientUnits="userSpaceOnUse"><stop offset="0" stop-color="#000"/><stop offset="1" stop-color="#fff"/></linearGradient><radialGradient id="_ÂÁ_Ï_ÌÌ_È_ËÂÌÚ_83" cx="232.5" cy="368.65" fx="232.5" fy="368.65" r="27.03" gradientTransform="translate(868.53 213.73) rotate(90) scale(.66 1.71)" gradientUnits="userSpaceOnUse"><stop offset="0" stop-color="#4b474b"/><stop offset="1" stop-color="#000"/></radialGradient><radialGradient id="_ÂÁ_Ï_ÌÌ_È_ËÂÌÚ_83-2" cx="351.33" cy="352.81" fx="351.33" fy="352.81" r="27.03" gradientTransform="translate(87.07 -237.04) scale(.66 1.71) skewX(-.01)" xlink:href="#_ÂÁ_Ï_ÌÌ_È_ËÂÌÚ_83"/><linearGradient id="_ÂÁ_Ï_ÌÌ_È_ËÂÌÚ_70" x1="277.16" y1="400" x2="277.16" y2="310.79" gradientUnits="userSpaceOnUse"><stop offset="0" stop-color="#ccf"/><stop offset="1" stop-color="#755cbb"/></linearGradient><linearGradient id="_ÂÁ_Ï_ÌÌ_È_ËÂÌÚ_70-2" x1="287.55" y1="355.4" x2="287.55" y2="331.06" xlink:href="#_ÂÁ_Ï_ÌÌ_È_ËÂÌÚ_70"/><linearGradient id="_ÂÁ_Ï_ÌÌ_È_ËÂÌÚ_70-3" x1="259.36" y1="346.45" x2="259.36" y2="322.61" xlink:href="#_ÂÁ_Ï_ÌÌ_È_ËÂÌÚ_70"/><linearGradient id="_ÂÁ_Ï_ÌÌ_È_ËÂÌÚ_70-4" x1="265.21" y1="158.61" x2="301.87" y2="158.61" xlink:href="#_ÂÁ_Ï_ÌÌ_È_ËÂÌÚ_70"/><linearGradient id="_ÂÁ_Ï_ÌÌ_È_ËÂÌÚ_70-5" x1="198.59" y1="206.92" x2="242.29" y2="206.92" xlink:href="#_ÂÁ_Ï_ÌÌ_È_ËÂÌÚ_70"/><linearGradient id="_ÂÁ_Ï_ÌÌ_È_ËÂÌÚ_71" x1="178.92" y1="161.82" x2="178.92" y2="139.69" gradientUnits="userSpaceOnUse"><stop offset=".02" stop-color="#ffc2a9"/><stop offset="1" stop-color="#ff9595"/></linearGradient><linearGradient id="_ÂÁ_Ï_ÌÌ_È_ËÂÌÚ_48" x1="192.86" y1="161.29" x2="192.86" y2="124.67" gradientUnits="userSpaceOnUse"><stop offset="0" stop-color="#ffeadb"/><stop offset=".99" stop-color="#c27cb6"/></linearGradient><linearGradient id="_ÂÁ_Ï_ÌÌ_È_ËÂÌÚ_71-2" x1="191.67" y1="186.21" x2="191.67" y2="129.75" xlink:href="#_ÂÁ_Ï_ÌÌ_È_ËÂÌÚ_71"/><linearGradient id="_ÂÁ_Ï_ÌÌ_È_ËÂÌÚ_73" x1="181.57" y1="177.4" x2="199.32" y2="177.4" gradientUnits="userSpaceOnUse"><stop offset=".02" stop-color="#d1a1d6"/><stop offset=".99" stop-color="#bd89c4"/></linearGradient><linearGradient id="_ÂÁ_Ï_ÌÌ_È_ËÂÌÚ_71-3" x1="399" y1="220.6" x2="399" y2="145.1" xlink:href="#_ÂÁ_Ï_ÌÌ_È_ËÂÌÚ_71"/><linearGradient id="_ÂÁ_Ï_ÌÌ_È_ËÂÌÚ_48-2" x1="407.92" y1="196.41" x2="407.92" y2="158.9" xlink:href="#_ÂÁ_Ï_ÌÌ_È_ËÂÌÚ_48"/><linearGradient id="_ÂÁ_Ï_ÌÌ_È_ËÂÌÚ_64" x1="415.32" y1="183.46" x2="415.32" y2="166.65" gradientUnits="userSpaceOnUse"><stop offset="0" stop-color="#ffb0b0"/><stop offset=".98" stop-color="#ffc2a9"/></linearGradient><linearGradient id="_ÂÁ_Ï_ÌÌ_È_ËÂÌÚ_64-2" x1="425.07" y1="186.05" x2="425.07" y2="176.83" xlink:href="#_ÂÁ_Ï_ÌÌ_È_ËÂÌÚ_64"/><linearGradient id="_ÂÁ_Ï_ÌÌ_È_ËÂÌÚ_73-2" x1="385.63" y1="204.43" x2="402.78" y2="204.43" xlink:href="#_ÂÁ_Ï_ÌÌ_È_ËÂÌÚ_73"/><linearGradient id="_ÂÁ_Ï_ÌÌ_È_ËÂÌÚ_70-6" x1="361.76" y1="263.62" x2="361.76" y2="179.11" xlink:href="#_ÂÁ_Ï_ÌÌ_È_ËÂÌÚ_70"/><linearGradient id="_ÂÁ_Ï_ÌÌ_È_ËÂÌÚ_70-7" x1="175.69" y1="246.59" x2="317.04" y2="246.59" xlink:href="#_ÂÁ_Ï_ÌÌ_È_ËÂÌÚ_70"/><linearGradient id="_ÂÁ_Ï_ÌÌ_È_ËÂÌÚ_4" x1="300.31" y1="222.94" x2="327.32" y2="222.94" gradientUnits="userSpaceOnUse"><stop offset="0" stop-color="#ccedff"/><stop offset="1" stop-color="#755cbb"/></linearGradient><linearGradient id="_ÂÁ_Ï_ÌÌ_È_ËÂÌÚ_4-2" x1="275.8" y1="270.36" x2="315.51" y2="270.36" xlink:href="#_ÂÁ_Ï_ÌÌ_È_ËÂÌÚ_4"/><linearGradient id="_ÂÁ_Ï_ÌÌ_È_ËÂÌÚ_4-3" x1="277.64" y1="288.31" x2="320.06" y2="288.31" xlink:href="#_ÂÁ_Ï_ÌÌ_È_ËÂÌÚ_4"/><linearGradient id="_ÂÁ_Ï_ÌÌ_È_ËÂÌÚ_4-4" x1="241.13" y1="243.86" x2="241.13" y2="196.25" xlink:href="#_ÂÁ_Ï_ÌÌ_È_ËÂÌÚ_4"/><linearGradient id="_ÂÁ_Ï_ÌÌ_È_ËÂÌÚ_4-5" x1="244.96" y1="247.86" x2="244.96" y2="211.77" xlink:href="#_ÂÁ_Ï_ÌÌ_È_ËÂÌÚ_4"/><linearGradient id="_ÂÁ_Ï_ÌÌ_È_ËÂÌÚ_4-6" x1="187.93" y1="201.73" x2="187.93" y2="174.46" xlink:href="#_ÂÁ_Ï_ÌÌ_È_ËÂÌÚ_4"/><linearGradient id="_ÂÁ_Ï_ÌÌ_È_ËÂÌÚ_4-7" x1="209.99" y1="177.72" x2="220.98" y2="177.72" xlink:href="#_ÂÁ_Ï_ÌÌ_È_ËÂÌÚ_4"/><linearGradient id="_ÂÁ_Ï_ÌÌ_È_ËÂÌÚ_70-8" x1="329.45" y1="243.86" x2="329.45" y2="193.32" xlink:href="#_ÂÁ_Ï_ÌÌ_È_ËÂÌÚ_70"/><linearGradient id="_ÂÁ_Ï_ÌÌ_È_ËÂÌÚ_70-9" x1="386.27" y1="232.99" x2="386.27" y2="206.58" xlink:href="#_ÂÁ_Ï_ÌÌ_È_ËÂÌÚ_70"/><linearGradient id="_ÂÁ_Ï_ÌÌ_È_ËÂÌÚ_70-10" x1="356.32" y1="231.81" x2="356.32" y2="211.62" xlink:href="#_ÂÁ_Ï_ÌÌ_È_ËÂÌÚ_70"/><linearGradient id="_ÂÁ_Ï_ÌÌ_È_ËÂÌÚ_4-8" x1="182.22" y1="203.47" x2="182.22" y2="195.97" xlink:href="#_ÂÁ_Ï_ÌÌ_È_ËÂÌÚ_4"/><linearGradient id="_ÂÁ_Ï_ÌÌ_È_ËÂÌÚ_70-11" x1="202.25" y1="226.33" x2="202.25" y2="185.35" xlink:href="#_ÂÁ_Ï_ÌÌ_È_ËÂÌÚ_70"/><linearGradient id="_ÂÁ_Ï_ÌÌ_È_ËÂÌÚ_4-9" x1="307.67" y1="197.48" x2="307.67" y2="166.65" xlink:href="#_ÂÁ_Ï_ÌÌ_È_ËÂÌÚ_4"/><linearGradient id="_ÂÁ_Ï_ÌÌ_È_ËÂÌÚ_4-10" x1="267.27" y1="193.32" x2="267.27" y2="150.76" xlink:href="#_ÂÁ_Ï_ÌÌ_È_ËÂÌÚ_4"/><linearGradient id="_ÂÁ_Ï_ÌÌ_È_ËÂÌÚ_70-12" x1="259.03" y1="160.08" x2="305.29" y2="160.08" xlink:href="#_ÂÁ_Ï_ÌÌ_È_ËÂÌÚ_70"/><linearGradient id="_ÂÁ_Ï_ÌÌ_È_ËÂÌÚ_70-13" x1="377.95" y1="229.98" x2="377.95" y2="203.21" xlink:href="#_ÂÁ_Ï_ÌÌ_È_ËÂÌÚ_70"/><linearGradient id="_ÂÁ_Ï_ÌÌ_È_ËÂÌÚ_70-14" x1="340.11" y1="260.18" x2="340.11" y2="179.11" xlink:href="#_ÂÁ_Ï_ÌÌ_È_ËÂÌÚ_70"/><linearGradient id="_ÂÁ_Ï_ÌÌ_È_ËÂÌÚ_70-15" x1="252.95" y1="298.26" x2="252.95" y2="275.02" xlink:href="#_ÂÁ_Ï_ÌÌ_È_ËÂÌÚ_70"/><linearGradient id="_ÂÁ_Ï_ÌÌ_È_ËÂÌÚ_70-16" x1="298.09" y1="291.88" x2="298.09" y2="280.59" xlink:href="#_ÂÁ_Ï_ÌÌ_È_ËÂÌÚ_70"/><linearGradient id="_ÂÁ_Ï_ÌÌ_È_ËÂÌÚ_48-3" x1="299.71" y1="120.46" x2="299.71" y2="70.73" xlink:href="#_ÂÁ_Ï_ÌÌ_È_ËÂÌÚ_48"/><linearGradient id="_ÂÁ_Ï_ÌÌ_È_ËÂÌÚ_48-4" x1="317.76" y1="108.11" x2="317.76" y2="88.82" xlink:href="#_ÂÁ_Ï_ÌÌ_È_ËÂÌÚ_48"/><linearGradient id="_ÂÁ_Ï_ÌÌ_È_ËÂÌÚ_35" x1="323.23" y1="88.82" x2="323.23" y2="67.22" gradientUnits="userSpaceOnUse"><stop offset="0" stop-color="#ffeadb"/><stop offset=".99" stop-color="#8860c7"/></linearGradient><linearGradient id="_ÂÁ_Ï_ÌÌ_È_ËÂÌÚ_52" x1="293.79" y1="147.78" x2="293.79" y2="54.15" gradientUnits="userSpaceOnUse"><stop offset="0" stop-color="#ccc2db"/><stop offset=".99" stop-color="#8860c7"/></linearGradient><linearGradient id="_ÂÁ_Ï_ÌÌ_È_ËÂÌÚ_397" x1="300.07" y1="147.76" x2="300.07" y2="143.74" gradientUnits="userSpaceOnUse"><stop offset="0" stop-color="#776d7e"/><stop offset="1" stop-color="#9d68c2"/></linearGradient><linearGradient id="_ÂÁ_Ï_ÌÌ_È_ËÂÌÚ_48-5" x1="272.13" y1="110.26" x2="261.93" y2="97.77" xlink:href="#_ÂÁ_Ï_ÌÌ_È_ËÂÌÚ_48"/><linearGradient id="_ÂÁ_Ï_ÌÌ_È_ËÂÌÚ_48-6" x1="273.2" y1="108.65" x2="268.18" y2="102.51" xlink:href="#_ÂÁ_Ï_ÌÌ_È_ËÂÌÚ_48"/><linearGradient id="_ÂÁ_Ï_ÌÌ_È_ËÂÌÚ_89" x1="351.8" y1="132.95" x2="528.85" y2="132.95" gradientUnits="userSpaceOnUse"><stop offset="0" stop-color="#9d68c2"/><stop offset="1" stop-color="#aec2ff"/></linearGradient><linearGradient id="_ÂÁ_Ï_ÌÌ_È_ËÂÌÚ_85" x1="387.81" y1="199.82" x2="387.81" y2="146.42" gradientUnits="userSpaceOnUse"><stop offset="0" stop-color="#ccedff"/><stop offset="1" stop-color="#9d68c2"/></linearGradient><linearGradient id="_ÂÁ_Ï_ÌÌ_È_ËÂÌÚ_85-2" x1="478.87" y1="173.78" x2="478.87" y2="150.26" xlink:href="#_ÂÁ_Ï_ÌÌ_È_ËÂÌÚ_85"/><linearGradient id="_ÂÁ_Ï_ÌÌ_È_ËÂÌÚ_85-3" x1="506.63" y1="173.78" x2="506.63" y2="150.26" xlink:href="#_ÂÁ_Ï_ÌÌ_È_ËÂÌÚ_85"/><linearGradient id="_ÂÁ_Ï_ÌÌ_È_ËÂÌÚ_85-4" x1="450.66" y1="173.78" x2="450.66" y2="150.26" xlink:href="#_ÂÁ_Ï_ÌÌ_È_ËÂÌÚ_85"/><linearGradient id="_ÂÁ_Ï_ÌÌ_È_ËÂÌÚ_65" x1="197.67" y1="115.99" x2="197.67" y2="91.37" gradientUnits="userSpaceOnUse"><stop offset="0" stop-color="#d93de3"/><stop offset="1" stop-color="#ff6dba"/></linearGradient><linearGradient id="_ÂÁ_Ï_ÌÌ_È_ËÂÌÚ_14" x1="212.72" y1="115.99" x2="212.72" y2="91.37" gradientUnits="userSpaceOnUse"><stop offset="0" stop-color="#a242ea"/><stop offset="1" stop-color="#fe117e"/></linearGradient><linearGradient id="_ÂÁ_Ï_ÌÌ_È_ËÂÌÚ_115" x1="193.4" y1="375.37" x2="206.71" y2="269.36" gradientUnits="userSpaceOnUse"><stop offset="0" stop-color="#067eff"/><stop offset="1" stop-color="#3e37a0"/></linearGradient><linearGradient id="_ÂÁ_Ï_ÌÌ_È_ËÂÌÚ_302" x1="504.25" y1="113.31" x2="504.25" y2="104.37" gradientUnits="userSpaceOnUse"><stop offset="0" stop-color="#459fff"/><stop offset="1" stop-color="#a96dff"/></linearGradient><linearGradient id="_ÂÁ_Ï_ÌÌ_È_ËÂÌÚ_302-2" x1="84.26" y1="218.04" x2="84.26" y2="206.92" xlink:href="#_ÂÁ_Ï_ÌÌ_È_ËÂÌÚ_302"/><linearGradient id="_ÂÁ_Ï_ÌÌ_È_ËÂÌÚ_322" x1="517.37" y1="113.31" x2="517.37" y2="104.37" gradientUnits="userSpaceOnUse"><stop offset="0" stop-color="#b31a8f"/><stop offset="1" stop-color="#fe117e"/></linearGradient><linearGradient id="_ÂÁ_Ï_ÌÌ_È_ËÂÌÚ_322-2" x1="229.2" y1="142.73" x2="229.2" y2="136.41" xlink:href="#_ÂÁ_Ï_ÌÌ_È_ËÂÌÚ_322"/><linearGradient id="_ÂÁ_Ï_ÌÌ_È_ËÂÌÚ_25" x1="440.86" y1="282.16" x2="440.86" y2="275.84" gradientUnits="userSpaceOnUse"><stop offset="0" stop-color="#8642a0"/><stop offset="1" stop-color="#6456c0"/></linearGradient><linearGradient id="_ÂÁ_Ï_ÌÌ_È_ËÂÌÚ_25-2" x1="112.34" y1="313.33" x2="112.34" y2="307.68" xlink:href="#_ÂÁ_Ï_ÌÌ_È_ËÂÌÚ_25"/><linearGradient id="_ÂÁ_Ï_ÌÌ_È_ËÂÌÚ_97" x1="136.04" y1="282.77" x2="136.04" y2="236.11" gradientUnits="userSpaceOnUse"><stop offset="0" stop-color="#d906e3"/><stop offset="1" stop-color="#ff6df9"/></linearGradient><linearGradient id="_ÂÁ_Ï_ÌÌ_È_ËÂÌÚ_97-2" x1="458.23" y1="348.82" x2="458.23" y2="290.45" xlink:href="#_ÂÁ_Ï_ÌÌ_È_ËÂÌÚ_97"/><linearGradient id="_ÂÁ_Ï_ÌÌ_È_ËÂÌÚ_206" x1="404.32" y1="275.2" x2="399.35" y2="232.51" gradientTransform="translate(63.63 -54.68) rotate(15.07)" gradientUnits="userSpaceOnUse"><stop offset="0" stop-color="#1852a0"/><stop offset="1" stop-color="#067ed3"/></linearGradient><linearGradient id="_ÂÁ_Ï_ÌÌ_È_ËÂÌÚ_206-2" x1="399.5" y1="275.37" x2="399.5" y2="231.62" xlink:href="#_ÂÁ_Ï_ÌÌ_È_ËÂÌÚ_206"/><linearGradient id="_ÂÁ_Ï_ÌÌ_È_ËÂÌÚ_107" x1="361.94" y1="289.27" x2="358.72" y2="261.66" gradientTransform="translate(181.34 -235.91) rotate(19.3) scale(1 1.57)" gradientUnits="userSpaceOnUse"><stop offset="0" stop-color="#188dc1"/><stop offset="1" stop-color="#06bfe7"/></linearGradient><linearGradient id="_ÂÁ_Ï_ÌÌ_È_ËÂÌÚ_107-2" x1="412.35" y1="88.1" x2="423.68" y2="46.01" gradientTransform="matrix(1,0,0,1,0,0)" xlink:href="#_ÂÁ_Ï_ÌÌ_È_ËÂÌÚ_107"/><linearGradient id="_ÂÁ_Ï_ÌÌ_È_ËÂÌÚ_206-3" x1="392.87" y1="83.24" x2="401.32" y2="51.86" gradientTransform="matrix(1,0,0,1,0,0)" xlink:href="#_ÂÁ_Ï_ÌÌ_È_ËÂÌÚ_206"/><linearGradient id="_ÂÁ_Ï_ÌÌ_È_ËÂÌÚ_107-3" x1="121.92" y1="160.57" x2="129.65" y2="131.88" gradientTransform="translate(206.66) rotate(-180) scale(1 -1)" xlink:href="#_ÂÁ_Ï_ÌÌ_È_ËÂÌÚ_107"/><linearGradient id="_ÂÁ_Ï_ÌÌ_È_ËÂÌÚ_206-4" x1="108.65" y1="157.26" x2="114.41" y2="135.87" gradientTransform="translate(206.66) rotate(-180) scale(1 -1)" xlink:href="#_ÂÁ_Ï_ÌÌ_È_ËÂÌÚ_206"/></defs><g class="cls-114"><g id="illustration"><g class="cls-113"><rect class="cls-91" width="600" height="400"/><path class="cls-90" d="m148.21,196.1c0-.25.13-.36.35-.36l6.71.2c.66.02,1.23.12,1.69.3.46.18.83.43,1.11.75.28.32.47.69.59,1.14s.17.93.15,1.47l-.06,1.84c-.02.54-.1,1.03-.24,1.46-.14.43-.36.8-.66,1.1-.3.3-.68.52-1.15.68-.47.15-1.04.22-1.7.2l-3.61-.11-.75-2.11h-.1s-.06,2.08-.06,2.08l-2.53-.08.26-8.57Zm2.34,6.33l4.29.13c.48.01.83-.08,1.04-.29.21-.21.32-.58.34-1.12l.05-1.5c.02-.56-.07-.94-.27-1.15-.2-.21-.54-.32-1.02-.33l-4.1-.12c-.06,0-.1.02-.14.05-.03.04-.05.08-.05.13l-.13,4.2Z"/><path class="cls-90" d="m162.45,199.93h-.09s-.08,2.68-.08,2.68c0,.11.05.17.17.18l7.54.23-.07,2.32-9.89-.3c-.24,0-.35-.13-.35-.38l.25-8.21c0-.25.13-.36.37-.36l9.61.29c.25,0,.37.13.36.38l-.07,2.32-2.37.8h-.1s.04-1.19.04-1.19c0-.09-.04-.14-.12-.14l-5.07-.15c-.07,0-.11.02-.13.05-.02.04-.03.08-.03.12l-.03,1.12,4.18.13-.06,1.82-3.5-.11-.54-1.59Z"/><path class="cls-90" d="m179.21,199.77h-.1s.03-.99.03-.99c0-.1-.04-.15-.14-.15l-4.72-.14c-.17,0-.29.03-.36.1-.07.07-.1.18-.11.32v.22c-.01.17.01.28.07.33.06.05.17.09.33.12l5.53.94c.35.06.65.15.89.25.24.11.44.25.59.42.15.17.25.38.31.63.06.25.08.54.07.88l-.02.71c-.01.37-.07.69-.17.97-.1.28-.25.51-.46.7-.21.19-.49.32-.82.41-.34.09-.75.12-1.24.11l-7.96-.24.07-2.32,7.14.22c.21,0,.36-.03.43-.1.07-.08.11-.21.12-.41v-.25c.01-.16-.01-.27-.06-.33-.05-.06-.15-.11-.31-.13l-5.34-.84c-.36-.06-.67-.14-.92-.25-.25-.11-.46-.24-.62-.41-.16-.17-.27-.37-.34-.61-.07-.24-.09-.52-.08-.85l.02-.63c.02-.65.21-1.14.56-1.49.36-.35.93-.51,1.74-.48l7.95.24c.25,0,.38.14.37.4l-.06,1.84-2.37.79Z"/><path class="cls-90" d="m182.57,205.72l.27-8.94,2.53.08-.27,8.94-2.53-.08Z"/><path class="cls-90" d="m194.49,202.25c0-.13,0-.27,0-.41,0-.14-.02-.27-.03-.38v-.11s2.51.08,2.51.08l-.13,4.39c0,.23-.11.34-.32.34l-6.73-.2c-.66-.02-1.23-.12-1.69-.3-.46-.18-.83-.43-1.11-.75-.28-.32-.48-.69-.59-1.14-.12-.44-.17-.93-.15-1.47l.06-1.84c.02-.54.1-1.03.24-1.46.14-.43.36-.8.66-1.1.3-.3.68-.52,1.15-.68.47-.15,1.04-.22,1.7-.2l6.69.2c.24,0,.35.13.35.38l-.06,1.93-2.37.79h-.1s.03-.86.03-.86c0-.08-.03-.12-.11-.13l-4.27-.13c-.25,0-.45,0-.62.05-.17.04-.31.11-.42.22-.11.11-.19.25-.25.44-.05.18-.09.41-.1.68l-.05,1.57c-.02.54.07.92.27,1.14.2.22.54.34,1.02.35l4.24.13c.09,0,.14-.04.14-.14l.04-1.36Z"/><path class="cls-90" d="m202.31,197.37c.19,0,.32.04.4.1.08.06.14.15.21.28l3.2,6.53c.05.1.13.15.23.15h.13c.13,0,.2-.05.2-.19l.2-6.73,2.3.07-.26,8.59c0,.24-.12.35-.35.34l-3.64-.11c-.17,0-.3-.03-.38-.09-.08-.05-.16-.15-.23-.29l-3.32-6.52c-.05-.1-.12-.15-.23-.15h-.12c-.13,0-.2.06-.2.19l-.2,6.72-2.3-.07.26-8.58c0-.25.12-.36.35-.36l3.76.11Z"/><circle class="cls-80" cx="269.05" cy="195.53" r="155.02" transform="translate(-59.46 247.52) rotate(-45)"/><path class="cls-101" d="m155.1,185.61c-3.81-6.56-10.55-9.26-10.55-9.26l-2.35,1.1,5.29,9.6c-.71,3.69-3.24,5.72-3.24,5.72v-.02s-3.19.64-6.47-1.19l-3.97-10.22-2.35,1.1s-2.25,6.9.33,14.04c0,0,1,2.31,1.18,2.52.93,1.09,3.36,2.34,8.06,2.05l16.2,30.91c-1.35,2.32-1.58,5.23-.36,7.83,1.98,4.24,7.02,6.07,11.26,4.09,4.24-1.98,6.07-7.02,4.09-11.26-1.22-2.61-3.6-4.3-6.24-4.75l-13.31-32.25c3.17-3.34,3.84-5.97,3.6-7.49-.05-.32-1.18-2.52-1.18-2.52Zm13.33,53.31l-4.29,2.01-3.88-2.71.41-4.72,4.29-2.01,3.88,2.71-.41,4.72Z"/><path class="cls-102" d="m156.27,188.13c-3.81-6.56-10.55-9.26-10.55-9.26l-2.35,1.1,5.29,9.6c-.71,3.69-3.24,5.72-3.24,5.72v-.02s-3.19.64-6.47-1.19l-3.97-10.22-2.35,1.1s-2.25,6.9.33,14.04c0,0,3.66,4.91,9.23,4.57l16.2,30.91c-1.35,2.32-1.58,5.23-.36,7.83,1.98,4.24,7.02,6.07,11.26,4.09,4.24-1.98,6.07-7.02,4.09-11.26-1.22-2.61-3.6-4.3-6.24-4.75l-13.31-32.25c3.84-4.05,2.42-10.01,2.42-10.01Zm13.33,53.31l-4.29,2.01-3.88-2.71.41-4.72,4.29-2.01,3.88,2.71-.41,4.72Z"/><rect class="cls-94" x="131.92" y="181.76" width="2.59" height="2.78" transform="translate(-65 73.61) rotate(-25.04)"/><rect class="cls-94" x="142.66" y="176.76" width="2.59" height="2.78" transform="translate(-61.88 77.69) rotate(-25.04)"/><rect class="cls-94" x="164.5" y="239.79" width="4.74" height="2.78" transform="translate(-86.4 93.31) rotate(-25.04)"/><path class="cls-36" d="m145.66,205.86l13.09,25.15c3.44.16,5.28-2.47,5.28-2.47l-10.65-26.29c-4.78-.18-7.72,3.61-7.72,3.61Zm17.36,22.89c-.38.33-.96.77-1.69,1.11-.58.27-1.19.45-1.81.54l-13.11-24.63c.64-.57,1.74-1.41,3.15-2.07,1.06-.49,2.14-.81,3.24-.96l10.22,26.01Z"/><path class="cls-94" d="m163.02,228.75l1.01-.21s-1.5,2.66-5.28,2.47l.77-.61s1.86-.22,3.5-1.65Z"/><path class="cls-14" d="m145.66,205.86l.75-.1s2.24-2.32,6.39-3.02l.57-.48s-1.67-.29-4.27.92c-2.6,1.21-3.45,2.68-3.45,2.68Z"/><path class="cls-13" d="m142.19,203.56s6.29-1.12,11.66-5.43l1.7,4.12s-1.93-1.91-6.17-.18c-4.95,2.02-4.68,6-4.68,6l-2.51-4.52Z"/><path class="cls-64" d="m155.55,202.26c-1.21-.87-2.59-.89-2.59-.89l12.67,30.6,1.53-1.58-11.6-28.12Z"/><path class="cls-91" d="m155.55,202.26s-1.33,4.09,2.49,6.03l-2.49-6.03Z"/><path class="cls-72" d="m346.23,400h-47c-4.92-27.32-16.36-62.87-16.36-62.87-2.78-1.65-8.21.38-8.21.38l-17.18,62.49h-42.94c-2.28-38.56,18.82-82.33,18.82-82.33h0c-.07-.16-.74-1.5-.56-2.4.07-.39.79-1.13,1.6-1.86,1.16-1.06,2.54-2.12,2.54-2.12l80.11-.5s.81.41,1.84,1.03h.01c1.75,1.06,4.12,2.7,4.12,3.9,0,1.65-.65,2.72-.81,2.96l-.04.05c17.18,32.42,24.07,81.27,24.07,81.27Z"/><ellipse class="cls-63" cx="236.86" cy="367.92" rx="46.31" ry="17.92" transform="translate(-174.89 516) rotate(-77.01)"/><ellipse class="cls-29" cx="320.06" cy="367.47" rx="17.92" ry="46.31" transform="translate(-87.28 99.99) rotate(-15.65)"/><path class="cls-111" d="m323.01,315.72c0,1.65-.65,2.72-.81,2.96l-.04.05c-16.68,3.77-29.37,19.34-29.37,19.34,9.09,17.44,24.25,61.93,24.25,61.93h-17.81c-4.92-27.32-16.36-62.87-16.36-62.87-2.78-1.65-8.21.38-8.21.38l-17.18,62.49h-11.12c3.98-26.18,15.73-58.14,15.73-58.14-11.55-13.45-28.73-24.19-28.73-24.19h0s-2.04-1.29-2.04-1.29l1.48-1.11c7.43,7.13,31.39,16.44,32.13,16.73l-30.53-18.59c1.16-1.06,2.54-2.12,2.54-2.12l80.11-.5s.81.41,1.84,1.03l-21.88,12.04,26.01-8.14Z"/><polygon class="cls-31" points="282.87 337.13 292.22 331.06 290 337.13 288.37 355.4 282.87 337.13"/><polygon class="cls-33" points="274.66 337.51 264.92 332 244.07 322.61 270.62 340.16 272.2 346.45 274.66 337.51"/><path class="cls-96" d="m301.46,149.65c.06.43.11.66.11.66-.49,2.04-1.05,3.93-1.66,5.66-1.96,5.63-4.4,9.63-6.23,12.12-1.59,2.15-2.72,3.18-2.72,3.18-14.59-4.58-21.78-18.85-24.54-25.95-.02-.03-.03-.07-.04-.11-.53-1.34-.88-2.42-1.1-3.12h0c-.17-.57-.25-.88-.25-.88.06-.12.12-.25.18-.37l.03-.05c.24-.5.48-1.01.7-1.5,1.91-4.18,3.18-8.09,4-11.17.71-2.62,1.09-4.64,1.27-5.71.09-.55.13-.85.13-.85l6.8,3.59,23.43,12.4c-.35,2.15-.49,4.17-.5,5.94-.02,1.25.02,2.37.09,3.32.07,1.16.19,2.08.28,2.68h0c0,.07.01.11.02.16Z"/><path class="cls-68" d="m294.96,172.84c-1.35,1.34-2.94,2.54-4.84,3.54-.04.03-.08.05-.12.07,0,0-.05-.03-.14-.08h0c-.51-.32-2.25-1.39-4.59-3.15-6.12-4.61-16.34-13.93-19.26-26.49-.01-.02-.01-.03-.02-.05-.34-1.49-.58-3.01-.7-4.59h0c-.03-.42-.06-.83-.07-1.25,0,0,2.03,4.77,5.55,9.92,4.14,6.06,10.35,12.67,17.77,12.71,6.42.04,9.71-4.35,11.38-8.4.71-1.72,1.13-3.37,1.35-4.6.01-.01.01-.02.01-.02.07-.36.12-.68.17-.95h0c.02-.15.04-.27.05-.38.06-.45.08-.71.08-.71,0,0,2.46,15.36-6.61,24.43Z"/><path class="cls-48" d="m294.96,172.84c-1.35,1.34-2.94,2.54-4.84,3.54h-.26s0-.02,0-.02c-.51-.31-2.25-1.38-4.59-3.14-6.12-4.61-16.34-13.93-19.26-26.49-.01-.02-.01-.03-.02-.05-.34-1.49-.58-3.01-.7-4.59h0c-.03-.42-.06-.83-.07-1.25,0,0,2.03,4.77,5.55,9.92,0,0,4.04,11.1,12.78,16.6,4.38,2.75,7.7,2.35,10.14.73,2.44-1.61,4.02-4.42,4.95-6.54.93-2.13,1.23-4.12,1.28-5.58.01-.33.01-.63,0-.9.71-1.72,1.13-3.37,1.35-4.6.01-.01.01-.02.01-.02.07-.36.12-.68.17-.95h0c.02-.15.04-.27.05-.38.06-.45.08-.71.08-.71,0,0,2.46,15.36-6.61,24.43Z"/><path class="cls-71" d="m351.12,263.53c-.11.05-.16.08-.16.08-.82.1-3.37-.46-6.71-3.35h-.01s-.01-.03-.03-.04c0-.01-.02-.03-.04-.04-2.8-2.45-6.16-6.54-9.51-13.24-6.7-13.39-8.62-22.33-8.93-23.89l-.04-.24-3.91,6.2c-2.65,7.97-7.67,40.95-7.58,42.37s4.45,8.34,4.36,9.19c0,0,0,.01-.01.02-.12.86-2.08,2.75-2.64,4.81-.38,1.37,2.28,5.69,4.15,8.92h0c.97,1.69,1.72,3.07,1.72,3.59,0,1.51-4.74,8.9-4.74,8.9v3.98l-.07.07-.22.2-.18.15c-1.8,1.42-9.43,6.07-33.27,7.35-28.25,1.51-47.07-7.58-47.07-7.58l1.42-3.89s-1.32-1.13-1.42-1.7c-.09-.57,1.04-1.9,1.04-1.9,0,0-2.84-1.51-2.84-3.41s5.69-7.76,5.5-12.79c-.19-5.02-4.55-9.47-5.12-12.31s7.39-9.85,7.39-9.85c-6.82-21.6-8.15-50.59-8.15-50.59l-1.32-1.52s-8.15,18.57-15.54,27.66c-.88,1.08-1.81,2.15-2.77,3.18-2.06,2.23-4.25,4.32-6.36,6.15-5.12,4.46-9.77,7.39-10.95,7.16-1.9-.38-9.48-15.35-9.13-30.7.16-7.3,4.56-15.47,9.13-22.02.49-.7.98-1.39,1.48-2.06,3.24-4.41,6.35-7.87,7.84-9.45.58-.62.91-.95.91-.95,0,0-1.04-3.35-1.75-6.26-.01-.07-.03-.14-.05-.21,0-.03-.01-.07-.02-.1-.01-.05-.02-.07-.02-.07-.42-1.79-.68-3.34-.44-3.72.63-1.01,4.3-2.15,4.93-2.9.63-.76,3.28-13.52,5.3-14.91,1.94-1.33,5.35-2.3,16.72-6.77.56-.22,1.13-.44,1.73-.68,12.75-5.05,25.26-11.18,25.26-11.18l4.8-5.9h2.14l-.7,1.5-.03.05c.34,1.52.73,2.98,1.17,4.37.01.04.02.08.04.11,6.6,20.82,23.58,27.53,23.58,27.53,11.8-8.71,11.57-22.54,11.57-22.54v-1.9l2.21.66,1.51,3.6s2.56,3.98,12.7,8.44c1.75.77,3.63,1.74,5.57,2.85,9.28,5.27,19.6,13.42,20.39,15.15.08.18.17.46.27.86h0c1.09,4.29,3.33,20.32,5.41,26.04,1.3,3.57,3.35,5.54,4.86,6.56t.02.01c1.12.77,1.94,1.01,1.94,1.01.16.88.31,1.75.45,2.61,4.35,27.42-3.92,46.03-5.78,47.33Z"/><path class="cls-50" d="m242.29,211.77l-8.24,2.77-1.32-1.52s-8.15,18.57-15.54,27.66c-.88,1.08-1.81,2.15-2.77,3.18-2.06,2.23-4.25,4.32-6.36,6.15l-6.28-27.07-3.19-20.55c3.24-4.41,6.35-7.87,7.84-9.45.58-.62.91-.95.91-.95,0,0-1.04-3.35-1.75-6.26-.01-.07-.03-.14-.05-.21,0-.03-.01-.07-.02-.1-.01-.05-.02-.07-.02-.07-.42-1.79-.68-3.34-.44-3.72.63-1.01,4.3-2.15,4.93-2.9.63-.76,3.28-13.52,5.3-14.91,0,0-1.32,12.25,5.69,27.79l3.41,4.8,9.98,8.02s3.79,5.03,7.92,7.34Z"/><path class="cls-71" d="m218.45,233.93c-1.77,13.13-21.34,23.24-21.34,23.24-4.36,0-9.23-7.58-13.65-16.93s-4.69-36.21-4.92-37.87c-.24-1.66-2.7-4.98-2.85-6.4-.14-1.42,3.98-4.36,3.98-4.36l-.03-.07-.03-.07c-.43-.92-2.85-6.11-2.68-7.06.19-1.04,4.82-3.31,4.82-3.31l.29,5.11s10.78-2.04,14.43-10.39l.64-2.56,1.8,1.2v10.99s.37,1.71.94,1.71,4.77-2.1,5.65-1.81c.89.29,1.76,6.17,2.94,6.92,1.17.76,4.3,2.94,4.77,3.98.21.47.23,2.16.25,4.15.03,2.44.05,5.32.41,6.94.67,2.93,6.35,13.45,4.58,26.59Z"/><path class="cls-71" d="m397.44,222.68c-.88,1.39-5.3,4.3-6.44,5.44-1.14,1.13,0,4.87,0,4.87-18.57,19.71-37.93,29.58-39.88,30.54-.11.05-.16.08-.16.08-11.66-7.84-10.66-20.75-6.79-31.63,3.7-10.44,10.04-19.01,10.32-19.38h.01s0-.01.01-.02c.21-.08,3.54-1.46,5.92-1.64.79-.06,1.51.25,2.19.68,1.42.88,2.62,2.27,3.78,1.69,1.71-.86,5.53-9.89,8.12-10.14,1.81-.17,4.32,1.67,5.99,2.72.73.46,1.3.77,1.58.69.95-.25,4.17-4.11,4.43-4.21.25-.11,1.72.97,1.72.97l-1.03,1.28c1.58,9.1,6.76,15.22,6.76,15.22l3.47-5.08s.89,6.53,0,7.92Z"/><path class="cls-89" d="m301.51,149.26c-.02.13-.04.26-.05.39-.05.27-.11.53-.19.8,0,0,0,.01-.01.02-1.19,4.41-6,8.92-12.07,6.75-6.63-2.37-19.25-29.1-19.25-29.1l1.27-5.71,29.95,24.4.33,2.31.02.14Z"/><path class="cls-95" d="m201.78,144.37s-1.83-10.11-1.01-17.56c.82-7.45-.21-15.92-.21-15.92,0,0-1.81-.76-3.14,0-1.33.76-4.42,8.46-3.03,14.65,1.39,6.19.32,21.03.32,21.03h-2.08l-4.55-6.25-2.21-.63s-12.73,12-12.54,19.14l1.66,6.35,15.67-.54,10.23-11.68.88-8.59Z"/><path class="cls-103" d="m185.86,139.69s.33,7.96,2.11,14.78c0,0-.3,2.79-3.57,2.98l-.81-.9s-.57,3.17-3.46,3.41l-2.75-2.75.71,2.27s-.99,2.42-3.6,2.32c0,0-4.36-3.41-4.64-7.86l4.31-3.65v-2.79l5.12-3.6.09-2.04s3-2.23,6.47-2.18Z"/><path class="cls-2" d="m200.95,124.67s-.77,1.95-1.86,2.71c-1.09.76-4.25,1.34-4.25,1.34l-.14,17.86h-2.08l-4.55-6.25s2.31,3.57,2.45,6.25l-1.8.88-1.56-5.35-.74,3.85.74,4.79s2.7-2.32,7.58-2.41l.73,1.33s-8.83,7.31-10.86,11.62c0,0,4.36-5.54,14.31-11.65l.95-2.94,1.26-7.01s-1.19-10.1-.16-15.02Z"/><path class="cls-39" d="m208.35,155.8c-.82,2.46-9.41,12.69-10.36,14.91-.95,2.21-1.52,5.11-1.52,5.11-4.22,9.13-14.43,10.39-14.43,10.39l-.47-8.24s-5.49-3.16-6.42-4.89v-.03s-.12-.29-.12-.29c-.28-1.61-.04-7.58-.04-7.58l9.61-3.89c4.17-5.4,14.31-11.65,14.31-11.65l.47-2.83c-7.28-3.58-6.06-14.41-4.83-15.74,1.23-1.32,3.5-1.32,3.5-1.32,0,0,2.66,8.71,4.36,12.79,1.71,4.07,6.76,10.8,5.94,13.26Z"/><path class="cls-79" d="m179.39,141.87s1.07,9.95,4.22,14.68c0,0-3.99-4.96-4.31-12.65l.09-2.04Z"/><path class="cls-79" d="m174.18,147.51s1.04,8.01,5.97,12.46c0,0-4.36-2.18-5.97-9.66v-2.79Z"/><path class="cls-45" d="m199.32,168.59s-10.83,10.52-17.75,9.38l.47,8.24s13.06-1.89,15.07-12.95c0,0,1.33-3.44,2.22-4.67Z"/><path class="cls-38" d="m428.36,182.89s-9.95,18.19-21.6,23.78h-3.98l-9.19,13.93s-5.94-3.73-6.38-15.98c0,0,2.08-2.17,2.59-4.62,0,0-3.28-2.58-4.17-4.47-.88-1.9-1.2-7.58-1.83-9.92s-6-7.2-7.2-7.83-6.63-.95-6.63-.95c0,0-.76-1.96,0-2.9.76-.95,9.22-4.24,13.83-1.08,0,0,.32,2.4.82,3.67.51,1.26,4.55,5.74,5.18,5.74s3.35-2.27,4.55-4.04c1.15-1.7,7.26-14.87,8.74-19.32.01-.05.02-.09.04-.13.02-.07.05-.14.06-.2.02-.05.03-.09.04-.13.01-.02.02-.03.02-.05,1.14-3.85,7.77-11.24,11.31-13.26,0,0,1.51-.38,2.33,1.51,0,0-2.84,8.09-5.81,12.89-.5.81-1.04,1.76-1.6,2.78h-.01c-2.53,4.65-5.38,10.74-5.79,11.63l-.05.11,1.58.81,4.27-4.05,4.38-4.15,10.05,10.61-.99,1.26-3.14,4.03,1.59.29,3.7-4.09,3.29,4.13Z"/><path class="cls-7" d="m426.03,186.76l-3.18,4.67s-17.45-13.46-21.24-14.6-5.18-.38-5.18-.38l-3.91,4.99s7.2,6.38,7.83,14.97c0,0-2.4-10.86-10.55-14.15.63,0,3.35-2.27,4.55-4.04,1.15-1.7,7.26-14.87,8.74-19.32-.2.76-.46,2.24.16,3.41.86,1.59,5.92.09,6.22,0h.01l-5.8,11.63-.05.11,1.58.81,4.27-4.05-2.14,4.97,15.58,2.75-3.14,4.03,1.59.29,4.66,3.91Z"/><path class="cls-105" d="m413.86,166.66s3.03-.44,4.99,3.47l-.44,1.26s2.95.58,5.81,5.37c0,0-2.53,4.61-8.78,6.69,0,0-2.91-.82-3.41-3.28l.57-1.58-2.27,1.71s-2.72.82-3.92-3.22l7.45-10.42Z"/><path class="cls-40" d="m429.27,181.63s.63-2.91-2.46-4.8l-6,6.63s.18,2.13,2.78,2.59c0,0,4.11-1.39,5.68-4.42Z"/><path class="cls-67" d="m385.63,195.53s6.95,7.76,17.15,11.14l-4.4,6.66-9.17-11.65.59-1.68s-3.67-2.76-4.17-4.47Z"/><path class="cls-79" d="m418.41,171.4s-2.91,4.8-5.81,7.2l-.57,1.58s5.64-3.81,7.71-8.2c0,0-.67-.48-1.34-.58Z"/><path class="cls-49" d="m397.44,222.68c-.88,1.39-5.3,4.3-6.44,5.44-1.14,1.13,0,4.87,0,4.87-18.57,19.71-37.93,29.58-39.88,30.54-.11.05-.16.08-.16.08-1.52.19-8.91-1.89-16.3-16.67-6.7-13.39-8.62-22.33-8.93-23.89l-.04-.24,1.63-2.21,2.42-27.28,1.7,5.49c6.44-7.77,12.51-19.7,12.51-19.7l.27.86h0c1.09,4.29,3.33,20.32,5.41,26.04,1.3,3.57,3.35,5.54,4.86,6.56v.02s0,.01,0,.01c-5.93,5.41-8.87,13.19-10.32,19.38-1.33,5.68-1.42,10.03-1.42,10.03,0,0,1.64-7.7,6.82-16.96,1.88-3.37,4.62-6.38,7.33-8.85,2.04-1.86,4.07-3.42,5.72-4.58,1.42.88,2.62,2.27,3.78,1.69-7.8,11.71-7.61,34.89-.28,30.47,7.32-4.42,9-13.8,9-13.8-1.73-11.43-1.21-24.32.18-26.77,1.69.06,6.52,3.45,6.8,3.37-.44,13.45,5.88,22.43,5.88,22.43l4.17-6.45c-6.07-10.23-5.62-20.19-5.62-20.19.25-.11,1.72.97,1.72.97l-1.03,1.28c1.58,9.1,6.76,15.22,6.76,15.22l3.47-5.08s.89,6.53,0,7.92Z"/><path class="cls-47" d="m317.04,306.81v3.98l-.07.07-.22.2-.18.15c-1.8,1.42-9.43,6.07-33.27,7.35-28.25,1.51-47.07-7.58-47.07-7.58l1.42-3.89s-1.32-1.13-1.42-1.7c-.09-.57,1.04-1.9,1.04-1.9,0,0-2.84-1.51-2.84-3.41,0-1.71,4.64-6.66,5.39-11.31.09-.5.13-.99.11-1.48-.19-5-4.51-9.43-5.11-12.27,0-.03,0-.04,0-.04-.57-2.84,7.39-9.85,7.39-9.85-6.82-21.6-8.15-50.59-8.15-50.59l-1.32-1.52s-8.15,18.57-15.54,27.66c-7.39,9.1-18.19,16.87-20.08,16.49-4.36,0-9.23-7.58-13.65-16.93s-4.69-36.21-4.92-37.87c-.24-1.66-2.7-4.98-2.85-6.4,4.74,8.15,12.29,5.75,12.29,5.75-5.47.12-8.31-10.11-8.31-10.11l-.03-.07-.03-.07-2.67-7.05c.3.34,6.55,7.33,12.59,3.02,6.19-4.42,9.38-12.98,9.38-12.98v10.99s.37,1.71.94,1.71c-.37,5.06-1.44,11.22-2.74,17.29-2.81,13.13-6.66,25.81-6.66,25.81,0,0,10.44-5.68,14.11-20.08,1.75-6.89,2.04-12.88,1.87-17.24-.15-3.73-.64-6.28-.84-7.21-.01-.07-.03-.14-.05-.21,0-.03-.01-.07-.02-.1,0-.02-.01-.04-.01-.05l1.01,2.14,1.92,4.76c2.23,18.48-2.37,46.33-2.37,46.33,6.7-8.34,8.09-26.78,7.8-31.26-.13-2.14-.3-4.78-.41-6.94-.15-2.36-.25-4.15-.25-4.15l13.71,8.18-2.53-8.02,9.98,8.02s8.97,10.8,18.19,12.06c9.22,1.27,43.07.51,43.07.51,0,0-29.43,1.89-38.02,4.42s-10.23,5.43-10.23,5.43c6.21,31.59,40.58,42.24,41.65,42.56-31.18-4.68-45.69-31.19-45.69-31.19,0,0-.51,14.91,1.89,20.59s16.55,19.58,34.74,22.48c1.53.24,3.04.39,4.53.46,15.34.72,28.04-7.12,29.34-7.96.07-.05.11-.07.11-.07,0,0-.01.02-.03.05-.49.75-6.78,9.59-32.18,10.56-1.54.06-3.04.05-4.5-.01h-.02c-23.54-.99-35.53-16.67-35.53-16.67,0,0-8.71,4.68-3.15,11.62.06.07.12.15.18.22,1.64,1.89,5.25,4.2,9.52,6.58.12.07.24.14.35.2,5.16,2.85,11.21,5.79,15.89,8.22.03.01.05.02.07.03,2.86,1.49,5.21,2.77,6.52,3.73.01,0,.01.01.01.01,1.32.96,1.59,1.58.3,1.73-6.57.76-31.45-4.67-32.46-3.16-1.01,1.52,1.23,5.43,1.23,5.43,22.84,11.32,71.71,5.74,73.25,5.57-40.9,10.47-74.36-2.79-74.36-2.79l1.11,3.92s18.22,6.31,39.69,6.82c21.48.5,34.87-4.99,34.87-4.99l2.33-3.98Z"/><path class="cls-28" d="m300.31,216.87s16.27.88,27.02,3.73l-5.54,8.41s-8.34-7.34-21.47-12.14Z"/><path class="cls-25" d="m315.51,261.71s-10.15,8.47-20.13,12.38c-9.98,3.92-19.58,4.29-19.58,4.29,0,0,5.74,1.71,19.85-.57,14.12-2.27,18.95-9.92,18.95-9.92l.91-6.19Z"/><path class="cls-18" d="m320.06,294.32h0c-18.78,4.86-42.62-2.1-42.42-2.95s6.53.38,21.21-2.56c14.23-2.85,19.39-7.91,19.7-8.22-.12.86-2.08,2.75-2.64,4.81-.38,1.37,2.28,5.69,4.15,8.92Z"/><path class="cls-19" d="m269.05,219.42c-16.04,1.63-20.36,6.1-20.36,6.1-4.51.57-14.64-10.98-14.64-10.98l-1.32-1.52s-8.15,18.57-15.54,27.66c-.88,1.08-1.81,2.15-2.77,3.18l1.05-2.36s1.72-.82,2.22-9.85c.51-9.02-3.79-22.48-3.82-24.31s-.66-11.09-.66-11.09l13.71,8.18-2.53-8.02,9.98,8.02s3.91,5.88,13.78,10.78c9.31,4.63,19.75,4.26,20.9,4.21Z"/><path class="cls-24" d="m232.73,213.02l9.56-1.25s3.82,2.53,11.49,5.65l-6.39,9.43s2.54,13.44,9.82,21.01c0,0-19.32-10.73-22.04-19.75l-2.43-15.09Z"/><path class="cls-21" d="m176.94,184.42l2.73,7.19s2.78,9.7,8.31,10.11c5.53.41,10.93-16.27,10.93-16.27v-10.99s-5.88,12.6-12.23,14.02c-6.35,1.42-9.74-4.06-9.74-4.06Z"/><path class="cls-20" d="m209.99,178.73s4.93,9.85,10.99,12.88c0,0-7.21-17.5-5.69-27.79,0,0-2.65,1.65-5.3,14.91Z"/><path class="cls-32" d="m329.74,193.32l1.7,5.49,1.72,45.05s-4.37-8.57-7.43-20.81l1.59-2.45s2.67-16.98,2.42-27.28Z"/><path class="cls-46" d="m382.09,206.58s-.96,22.13,8.44,24.04l.47,2.37s-12.17-.45-8.91-26.41Z"/><path class="cls-41" d="m366.4,213.31s-.36.79-3.78-1.69c0,0-11.83,8.38-16.39,20.19,0,0,7.29-10.85,11.17-12.02,3.88-1.17,4.82,3.16,4.82,3.16,0,0,1.54-6.1,4.18-9.63Z"/><path class="cls-23" d="m175.69,195.97s4.55,8.39,13.08,5.76c0,0-5.11,3.44-10.23.64,0,0-3.18-5.45-2.85-6.4Z"/><path class="cls-58" d="m205.5,185.35s6.26,23.4-10.07,40.98c0,0,10.6-5.44,13.01-18.04s-2.94-22.93-2.94-22.93Z"/><path class="cls-22" d="m317.64,166.65s-.7,10.56-5.77,18.14c-5.06,7.58-15.1,12.69-15.1,12.69,0,0,12.6-4.64,18.38-11.18,5.78-6.54,2.49-19.66,2.49-19.66Z"/><path class="cls-51" d="m253.19,150.76s0,8.83,2.84,17.83c2.84,9,27.51,24.73,27.51,24.73,0,0-25.43-10.56-30.35-20.06s0-22.5,0-22.5Z"/><path class="cls-57" d="m305.29,152.67c-.78,9.3-3.61,15.78-6.63,20.15-4.16,6-8.66,8.05-8.66,8.05-4.5-1.96-8.4-4.4-11.76-7.09-14.26-11.4-18.86-27.2-19.21-28.5,6.02,14.54,14.86,23.35,21.56,28.31,5.4,4.01,9.41,5.52,9.41,5.52v-4.65c-1.07-.4-2.11-.86-3.1-1.36-11.8-5.95-18-18.35-20.9-26.37-.01-.02-.01-.03-.02-.05-1.57-4.34-2.18-7.39-2.18-7.39h2.14l-.7,1.5-.03.05c.34,1.52.73,2.98,1.17,4.37.01.04.02.08.04.11,6.6,20.82,23.58,27.53,23.58,27.53,11.8-8.71,11.57-22.54,11.57-22.54v-1.9l2.21.66,1.51,3.6Z"/><path class="cls-42" d="m375.29,203.21s-3.21,10.48-.18,26.77c0,0,1.52-20.65,2.65-22.45,1.14-1.8,4.32-.95,4.32-.95,0,0-5.01-2.77-6.8-3.37Z"/><path class="cls-61" d="m344.17,260.18c-2.8-2.45-6.16-6.54-9.51-13.24-6.7-13.39-8.62-22.33-8.93-23.89l1.59-2.45,2.13-20.6,1.99-1.19s7.11-7.85,12.51-19.7c.08.18.17.46.27.86h0c1.09,4.29,3.33,20.32,5.41,26.04,1.3,3.57,3.35,5.54,4.86,6.56,0,0-12.31,18.26-12.91,31.29-.53,11.86,2.11,15.72,2.59,16.32Z"/><path class="cls-59" d="m271.08,298.26s-22.19-3.64-31.25-9.48c0,0-.01,0-.01-.01.09-.5.13-.99.11-1.48-.19-5-4.51-9.43-5.11-12.27.1.27.75,1.77,3.9,4.47,1.99,1.71,5,3.91,9.52,6.58.12.07.24.14.35.2,6.4,3.78,11.91,6.34,15.89,8.22.03.01.05.02.07.03,3.58,1.68,5.9,2.79,6.52,3.73.01,0,.01.01.01.01Z"/><path class="cls-60" d="m318.55,280.59c-.12.86-2.08,2.75-2.64,4.81,0,0-8.14,8.62-38.27,5.97.2-.85,6.53.38,21.21-2.56,14.23-2.85,19.39-7.91,19.7-8.22Z"/><path class="cls-62" d="m323.69,163.8l-19.26,6.24-5.64,2.62h-.03s-3.67.02-3.67.02h-4.96s-3.1.26-3.1.26l-1.64.12-4.67.37-2.35.19-23.1-8.36-4.13-1.49-19-6.88c.56-.22,1.13-.44,1.73-.68,12.75-5.05,25.26-11.18,25.26-11.18l4.8-5.9h2.14c1.91-4.18,3.18-8.09,4-11.17l1.27-5.71c.09-.55.13-.85.13-.85l6.8,3.59,22.93,18.34c-.02,1.25.02,2.37.09,3.32l.33,2.31c.06-.45.08-.71.08-.71l2.21.66,1.51,3.6s2.56,3.98,12.7,8.44c1.75.77,3.63,1.74,5.57,2.85Z"/><path class="cls-96" d="m308.89,146.39s-8.98,2.02-18.89-2.78-18.24-18.95-18.75-22.48c-.5-3.54,3.79-12.76,3.79-19.96s-3.53-19.58,2.4-26.28c5.94-6.69,33.22-7.7,42.07.89,0,0,2.74,6.88,2.74,10.77,0,.94-.17,2.32-.42,3.91-.08.59-.19,1.22-.29,1.87-.79,4.71-1.88,10.46-1.37,12.98.18.88.46,1.69.79,2.46h0c1.09,2.53,2.71,4.54,3,6.72.38,2.85-3.44,23.06-15.07,31.9Z"/><path class="cls-96" d="m274.97,99.14s-2.45-6.15-8.61-6.24c0,0-3.6,1.42-4.17,4.17,0,0,1.33,9.95,2.84,14.59s7.07,3.97,7.07,3.97c0,0,4.84-7.4,2.86-16.49Z"/><path class="cls-92" d="m298.63,119.39s2.05-.16,2.93.5c.88.66,4.11,3.79,8.18,4.64,4.07.85,6.81-2.62,7.67-2.79.87-.18,1.82,1.05,1.82,1.05,0,0-.37-1.42-2.5-2.06,0,0-.86,3.27-6.76,2.15-5.9-1.12-8.42-3.74-8.42-3.74l-.3-.54s-1.66.35-2.63.79Z"/><path class="cls-6" d="m289.92,88.8l.08-.63s5.89-10.34,17.54-10.62c11.65-.28,14.28,7.02,14.28,7.02l2.16-3.28-4.92-9.99-34.24-.57-8.34,6.73-1.05,16.47,3.71,21.74,9.02,4.81,2.55-2.26c-.94-7.28-6.35-13.93-6.35-13.93l3.95-2.74s10.14,4.91,15.99,3.44c0,0,4.41-12.86,4.15-22.38,0,0-15.02,2.22-18.53,6.21Z"/><path class="cls-69" d="m289.4,89.56s.57-3.72,6.85-5.21c7-1.66,12.69-3.06,12.69-3.06,0,0-1.24,4.08-3.57,5.61,0,0-7.41-.27-11.15.58-3.75.85-4.81,2.08-4.81,2.08Z"/><path class="cls-69" d="m321.83,84.57s-3.55,2.74-5.97,9.28c0,0,2.32-3.03,4.45-2.98,1.46.03,1.23,1.48,1.23,1.48,0,0,1.45-3.91.29-7.77Z"/><path class="cls-96" d="m291.75,100.09s.38-7.86,8.05-9.85c0,0,2.75,3.55,3.03,7.58,0,0-4.07-.76-11.08,2.27Z"/><path class="cls-98" d="m313.73,103.22s.62-6.26,4.22-8.57c0,0,2.45,1.84,2.2,7.08,0,0-2.15-.78-6.41,1.5Z"/><path class="cls-93" d="m291.75,100.09s2.49,3.06,9.47,3.66c0,0,1.33-2.02,1.2-5.99,0,0-6.41-.61-10.68,2.32Z"/><path class="cls-93" d="m313.73,103.22v.92s1.07,2.24,4.93,2.62c0,0,1.24-1.93,1.35-5.07,0,0-2.45-.61-6.27,1.54Z"/><path class="cls-86" d="m299.21,97.61s-1.77,2.15-1.61,5.55c0,0,2.32.55,3.62.6,0,0,1.53-2.13,1.2-5.99,0,0-2.03-.44-3.21-.16Z"/><path class="cls-86" d="m317.38,101.79s-1,1.07-1.19,4.36c0,0,1.37.6,2.46.6,0,0,1.4-1.99,1.35-5.07,0,0-.98-.37-2.62.11Z"/><path class="cls-70" d="m298.63,103.39s-.63-4.25,1.8-5.87l1.99.25s.66,3.36-1.2,5.99c0,0-1.98-.22-2.59-.37Z"/><path class="cls-70" d="m318.26,101.61s-.9,1.89-1.32,4.83c0,0,.69.28,1.71.32,0,0,1.36-1.67,1.35-5.07,0,0-1.04-.28-1.74-.08Z"/><path class="cls-69" d="m291.75,100.09s4.64-2.7,12.55-1.16l-1.47-1.11s-5.64-1.75-11.08,2.27Z"/><path class="cls-69" d="m313.73,103.22s3.72-1.98,8.06-.93l-1.79-1.32s-2.91-.45-6.27,2.25Z"/><path class="cls-91" d="m296.77,100.09s1.26-.28,2.4.87c0,0-1.56.46-2.4-.87Z"/><path class="cls-91" d="m315.43,103.76s1.98-.38,2.66.52c0,0-1.06.73-2.66-.52Z"/><path class="cls-78" d="m292.21,100.55s3.61,3.57,9.39,4.42l.15-2.1-.53.89s-5.56-.33-9.01-3.2Z"/><path class="cls-78" d="m313.73,104.14s.64,2.31,5.34,3.35l-.15-1.13-.26.4s-3.34-.43-4.93-2.62Z"/><path class="cls-92" d="m304.3,113.36s1.75-.38,4.97,0c3.22.38,6.84,1.26,8.82,0,0,0-2.63,2.63-4.91,3.03s-5.75-1.6-5.75-1.6l-1.52.03s-1.17-.57-1.63-1.46Z"/><path class="cls-78" d="m306.15,114.81s.79-.51,1.45-.38c.66.13,1.34,1.09,1.34,1.09,0,0-1.4-.74-2.79-.71Z"/><path class="cls-96" d="m318.09,113.36c.84-.82-3.52-8.58-5.6-8.87s-4.04,8.7-4.04,8.7c0,0,2.9.41,5.71.78,2.81.38,3.93-.61,3.93-.61Z"/><path class="cls-8" d="m321.22,88.82c-1.18-.15-5.35,4.92-5.35,4.92,0,0-2.65,8.21-2.13,10.64.52,2.44,6.96,3.73,6.96,3.73l.27-.43h0c-.33-.78-.61-1.59-.79-2.47-.51-2.52.58-8.27,1.37-12.98,0,0,.26-.97.29-1.87.03-.76-.08-1.48-.62-1.54Z"/><path class="cls-85" d="m321.02,122.26c-1.33-2.78-.51-4.23-12.06-5.74-16.35-2.15-17.75,2.84-20.53,2.08-.1-.03-.22-.07-.33-.12-3.01-1.17-10.1-8.14-10.28-17.53-.19-9.76,6.35-16.68,6.35-16.68-2.37-1.99-3.32-7.76-.76-10.23,2.56-2.46,6.92-1.89,17.62-.76,10.71,1.14,10.71.48,10.71.48,3.4.87,5.35,4.06,5.9,5.08.11.2.16.32.16.32l1.33-1.23c3.6,5.21,2.94,10.89,2.94,10.89,0,0,5.87-11.94,5.2-13.63-1.22-3.12-4.61-7.67-4.82-7.96h-.01s-.95-9.1-3.79-9.1-14.97,2.74-14.97,2.74c1.33-3.12,1.14-6.72,1.14-6.72l-.05.05c-3.96,3.55-7.83,3.94-13.31,6.48-2.76,1.29-4.06,2.48-5.13,3.72l-.37.44-.39.47c-.38.48-.77.97-1.24,1.47-.02.03-.05.05-.06.06l-.03.03c-.44.48-.96.97-1.59,1.49-3.6,2.93-11.52,4.89-12.47,7.99-.95,3.09,1.2,7.32,2.34,11.68,1.13,4.36.61,8.21.61,8.21,0,0,3.77,4.86,2.52,11.97-1.11,6.37-3.54,7.41-3.54,7.41-1.71,3.51-.9,6.79-.9,6.79,3.5,13.92,17.98,22.21,17.98,22.21,12.88,4.8,21.35,2.71,21.35,2.71h0c9.37-6.12,12.58-26.34,12.72-27.28-.16.25-1.9,2.95-2.25,2.21Zm-5.78,12.89c-2.27-.38-2.75-6.13-3.5-6.89-.76-.75-4.87-.44-4.87-.44,0,0-3.79,4.3-5.3,4.42-1.52.13-9.6-3.16-7.85-8.08,1.74-4.93,7.85-5.56,7.85-5.56,0,0,3.16,2.65,7.89,2.96,4.74.31,6.45-.56,7.01-.81.57-.26,3.62,1.13,3.54,5.43-.05,2.99-2.49,9.35-4.77,8.97Z"/><path class="cls-77" d="m314.65,106.21s4.08,5.07,3.69,6.98c-.43,2.09-5.16,3.2-5.16,3.2,0,0,3.79-1.31,4.57-3.2,0,0-.97-3.84-3.11-6.98Z"/><path class="cls-1" d="m322.07,88.82s.66-5.68-2.94-10.89c2.89-5.16,3.31-10.71,3.31-10.71h.01c.98,2.42,1.54,7.11,1.54,7.11l3.28.86c.67,1.69-5.2,13.63-5.2,13.63Z"/><path class="cls-3" d="m317.64,78.84c-.55-1.02-2.5-4.21-5.9-5.08,0,0,0,.66-10.71-.48-10.7-1.13-15.06-1.7-17.62.76-2.56,2.47-1.61,8.24.76,10.23,0,0-6.54,6.92-6.35,16.68.18,9.39,7.27,16.36,10.28,17.53l-.14,1.04s.53,21.5,5.76,23.21c5.22,1.7,16.06.82,17.07,1.83s-.14,2.61-.24,2.76h0s-8.47,2.1-21.35-2.7c0,0-14.48-8.29-17.98-22.21,0,0-.81-3.28.9-6.79,0,0,2.43-1.04,3.54-7.41,1.25-7.11-2.52-11.97-2.52-11.97,0,0,.52-3.85-.61-8.21-1.14-4.36-3.29-8.59-2.34-11.68,6.06.95,10.04-2.21,10.04-2.21,0,0,1.06-1.47,5.75-2.23s23.54,1.14,23.54,1.14c0,0-1.89-1.57-5.87-2.61-3.76-.99-16.6.16-17.98.27,1.47-.26,16.03-2.76,17.69-2.26,1.76.52,8.06,3.41,8.06,3.41-.57-2.89-6.21-9.85-6.21-9.85,0,0-7.96.14-13.17,1.23-4.65.97-7.2,3.1-7.7,3.54l1.24-1.47.39-.47.37-.44,1.82-.31,9.14-3.69c3.07-1.64,7-5.7,7.48-6.2l.05-.05s.19,3.6-1.14,6.72c7.72-.95,10.33-.47,10.33-.47,3.51,4.97,3.63,18.44,3.63,18.44Z"/><path class="cls-17" d="m289.19,144.62s4.73-1.12,11.87-.84c7.14.29,11.25.32,9.48,3.55,0,0-8.97,2.03-21.35-2.71Z"/><path class="cls-84" d="m314.01,60.4s4.34-1.69,6.06-1.42c0,0-.68-.91-1.39-1.1-.71-.19-15,2.98-15,2.98,0,0,8.91-1.04,10.33-.47Z"/><path class="cls-84" d="m305.2,62.01s-.34,4.73-1.85,6.44l-17.69,2.26-5.19-.92s2.01-.86,4.22-3.43c2.21-2.58,13.74-5.11,20.52-4.35Z"/><path class="cls-84" d="m322.44,67.22s1.44,4.65,1.55,7.11l3.28.86s-1-3.52-4.83-7.97Z"/><path class="cls-5" d="m274.24,107.48s-1.24-5.97-4.29-8.92c-3.05-2.95-6.52-2.01-6.52-2.01,0,0,.95,11.07,1.94,13.77.99,2.7,2.51,3.41,2.51,3.41,0,0-2.13-1.87-2.42-5.53s-.38-8.82.43-9.44c.81-.62,4.06,1.79,4.06,1.79,0,0-1.03,1.26-1.64,4.52-.62,3.26,1.66,5.63,2.51,5.58.85-.05-.05-3.77.09-4.85s2.04-.84,3.33,1.67Z"/><path class="cls-9" d="m271.19,100.07s-3.33,2.19-2.97,6.67c.36,4.49,2.92,4.29,2.93,3.35,0-.94-.49-3.37-.23-4.74.26-1.37,2.47-.75,2.47-.75,0,0-1.46-3.56-2.21-4.53Z"/><path class="cls-82" d="m318.68,57.89s2.18,1.7,2.6,7.59c.41,5.9-2.14,12.45-2.14,12.45,0,0,3.28-4.9,3.6-10.27.32-5.37-2.32-9.09-4.05-9.77Z"/><path class="cls-84" d="m292.24,70.24s5.05,1.72,10.59,2.21,6.68.6,6.68.6c0,0-2.23-2.16-6.97-2.81-4.74-.65-10.3,0-10.3,0Z"/><path class="cls-83" d="m316.64,120.46s2.42,0,3.37,3.03c.76,2.42.97,4.5.97,4.5l.86-3.32s-1.12-4.21-2.28-5.16c-.84-.68-2.28-1.37-2.96-1.21l.05,2.16Z"/><path class="cls-83" d="m310.13,117.43l.41,3.6s2.94.24,4.89-.57l.35-2.18s-3.75-.95-5.65-.85Z"/><path class="cls-76" d="m323.56,163.96s17.23,12.58,19.46,16.91c2.24,4.33,3.14,17.9,6.16,23.78,0,0-2.07-9.61-3.52-17.14-1.45-7.53-1.1-7.64-1.91-9.49-.81-1.85-13.67-10.77-20.2-14.06Z"/><path class="cls-76" d="m320.47,234s-8.3,35.54-7.93,37.94c.38,2.4,5.75,7.3,6,8.64,0,0-4.11,5.5-3.92,6.72s7.2,8.92,7.01,11.31c-.05.69-4.6,8.19-4.6,8.19,0,0,5.14-7.37,5.39-8.55.25-1.18-6.3-11.03-6.49-12.03-.5-2.59,3.27-4.5,3.39-6.2.13-1.71-5.09-5.87-5.14-8.65-.04-2.78,6.27-37.38,6.27-37.38Z"/><path class="cls-76" d="m322.16,318.73s17.95,40.64,24.07,81.27c0,0-1.02-39.66-24.07-81.27Z"/><path class="cls-97" d="m208.35,155.8s-4.64-.99-6.57-5.04c-1.93-4.05-.67-9.92-.67-9.92,0,0,3.64,6.98,5.45,9.36,1.81,2.38,2.3,5.1,1.79,5.6Z"/><path class="cls-66" d="m351.66,134.61l3.22,91.8c.13,3.64,3.12,6.53,6.76,6.53h158.13c3.67,0,6.67-2.93,6.76-6.6l2.21-92.87c.09-3.82-2.99-6.95-6.81-6.93l-163.56,1.07c-3.81.03-6.85,3.19-6.72,7Z"/><path class="cls-88" d="m519.77,233.19h-158.13c-3.8,0-6.88-2.97-7.01-6.77l-3.22-91.8c-.07-1.91.62-3.72,1.95-5.1,1.32-1.38,3.1-2.15,5.02-2.16l163.57-1.07c1.9,0,3.71.73,5.05,2.1,1.34,1.37,2.06,3.17,2.01,5.08l-2.21,92.87c-.09,3.84-3.17,6.85-7.01,6.85Zm2.21-106.4h-.04l-163.57,1.07c-1.78.01-3.43.72-4.66,2-1.23,1.28-1.87,2.96-1.81,4.74l3.22,91.8c.12,3.53,2.98,6.29,6.51,6.29h158.13c3.51,0,6.43-2.85,6.51-6.36l2.21-92.87c.04-1.78-.62-3.45-1.87-4.72-1.24-1.26-2.88-1.95-4.64-1.95Z"/><path class="cls-4" d="m351.89,139.29h176.66l.28-4.84c.25-4.28-3.17-7.88-7.46-7.85l-163.5,1.29c-3.41.03-6.15,2.84-6.08,6.25l.1,5.15Z"/><polygon class="cls-10" points="360.78 146.7 360.78 199.82 414.85 199.82 414.85 146.42 360.78 146.7"/><rect class="cls-108" x="467.11" y="150.26" width="23.52" height="23.52"/><rect class="cls-110" x="494.86" y="150.26" width="23.52" height="23.52"/><rect class="cls-109" x="438.89" y="150.26" width="23.52" height="23.52"/><rect class="cls-12" x="458.23" y="187.5" width="60.15" height="5.63"/><rect class="cls-12" x="443.19" y="196.07" width="75.2" height="1.74"/><rect class="cls-12" x="443.9" y="176.78" width="14.39" height="1.74"/><rect class="cls-12" x="471.68" y="176.78" width="14.39" height="1.74"/><rect class="cls-12" x="499.43" y="176.78" width="14.39" height="1.74"/><rect class="cls-12" x="438.89" y="198.91" width="24.19" height="1.74"/><rect class="cls-12" x="443.19" y="201.71" width="75.2" height="1.74"/><rect class="cls-12" x="438.89" y="204.51" width="79.49" height="1.74"/><rect class="cls-12" x="438.89" y="207.31" width="79.49" height="1.74"/><rect class="cls-12" x="443.19" y="218.63" width="75.2" height="1.74"/><rect class="cls-12" x="438.89" y="221.43" width="79.49" height="1.74"/><rect class="cls-12" x="438.89" y="224.23" width="79.49" height="1.74"/><rect class="cls-12" x="438.89" y="210.11" width="76.3" height="1.74"/><rect class="cls-12" x="443.19" y="212.91" width="75.2" height="1.74"/><rect class="cls-12" x="438.89" y="215.71" width="64.41" height="1.74"/><g class="cls-112"><path class="cls-81" d="m375.93,189.17c-8.48,0-15.38-6.9-15.38-15.38s6.9-15.38,15.38-15.38,15.38,6.9,15.38,15.38-6.9,15.38-15.38,15.38Zm0-29.77c-7.93,0-14.38,6.45-14.38,14.38s6.45,14.38,14.38,14.38,14.38-6.45,14.38-14.38-6.45-14.38-14.38-14.38Z"/></g><circle class="cls-91" cx="375.93" cy="173.78" r="8.36"/><g class="cls-112"><path class="cls-81" d="m414.85,161.8c-8.48,0-15.38-6.9-15.38-15.38s6.9-15.38,15.38-15.38,15.38,6.9,15.38,15.38-6.9,15.38-15.38,15.38Zm0-29.77c-7.93,0-14.38,6.45-14.38,14.38s6.45,14.38,14.38,14.38,14.38-6.45,14.38-14.38-6.45-14.38-14.38-14.38Z"/></g><circle class="cls-91" cx="414.85" cy="146.42" r="7.87" transform="translate(205.73 533.47) rotate(-81.06)"/><g class="cls-112"><polygon class="cls-91" points="358.08 132.08 359.21 130.38 365.29 135.7 364.35 137 358.08 132.08"/><polygon class="cls-91" points="365.44 132.08 364.32 130.38 358.24 135.7 359.17 137 365.44 132.08"/></g><rect class="cls-91" x="469.84" y="131.53" width="54.44" height="2.73"/><polygon class="cls-106" points="183.35 92.12 183.35 115.75 211.61 115.99 211.99 91.37 183.35 92.12"/><polygon class="cls-104" points="211.99 91.37 213.83 94.47 212.91 115.96 211.61 115.99 211.99 91.37"/><polygon class="cls-91" points="188.4 100.1 191.01 96.31 205.11 108.15 202.95 111.04 188.4 100.1"/><polygon class="cls-91" points="205.48 100.1 202.87 96.31 188.76 108.15 190.92 111.04 205.48 100.1"/><path class="cls-107" d="m249.27,370.18h-96.69c-4.3,0-7.82-3.44-7.92-7.74l-1.81-79.31c-.1-4.44,3.47-8.1,7.92-8.1h100.67c4.46,0,8.04,3.68,7.92,8.14l-2.17,79.31c-.12,4.29-3.63,7.7-7.92,7.7Z"/><path class="cls-74" d="m249.27,370.43h-96.69c-4.4,0-8.07-3.58-8.17-7.98l-1.81-79.31c-.05-2.22.78-4.31,2.33-5.9,1.55-1.58,3.62-2.46,5.84-2.46h100.67c2.22,0,4.3.88,5.85,2.47,1.55,1.59,2.37,3.7,2.31,5.92l-2.18,79.31c-.12,4.46-3.71,7.94-8.17,7.94Zm-98.49-95.14c-2.08,0-4.03.82-5.48,2.31-1.46,1.49-2.23,3.46-2.18,5.54l1.81,79.31c.09,4.13,3.53,7.49,7.67,7.49h96.69c4.18,0,7.55-3.28,7.67-7.46l2.18-79.31c.06-2.09-.71-4.06-2.17-5.56-1.46-1.5-3.41-2.32-5.5-2.32h-100.67Z"/><rect class="cls-91" x="168.92" y="291.26" width="50.85" height="2.18"/><rect class="cls-91" x="168.92" y="296.55" width="25.42" height="2.18"/><rect class="cls-91" x="168.92" y="300.98" width="25.42" height="2.18"/><rect class="cls-91" x="197.2" y="300.98" width="20.23" height="2.18"/><rect class="cls-91" x="168.92" y="305.4" width="40.99" height="2.18"/><rect class="cls-91" x="168.92" y="309.82" width="14.59" height="2.18"/><rect class="cls-91" x="186.51" y="323.08" width="25.23" height="2.18"/><rect class="cls-91" x="168.92" y="314.24" width="45.73" height="2.18"/><rect class="cls-91" x="168.92" y="318.66" width="35.18" height="2.18"/><rect class="cls-91" x="168.92" y="323.08" width="16.55" height="2.18"/><rect class="cls-91" x="168.92" y="327.5" width="25.42" height="2.18"/><rect class="cls-91" x="168.92" y="331.92" width="7.29" height="2.18"/><rect class="cls-91" x="179.22" y="331.92" width="26.46" height="2.18"/><rect class="cls-91" x="186.51" y="336.21" width="25.23" height="2.18"/><rect class="cls-91" x="168.92" y="336.21" width="16.55" height="2.18"/><rect class="cls-91" x="168.92" y="340.63" width="25.42" height="2.18"/><rect class="cls-91" x="168.92" y="345.06" width="7.29" height="2.18"/><rect class="cls-91" x="179.22" y="345.06" width="26.46" height="2.18"/><path class="cls-35" d="m508.72,108.84c0,2.47-2,4.47-4.47,4.47s-4.47-2-4.47-4.47,2-4.47,4.47-4.47,4.47,2,4.47,4.47Z"/><path class="cls-43" d="m89.82,212.48c0,3.07-2.49,5.56-5.56,5.56s-5.56-2.49-5.56-5.56,2.49-5.56,5.56-5.56,5.56,2.49,5.56,5.56Z"/><circle class="cls-34" cx="517.37" cy="108.84" r="4.47"/><circle class="cls-44" cx="229.2" cy="139.57" r="3.16"/><circle class="cls-100" cx="440.86" cy="279" r="3.16"/><circle class="cls-37" cx="112.34" cy="310.51" r="2.82"/><path class="cls-65" d="m160.49,282.77h-48.8c-3.93,0-7.15-3.11-7.28-7.04l-1.08-32.1c-.14-4.12,3.16-7.53,7.28-7.53h50.86c4.11,0,7.41,3.4,7.28,7.51l-.98,32.1c-.12,3.93-3.34,7.06-7.28,7.06Z"/><path class="cls-75" d="m160.49,283.02h-48.8c-4.08,0-7.39-3.2-7.53-7.28l-1.08-32.1c-.07-2.06.68-4.01,2.11-5.49,1.43-1.48,3.36-2.3,5.42-2.3h50.86c2.06,0,3.98.81,5.41,2.29,1.43,1.48,2.19,3.42,2.12,5.48l-.98,32.1c-.13,4.09-3.43,7.3-7.53,7.3Zm-49.88-46.66c-1.92,0-3.72.76-5.06,2.14s-2.04,3.2-1.97,5.13l1.08,32.1c.13,3.81,3.22,6.8,7.03,6.8h48.8c3.82,0,6.91-3,7.03-6.82l.98-32.1c.06-1.92-.64-3.73-1.98-5.11-1.34-1.38-3.13-2.14-5.05-2.14h-50.86Z"/><polygon class="cls-91" points="124.7 247.64 112.67 261.59 124.93 271.99 124.93 266.62 117.84 260.48 124.42 253.04 124.7 247.64"/><polygon class="cls-91" points="145.85 248.27 157.89 262.21 145.63 272.61 145.63 267.25 152.72 261.11 144.83 252.76 145.85 248.27"/><polygon class="cls-91" points="127.33 271.99 137.81 248.89 142.74 248.89 130.86 271.99 127.33 271.99"/><path class="cls-30" d="m488.82,348.82h-61.05c-4.91,0-8.94-3.89-9.11-8.8l-1.36-40.15c-.17-5.15,3.95-9.42,9.11-9.42h63.63c5.14,0,9.26,4.25,9.11,9.39l-1.23,40.15c-.15,4.92-4.18,8.83-9.11,8.83Z"/><path class="cls-75" d="m488.82,349.07h-61.05c-5.08,0-9.18-3.97-9.36-9.04l-1.36-40.15c-.09-2.56.85-4.98,2.63-6.82,1.78-1.84,4.17-2.85,6.73-2.85h63.63c2.55,0,4.94,1.01,6.72,2.84,1.78,1.83,2.72,4.25,2.64,6.8l-1.23,40.15c-.16,5.09-4.27,9.08-9.36,9.08Zm-62.4-58.37c-2.42,0-4.69.96-6.37,2.7-1.68,1.74-2.57,4.04-2.49,6.46l1.36,40.15c.16,4.8,4.05,8.56,8.86,8.56h61.05c4.82,0,8.71-3.77,8.86-8.59l1.23-40.15c.07-2.42-.81-4.71-2.5-6.44-1.68-1.74-3.94-2.69-6.36-2.69h-63.63Z"/><rect class="cls-12" x="429.55" y="296.91" width="55.91" height="33.21"/><polygon class="cls-91" points="452.55 305.15 452.55 321.88 466.84 312.75 452.55 305.15"/><rect class="cls-12" x="429.55" y="336.24" width="55.91" height="3.04"/><rect class="cls-91" x="429.55" y="336.24" width="14.47" height="3.04"/><path class="cls-27" d="m388.58,286.42l-2.92,8.35c1.61-4.61,3.93-7.61,2.92-8.35Zm-2.92,8.35l-2.92,8.35c.74-.22,1.31-3.73,2.92-8.35Zm2.92-8.35l-2.92,8.35c1.61-4.61,3.93-7.61,2.92-8.35Zm-2.92,8.35l-2.92,8.35c.74-.22,1.31-3.73,2.92-8.35Zm8.42,7.23l2.83,1.61,3.06-8.35-3.28-.55c.06-.31.12-.62.16-.93.24-1.43.32-2.83.28-4.16l3.43-2.15-1.56-7.36-3.29,3.14c-.46-.94-1.02-1.76-1.68-2.45-.18-.2-.37-.38-.57-.55l2.01-4.64-5.35-1.74h0l-1.28,4.68c-1.2,0-2.41.3-3.62.85l-.59-4.42-5.89,4.46,1.36,3.92c-1.06,1.21-2.03,2.61-2.87,4.18l-2.84-1.6-3.06,8.35,3.28.55c-.35,1.76-.48,3.47-.43,5.09l-3.43,2.15,1.56,7.36,3.29-3.14c.59,1.2,1.34,2.22,2.25,3l-2.01,4.65,5.26,2.05.81-2.96.55-2.02c1.2,0,2.42-.3,3.63-.84l.58,4.42,5.89-4.46-1.36-3.92c.83-.95,1.61-2.02,2.32-3.2.2-.32.38-.65.56-.99Zm-8.42-7.23c-1.62,4.61,0,9.37-2.92,8.35-2.93-1.03-4-5.6-2.38-10.2,1.62-4.61,5.3-7.51,8.22-6.49,2.93,1.02-1.31,3.73-2.92,8.35Zm2.92-8.35l-2.92,8.35c1.61-4.61,3.93-7.61,2.92-8.35Zm-2.92,8.35l-2.92,8.35c.74-.22,1.31-3.73,2.92-8.35Z"/><path class="cls-55" d="m396.93,303.6l3.06-8.35-3.12-1.48-.5-.24.33-4.6,3.46-1.69-1.14-7.14-7.55-2.46,1.39,3.31,2.63-5.36-5.35-1.74-2.2-.72-5.27-2.05-.98,3.6-4.59-2.18-5.89,4.46,1.79,4.82-5.51,15.26-2.72,9.91,5.23.57-1.7,3.93,5.27,2.05,7.54,2.46-1.21-2.42-.76-1.45,2.79.91,4.76,1.55,5.89-4.46-3.64-4.29,4.6-2.83,3.39.62Zm-16.57-10.69c1.62-4.61,5.3-7.51,8.22-6.49l-2.92,8.35-2.92,8.35c-2.93-1.03-4-5.6-2.38-10.2Z"/><path class="cls-26" d="m389.38,301.14l3.06-8.35-3.28-.55c.35-1.76.48-3.47.44-5.08l3.43-2.15-1.56-7.36-3.29,3.14c-.58-1.2-1.34-2.22-2.25-3l2.01-4.64-5.27-2.05-1.36,4.99c-1.19,0-2.42.3-3.62.84l-.58-4.42-5.89,4.45,1.36,3.92c-1.06,1.21-2.03,2.62-2.87,4.19l-2.84-1.6-3.06,8.35,3.28.55c-.35,1.76-.48,3.47-.44,5.08l-3.43,2.15,1.56,7.36,3.29-3.14c.58,1.2,1.34,2.22,2.25,3l-2.01,4.64,5.27,2.05,1.36-4.99c1.19,0,2.42-.3,3.62-.84l.58,4.42,5.89-4.45-1.36-3.92c1.06-1.21,2.03-2.62,2.87-4.19l2.84,1.6Zm-14.19-.49c-2.93-1.03-3.99-5.59-2.38-10.2,1.61-4.61,5.3-7.51,8.23-6.49,2.93,1.03,3.99,5.59,2.38,10.2-1.61,4.61-5.3,7.51-8.23,6.49Z"/><polygon class="cls-16" points="400.57 287.46 393.03 285.01 389.6 287.16 397.14 289.61 400.57 287.46"/><polygon class="cls-11" points="392.58 310.1 385.03 307.64 383.67 303.73 391.22 306.19 392.58 310.1"/><polygon class="cls-16" points="385.92 277.79 390.06 278.99 391.46 277.65 394.21 278.54 395.48 275.6 387.94 273.15 385.92 277.79"/><path class="cls-16" d="m374.93,308.53l3.95,1.64-.33-2.49s-2.13,1.12-3.62.84Z"/><path class="cls-16" d="m375.54,285.9l6.65,3.52s.96-1.29,1.71-1.81c0,0-1.74-7.34-8.37-1.71Z"/><polygon class="cls-87" points="222.79 36.96 229.2 49.81 224.92 51.76 218.92 39.96 222.79 36.96"/><polygon class="cls-99" points="78.34 336.3 84.28 342.82 86.61 340.13 81 333.96 78.34 336.3"/><polygon class="cls-73" points="380.11 115.37 374.13 119 371.74 114.45 378.28 110.64 380.11 115.37"/><polygon class="cls-73" points="409.56 345.08 400.99 351.17 398.59 346.63 406.91 341.77 409.56 345.08"/><polygon class="cls-53" points="398.24 84.3 396.79 50.64 440.86 50.64 439.05 84.2 398.24 84.3"/><polygon class="cls-56" points="396.79 50.64 395.47 52.62 396.79 84.3 398.24 84.3 396.79 50.64"/><polygon class="cls-91" points="411.42 57.36 404.51 56.62 405.45 79.68 411.42 79.1 411.42 76.71 407.96 76.79 407.57 59.01 411.42 59.12 411.42 57.36"/><polygon class="cls-91" points="425.59 57.36 432.5 56.62 431.55 79.68 425.59 79.1 425.59 76.71 429.04 76.79 429.44 59.01 425.59 59.12 425.59 57.36"/><polygon class="cls-52" points="94.35 157.98 95.34 135.03 65.3 135.03 66.53 157.91 94.35 157.98"/><polygon class="cls-54" points="95.34 135.03 96.24 136.39 95.34 157.98 94.35 157.98 95.34 135.03"/><path class="cls-91" d="m83.77,139.65s3.29-.13,3.88.14c.58.27-.15,5.64-.15,5.64l1.31,1.21-1.23,1.19s.06,5.44-.71,5.89-3.42,0-3.42,0v-1.36s2.16.14,2.52-.15.32-5.04.32-5.04l.58-.64-.58-.69s.11-3.39.04-4.32c-.04-.62-2.56-.65-2.56-.65v-1.22Z"/><path class="cls-91" d="m76.22,139.65s-3.29-.13-3.88.14.15,5.64.15,5.64l-1.31,1.21,1.23,1.19s-.06,5.44.71,5.89,3.42,0,3.42,0v-1.36s-2.16.14-2.52-.15-.32-5.04-.32-5.04l-.58-.64.58-.69s-.11-3.39-.04-4.32c.04-.62,2.56-.65,2.56-.65v-1.22Z"/><path class="cls-88" d="m347.86,87.33l-7.36-19.27,19.09,3.99-11.73,15.28Zm-6.57-18.59l6.72,17.58,10.7-13.94-17.42-3.64Z"/><rect class="cls-88" x="398.19" y="355.71" width="10.94" height=".5" transform="translate(-122.08 471.08) rotate(-53.76)"/><polygon class="cls-88" points="339.92 279.16 332.97 270.51 333.36 270.2 340.31 278.85 339.92 279.16"/><polygon class="cls-88" points="125.59 339.88 111.72 329.82 112.01 329.42 125.88 339.48 125.59 339.88"/><rect class="cls-88" x="110.23" y="334.4" width="17.13" height=".5" transform="translate(-219.4 226.36) rotate(-52.7)"/><rect class="cls-88" x="98.59" y="184.72" width=".5" height="10.14" transform="translate(-115.15 189.01) rotate(-62.28)"/><polygon class="cls-88" points="448.05 71.37 447.68 71.04 458.05 59.21 458.42 59.54 448.05 71.37"/><rect class="cls-88" x="248.43" y="99.55" width=".5" height="10.41" transform="translate(-20.63 121.73) rotate(-26.45)"/><rect class="cls-88" x="171.13" y="261.73" width="15.54" height=".5" transform="translate(-126.41 175.82) rotate(-39.91)"/></g></g></g></svg>