<svg width="711" height="576" viewBox="0 0 711 576" fill="none" xmlns="http://www.w3.org/2000/svg">
<path fill-rule="evenodd" clip-rule="evenodd" d="M151.367 251.44C151.727 253.6 150.789 257.416 146.242 262.168L165.441 308.608C169.194 309.256 172.658 311.704 174.391 315.448C177.278 321.568 174.607 328.84 168.544 331.72C162.409 334.528 155.12 331.936 152.233 325.816C150.5 322.072 150.861 317.896 152.738 314.512L129.353 270.016C122.568 270.448 119.104 268.648 117.733 267.064C117.516 266.776 116.073 263.464 116.073 263.464C112.319 253.168 115.567 243.232 115.567 243.232L118.96 241.648L124.662 256.336C129.425 259 134.044 258.064 134.044 258.064C134.044 258.064 137.725 255.184 138.736 249.856L131.085 236.032L134.477 234.448C134.477 234.448 144.221 238.336 149.707 247.768C149.707 247.768 151.294 250.936 151.367 251.44ZM169.555 317.752L163.925 313.864L157.718 316.744L157.141 323.512L162.77 327.4L168.905 324.52L169.555 317.752Z" fill="url(#paint0_linear_3357_1128)"/>
<path fill-rule="evenodd" clip-rule="evenodd" d="M147.902 265.84L167.101 312.28C170.926 312.928 174.391 315.376 176.123 319.12C179.01 325.24 176.34 332.44 170.205 335.32C164.07 338.2 156.78 335.536 153.965 329.416C152.161 325.672 152.522 321.496 154.47 318.184L131.085 273.616C123.074 274.12 117.733 267.064 117.733 267.064C114.052 256.768 117.3 246.832 117.3 246.832L120.692 245.248L126.394 260.008C131.158 262.6 135.705 261.664 135.705 261.664V261.736C135.705 261.736 139.386 258.784 140.396 253.456L132.745 239.632L136.138 238.048C136.138 238.048 145.881 241.936 151.367 251.44C151.367 251.44 153.46 260.008 147.902 265.84ZM171.215 321.352L165.658 317.464L159.451 320.344L158.873 327.184L164.431 331.072L170.638 328.192L171.215 321.352Z" fill="url(#paint1_linear_3357_1128)"/>
<path d="M115.567 243.232L117.3 246.832L120.692 245.248L118.96 241.648L115.567 243.232Z" fill="#E5E2FF"/>
<path d="M131.085 236.032L132.745 239.632L136.137 238.048L134.477 234.448L131.085 236.032Z" fill="#E5E2FF"/>
<path d="M162.771 327.4L164.431 331.072L170.638 328.192L168.905 324.52L162.771 327.4Z" fill="#E5E2FF"/>
<path fill-rule="evenodd" clip-rule="evenodd" d="M147.253 271.745L162.626 309.617C162.626 309.617 159.956 313.361 154.976 313.145L136.065 276.929C136.065 276.929 140.324 271.529 147.253 271.745ZM146.387 272.465C144.799 272.657 143.235 273.113 141.695 273.833C139.674 274.769 138.086 275.993 137.148 276.785L156.058 312.281C156.972 312.137 157.863 311.873 158.729 311.489C159.739 310.985 160.605 310.409 161.11 309.905L146.387 272.465Z" fill="url(#paint2_linear_3357_1128)"/>
<path d="M161.111 309.904L162.626 309.616C162.626 309.616 160.461 313.432 154.976 313.144L156.058 312.28C156.058 312.28 158.801 311.992 161.111 309.904Z" fill="#E5E2FF"/>
<path style="mix-blend-mode:multiply" opacity="0.6" d="M136.065 276.928L137.148 276.784C137.148 276.784 140.396 273.472 146.387 272.464L147.253 271.744C147.253 271.744 144.799 271.312 141.046 273.112C137.292 274.84 136.065 276.928 136.065 276.928Z" fill="url(#paint3_linear_3357_1128)"/>
<path style="mix-blend-mode:multiply" opacity="0.6" d="M131.085 273.616C131.085 273.616 140.179 272.032 147.902 265.84L150.356 271.744C150.356 271.744 147.541 269.008 141.478 271.528C134.333 274.408 134.694 280.168 134.694 280.168L131.085 273.616Z" fill="url(#paint4_linear_3357_1128)"/>
<path style="mix-blend-mode:screen" opacity="0.5" d="M150.356 271.744C148.624 270.52 146.603 270.448 146.603 270.448L164.936 314.512L167.101 312.28L150.356 271.744Z" fill="url(#paint5_linear_3357_1128)"/>
<path d="M150.356 271.744C150.356 271.744 148.48 277.648 153.965 280.456L150.356 271.744Z" fill="white"/>
<path d="M425.634 556.504H357.789C350.643 517.192 334.115 466 334.115 466C330.145 463.624 322.278 466.504 322.278 466.504L297.522 556.504H235.523C232.203 500.992 262.661 437.92 262.661 437.92C262.589 437.704 261.578 435.76 261.867 434.464C261.939 433.96 263.022 432.88 264.177 431.8C265.837 430.288 267.858 428.776 267.858 428.776L383.483 428.056C383.483 428.056 384.638 428.632 386.154 429.496C388.68 431.08 392.072 433.384 392.072 435.112C392.072 437.488 391.134 439.072 390.918 439.432L390.845 439.504C415.674 486.16 425.634 556.504 425.634 556.504Z" fill="url(#paint6_linear_3357_1128)"/>
<path style="mix-blend-mode:screen" opacity="0.5" d="M292.975 516.112C284.675 551.968 266.631 578.464 252.701 575.296C238.771 572.056 234.224 540.376 242.524 504.52C250.824 468.592 268.796 442.096 282.726 445.336C296.656 448.504 301.203 480.184 292.975 516.112Z" fill="url(#paint7_radial_3357_1128)"/>
<path style="mix-blend-mode:screen" opacity="0.5" d="M412.714 502.72C422.675 538.144 419.643 570.04 405.858 573.856C392.072 577.744 372.873 552.112 362.913 516.616C352.953 481.192 356.056 449.296 369.77 445.408C383.555 441.592 402.754 467.224 412.714 502.72Z" fill="url(#paint8_radial_3357_1128)"/>
<path d="M289.438 556.576L288.789 556.432C296.656 510.064 316.648 471.184 316.865 470.824L316.937 470.68L322.062 466.216L322.495 466.792L317.515 471.184C316.576 472.912 297.161 511.144 289.438 556.576Z" fill="url(#paint9_linear_3357_1128)"/>
<path d="M366.955 556.576C359.232 511.144 339.312 472.552 338.446 470.824L333.898 466.792L334.404 466.216L339.023 470.464C339.239 470.824 359.81 510.064 367.677 556.432L366.955 556.576Z" fill="url(#paint10_linear_3357_1128)"/>
<path style="mix-blend-mode:multiply" opacity="0.8" d="M392.072 435.112C392.072 437.488 391.134 439.072 390.917 439.432L390.845 439.504C366.811 444.904 348.478 467.296 348.478 467.296C361.614 492.424 383.483 556.504 383.483 556.504H357.789C350.643 517.192 334.115 466 334.115 466C330.145 463.624 322.278 466.504 322.278 466.504L297.522 556.504H281.427C287.201 518.776 304.162 472.768 304.162 472.768C287.489 453.4 262.661 437.92 262.661 437.92L259.702 436.12L261.867 434.464C272.549 444.76 307.193 458.152 308.204 458.584L264.177 431.8C265.837 430.288 267.858 428.776 267.858 428.776L383.483 428.056C383.483 428.056 384.638 428.632 386.154 429.496L354.541 446.848L392.072 435.112Z" fill="url(#paint11_linear_3357_1128)"/>
<path style="mix-blend-mode:multiply" opacity="0.8" d="M334.115 466L347.612 457.216L344.436 466L342.055 492.28L334.115 466Z" fill="url(#paint12_linear_3357_1128)"/>
<path style="mix-blend-mode:multiply" opacity="0.8" d="M322.279 466.504L308.204 458.584L278.107 445.048L316.432 470.32L318.742 479.392L322.279 466.504Z" fill="url(#paint13_linear_3357_1128)"/>
<path d="M360.965 196C361.037 196.648 361.109 196.936 361.109 196.936C360.436 199.864 359.642 202.576 358.727 205.072C355.913 213.208 352.376 218.968 349.778 222.568C347.468 225.664 345.808 227.104 345.808 227.104C324.733 220.552 314.411 199.96 310.37 189.736C310.37 189.688 310.37 189.64 310.37 189.592C309.576 187.648 309.07 186.136 308.782 185.128C308.493 184.264 308.421 183.832 308.421 183.832C308.469 183.64 308.541 183.472 308.637 183.328L308.71 183.256C309.07 182.536 309.359 181.816 309.72 181.096C312.463 175.048 314.267 169.432 315.494 164.968C316.505 161.224 317.082 158.344 317.299 156.76C317.443 155.968 317.515 155.536 317.515 155.536L327.331 160.72L361.109 178.576C360.604 181.672 360.46 184.552 360.387 187.144C360.387 188.944 360.46 190.528 360.532 191.896C360.676 193.552 360.821 194.92 360.965 195.784C360.965 195.856 360.965 195.928 360.965 196Z" fill="#FE9083"/>
<path d="M351.582 229.408C349.633 231.352 347.323 233.08 344.581 234.52C344.533 234.52 344.485 234.544 344.436 234.592C344.436 234.592 344.364 234.544 344.22 234.448C343.498 234.016 340.972 232.504 337.58 229.912C328.774 223.288 313.978 209.896 309.792 191.824C309.792 191.776 309.792 191.752 309.792 191.752C309.287 189.592 308.926 187.36 308.782 185.128C308.733 184.504 308.685 183.904 308.637 183.328C308.637 183.328 311.596 190.168 316.649 197.584C322.639 206.296 331.589 215.872 342.343 215.872C351.582 215.944 356.345 209.608 358.727 203.776C359.738 201.328 360.387 198.952 360.676 197.152C360.772 196.624 360.868 196.168 360.965 195.784C360.965 195.592 360.989 195.4 361.037 195.208C361.109 194.56 361.109 194.2 361.109 194.2C361.109 194.2 364.718 216.304 351.582 229.408Z" fill="url(#paint14_linear_3357_1128)"/>
<path style="mix-blend-mode:multiply" opacity="0.5" d="M351.582 229.408C349.633 231.352 347.323 233.08 344.581 234.52H344.436L344.22 234.448C343.498 234.016 340.972 232.504 337.58 229.912C328.774 223.288 313.978 209.896 309.792 191.824C309.792 191.776 309.792 191.752 309.792 191.752C309.287 189.592 308.926 187.36 308.782 185.128C308.733 184.504 308.685 183.904 308.637 183.328C308.637 183.328 311.596 190.168 316.649 197.584C316.649 197.584 322.495 213.568 335.126 221.488C341.405 225.448 346.241 224.872 349.777 222.568C353.242 220.264 355.551 216.16 356.923 213.136C358.222 210.04 358.655 207.232 358.727 205.072C358.727 204.592 358.727 204.16 358.727 203.776C359.738 201.328 360.387 198.952 360.676 197.152C360.772 196.624 360.868 196.168 360.965 195.784C360.965 195.592 360.989 195.4 361.037 195.208C361.109 194.56 361.109 194.2 361.109 194.2C361.109 194.2 364.718 216.304 351.582 229.408Z" fill="url(#paint15_linear_3357_1128)"/>
<path d="M432.635 360.016C432.491 360.064 432.419 360.088 432.419 360.088C431.264 360.232 427.583 359.44 422.747 355.264C422.747 355.264 422.723 355.24 422.675 355.192C422.675 355.192 422.651 355.192 422.603 355.192C418.561 351.664 413.725 345.76 408.889 336.112C399.218 316.816 396.475 303.928 396.042 301.696L395.97 301.336L390.34 310.264C386.515 321.784 379.225 369.232 379.369 371.32C379.514 373.336 385.793 383.272 385.649 384.496C385.649 384.496 385.649 384.52 385.649 384.568C385.504 385.792 382.617 388.528 381.823 391.48C381.318 393.424 385.143 399.688 387.814 404.296V404.368C389.258 406.744 390.34 408.76 390.34 409.48C390.34 411.64 383.483 422.296 383.483 422.296V428.056L383.339 428.128L383.05 428.416L382.762 428.632C380.163 430.72 369.193 437.416 334.765 439.216C293.985 441.376 266.847 428.344 266.847 428.344L268.868 422.728C268.868 422.728 266.992 421.072 266.847 420.28C266.703 419.416 268.291 417.544 268.291 417.544C268.291 417.544 264.249 415.384 264.249 412.648C264.249 409.912 272.405 401.416 272.188 394.216C271.9 386.944 265.62 380.536 264.754 376.504C263.96 372.4 275.436 362.32 275.436 362.32C265.62 331.216 263.672 289.456 263.672 289.456L261.795 287.224C261.795 287.224 250.03 314.008 239.348 327.112C238.049 328.624 236.75 330.208 235.306 331.648C232.347 334.888 229.172 337.912 226.14 340.504C218.778 346.912 212.066 351.16 210.334 350.8C207.591 350.296 196.692 328.696 197.198 306.592C197.414 296.08 203.766 284.344 210.334 274.912C211.055 273.904 211.777 272.92 212.499 271.96C217.19 265.624 221.665 260.584 223.831 258.352C224.624 257.416 225.13 256.984 225.13 256.984C225.13 256.984 223.614 252.16 222.604 247.984C222.555 247.84 222.531 247.72 222.531 247.624C222.531 247.576 222.507 247.528 222.459 247.48C222.459 247.432 222.459 247.408 222.459 247.408C221.882 244.816 221.449 242.584 221.81 242.08C222.748 240.568 228.017 238.984 228.955 237.904C229.821 236.752 233.646 218.392 236.606 216.376C239.421 214.504 244.328 213.064 260.712 206.656C261.53 206.368 262.372 206.032 263.239 205.648C281.643 198.376 299.687 189.592 299.687 189.592L306.616 181.096H309.72L308.709 183.256L308.637 183.328C309.118 185.488 309.696 187.576 310.369 189.592C310.369 189.64 310.369 189.688 310.369 189.736C319.897 219.76 344.436 229.408 344.436 229.408C361.47 216.88 361.109 196.936 361.109 196.936V194.2L364.357 195.136L366.522 200.32C366.522 200.32 370.203 206.08 384.855 212.488C387.381 213.64 390.051 215.008 392.866 216.592C406.291 224.224 421.159 235.96 422.314 238.408C422.41 238.648 422.531 239.056 422.675 239.632V239.704C424.263 245.824 427.511 268.936 430.542 277.144C432.419 282.328 435.378 285.136 437.543 286.576C437.543 286.624 437.543 286.648 437.543 286.648C439.203 287.728 440.358 288.088 440.358 288.088C440.599 289.336 440.815 290.584 441.008 291.832C447.287 331.288 435.378 358.144 432.635 360.016Z" fill="url(#paint16_linear_3357_1128)"/>
<path style="mix-blend-mode:multiply" opacity="0.5" d="M275.581 285.424L263.672 289.456L261.795 287.224C261.795 287.224 250.03 314.008 239.348 327.112C238.049 328.624 236.75 330.208 235.307 331.648C232.347 334.888 229.172 337.912 226.14 340.504L217.118 301.552L212.499 271.96C217.19 265.624 221.665 260.584 223.831 258.352C224.625 257.416 225.13 256.984 225.13 256.984C225.13 256.984 223.614 252.16 222.604 247.984C222.556 247.888 222.531 247.768 222.531 247.624C222.531 247.576 222.507 247.528 222.459 247.48C222.459 247.432 222.459 247.408 222.459 247.408C221.882 244.816 221.449 242.584 221.81 242.08C222.748 240.568 228.017 238.984 228.955 237.904C229.821 236.752 233.647 218.392 236.606 216.376C236.606 216.376 234.657 234.016 244.834 256.408L249.742 263.32L264.105 274.912C264.105 274.912 269.59 282.112 275.581 285.424Z" fill="url(#paint17_linear_3357_1128)"/>
<path d="M241.153 317.392C238.627 336.256 210.334 350.8 210.334 350.8C204.055 350.8 197.054 339.928 190.63 326.464C184.279 313 183.846 274.336 183.557 271.888C183.196 269.512 179.659 264.76 179.443 262.672C179.226 260.656 185.145 256.408 185.145 256.408V256.336L185.073 256.192C184.495 254.896 180.959 247.408 181.247 246.04C181.464 244.528 188.176 241.288 188.176 241.288L188.609 248.632C188.609 248.632 204.127 245.68 209.396 233.656L210.334 229.984L212.932 231.712V247.552C212.932 247.552 213.51 250 214.304 250C215.098 250 221.16 246.976 222.46 247.408C223.759 247.84 224.986 256.264 226.718 257.344C228.378 258.496 232.925 261.592 233.575 263.104C233.863 263.752 233.936 266.2 233.936 269.08C234.008 272.608 234.008 276.712 234.513 279.088C235.523 283.264 243.679 298.456 241.153 317.392Z" fill="url(#paint18_linear_3357_1128)"/>
<path d="M499.542 301.192C498.243 303.136 491.892 307.384 490.232 308.968C488.572 310.624 490.232 316.024 490.232 316.024C463.454 344.392 435.45 358.576 432.635 360.016C432.491 360.064 432.419 360.088 432.419 360.088C415.602 348.784 417.045 330.208 422.603 314.584C427.944 299.536 437.11 287.152 437.543 286.648C437.832 286.504 442.668 284.488 446.132 284.272C447.215 284.2 448.298 284.632 449.236 285.208C451.329 286.504 453.061 288.52 454.721 287.656C457.175 286.432 462.733 273.4 466.414 273.04C469.084 272.824 472.693 275.488 475.075 277C476.157 277.648 476.951 278.08 477.384 278.008C478.756 277.648 483.375 272.032 483.736 271.888C484.097 271.744 486.262 273.328 486.262 273.328L484.746 275.128C487.056 288.232 494.49 297.088 494.49 297.088L499.542 289.744C499.542 289.744 500.842 299.176 499.542 301.192Z" fill="url(#paint19_linear_3357_1128)"/>
<path d="M361.037 195.424C361.037 195.616 361.013 195.808 360.965 196C360.917 196.384 360.821 196.768 360.676 197.152C358.944 203.56 352.015 210.04 343.282 206.872C333.682 203.488 315.494 164.968 315.494 164.968L317.299 156.76L360.532 191.896L361.037 195.208V195.424Z" fill="#CB4D7A"/>
<path d="M217.118 188.368C217.118 188.368 214.448 173.824 215.603 163.096C216.83 152.368 215.314 140.2 215.314 140.2C215.314 140.2 212.716 139.12 210.767 140.2C208.89 141.28 204.415 152.368 206.436 161.296C208.457 170.224 206.869 191.608 206.869 191.608H203.838L197.27 182.608L194.094 181.672C194.094 181.672 175.762 198.952 176.05 209.248L178.432 218.392L201.023 217.6L215.819 200.752L217.118 188.368Z" fill="#EE8183"/>
<path d="M194.094 181.672C194.094 181.672 194.6 193.12 197.198 202.912C197.198 202.912 196.765 206.944 192.001 207.232L190.846 205.936C190.846 205.936 190.052 210.544 185.866 210.832L181.897 206.872L182.907 210.184C182.907 210.184 181.464 213.64 177.71 213.496C177.71 213.496 171.431 208.6 170.998 202.192L177.277 196.936V192.904L184.639 187.72L184.784 184.768C184.784 184.768 189.114 181.6 194.094 181.672Z" fill="url(#paint20_linear_3357_1128)"/>
<path style="mix-blend-mode:multiply" opacity="0.6" d="M215.892 160C215.892 160 214.809 162.808 213.221 163.96C211.633 165.04 207.086 165.832 207.086 165.832L206.87 191.608H203.838L197.27 182.608C197.27 182.608 200.662 187.72 200.807 191.608L198.208 192.832L195.971 185.128L194.888 190.672L195.971 197.584C195.971 197.584 199.868 194.272 206.942 194.128L207.952 196C207.952 196 195.249 206.584 192.29 212.776C192.29 212.776 198.569 204.784 212.932 196L214.304 191.752L216.108 181.672C216.108 181.672 214.376 167.128 215.892 160Z" fill="url(#paint21_linear_3357_1128)"/>
<path d="M226.573 204.856C225.418 208.384 213.004 223.144 211.633 226.312C210.262 229.48 209.395 233.656 209.395 233.656C203.333 246.832 188.609 248.632 188.609 248.632L187.887 236.752C187.887 236.752 180.02 232.216 178.648 229.768V229.696L178.504 229.264C178.071 226.96 178.432 218.392 178.432 218.392L192.29 212.776C198.28 205 212.932 196 212.932 196L213.654 191.896C203.116 186.784 204.848 171.16 206.653 169.216C208.457 167.344 211.705 167.344 211.705 167.344C211.705 167.344 215.53 179.872 217.984 185.776C220.438 191.608 227.728 201.328 226.573 204.856Z" fill="url(#paint22_linear_3357_1128)"/>
<path d="M184.783 184.768C184.783 184.768 186.299 199.096 190.846 205.936C190.846 205.936 185.072 198.808 184.639 187.72L184.783 184.768Z" fill="#E28183"/>
<path d="M177.277 192.904C177.277 192.904 178.721 204.424 185.866 210.832C185.866 210.832 179.587 207.736 177.277 196.936V192.904Z" fill="#E28183"/>
<path style="mix-blend-mode:multiply" opacity="0.9" d="M213.51 223.288C213.51 223.288 197.92 238.408 187.887 236.752L188.609 248.632C188.609 248.632 204.993 247.192 210.334 229.984C210.334 229.984 212.283 225.016 213.51 223.288Z" fill="url(#paint23_linear_3357_1128)"/>
<path d="M544.147 243.88C544.147 243.88 529.784 270.088 512.967 278.08H507.265L493.985 298.168C493.985 298.168 485.396 292.768 484.746 275.128C484.746 275.128 487.777 272.032 488.499 268.504C488.499 268.504 483.736 264.76 482.509 262.096C481.209 259.36 480.776 251.152 479.838 247.768C478.9 244.384 471.177 237.4 469.445 236.536C467.713 235.6 459.845 235.168 459.845 235.168C459.845 235.168 458.763 232.288 459.845 230.992C461 229.624 473.198 224.872 479.838 229.408C479.838 229.408 480.271 232.864 480.993 234.664C481.787 236.536 487.561 242.944 488.499 242.944C489.437 242.944 493.335 239.704 495.067 237.112C496.727 234.664 505.533 215.728 507.698 209.32C507.698 209.272 507.722 209.2 507.77 209.104C507.77 209.032 507.842 208.96 507.842 208.816C507.842 208.768 507.866 208.72 507.915 208.672C507.915 208.624 507.915 208.6 507.915 208.6C509.575 203.056 519.102 192.4 524.226 189.52C524.226 189.52 526.392 188.944 527.618 191.68C527.618 191.68 523.504 203.344 519.246 210.256C518.524 211.408 517.73 212.776 516.936 214.216C516.936 214.216 516.912 214.216 516.864 214.216C513.256 220.912 509.142 229.696 508.564 230.992L508.492 231.136L510.729 232.288L516.936 226.456L523.216 220.48L537.723 235.744L536.28 237.616L531.805 243.376L534.042 243.808L539.383 237.904L544.147 243.88Z" fill="url(#paint24_linear_3357_1128)"/>
<path style="mix-blend-mode:multiply" opacity="0.6" d="M540.826 249.424L536.207 256.192C536.207 256.192 511.018 236.752 505.533 235.168C500.047 233.512 498.098 234.592 498.098 234.592L492.397 241.792C492.397 241.792 502.79 250.936 503.728 263.32C503.728 263.32 500.264 247.696 488.499 242.944C489.437 242.944 493.335 239.704 495.067 237.112C496.727 234.664 505.533 215.728 507.698 209.32C507.409 210.4 507.048 212.56 507.914 214.216C509.141 216.52 516.431 214.36 516.864 214.216C516.912 214.216 516.936 214.216 516.936 214.216L508.564 230.992L508.492 231.136L510.729 232.288L516.936 226.456L513.833 233.656L536.279 237.616L531.805 243.376L534.042 243.808L540.826 249.424Z" fill="url(#paint25_linear_3357_1128)"/>
<path d="M523.216 220.48C523.216 220.48 527.618 219.832 530.433 225.52L529.784 227.32C529.784 227.32 534.042 228.184 538.156 235.024C538.156 235.024 534.547 241.72 525.525 244.672C525.525 244.672 521.339 243.52 520.617 239.992L521.411 237.688L518.163 240.136C518.163 240.136 514.194 241.36 512.461 235.528L523.216 220.48Z" fill="url(#paint26_linear_3357_1128)"/>
<path d="M545.446 242.08C545.446 242.08 546.384 237.904 541.909 235.168L533.248 244.672C533.248 244.672 533.537 247.768 537.29 248.416C537.29 248.416 543.208 246.4 545.446 242.08Z" fill="url(#paint27_linear_3357_1128)"/>
<path style="mix-blend-mode:multiply" opacity="0.9" d="M482.509 262.096C482.509 262.096 492.541 273.256 507.265 278.08L500.914 287.728L487.633 270.952L488.499 268.504C488.499 268.504 483.231 264.544 482.509 262.096Z" fill="url(#paint28_linear_3357_1128)"/>
<path d="M529.784 227.32C529.784 227.32 525.598 234.232 521.412 237.688L520.618 239.992C520.618 239.992 528.701 234.448 531.733 228.184C531.733 228.184 530.722 227.464 529.784 227.32Z" fill="#E28183"/>
<path style="mix-blend-mode:multiply" opacity="0.5" d="M499.543 301.192C498.243 303.136 491.892 307.384 490.232 308.968C488.572 310.624 490.232 316.024 490.232 316.024C463.455 344.392 435.45 358.576 432.636 360.016C432.491 360.064 432.419 360.088 432.419 360.088C430.254 360.376 419.572 357.352 408.89 336.112C399.218 316.816 396.475 303.928 396.042 301.696L395.97 301.336L398.28 298.168L401.816 258.856L404.27 266.776C413.581 255.616 422.314 238.408 422.314 238.408L422.675 239.632V239.704C424.263 245.824 427.511 268.936 430.542 277.144C432.419 282.328 435.378 285.136 437.543 286.576V286.648C428.955 294.424 424.696 305.656 422.603 314.584C420.726 322.72 420.582 328.984 420.582 328.984C420.582 328.984 422.964 317.896 430.398 304.576C433.141 299.752 437.11 295.36 441.008 291.832C443.967 289.168 446.854 286.936 449.236 285.208C451.329 286.504 453.061 288.52 454.721 287.656C443.462 304.504 443.751 337.912 454.288 331.576C464.898 325.168 467.28 311.704 467.28 311.704C464.826 295.216 465.548 276.64 467.569 273.112C470.023 273.184 476.951 278.08 477.385 278.008C476.735 297.376 485.829 310.264 485.829 310.264L491.892 300.976C483.086 286.288 483.736 271.888 483.736 271.888C484.097 271.744 486.262 273.328 486.262 273.328L484.746 275.128C487.056 288.232 494.49 297.088 494.49 297.088L499.543 289.744C499.543 289.744 500.842 299.176 499.543 301.192Z" fill="url(#paint29_linear_3357_1128)"/>
<path style="mix-blend-mode:multiply" opacity="0.5" d="M383.483 422.296V428.056L383.339 428.128L383.05 428.416L382.762 428.632C380.163 430.72 369.193 437.416 334.765 439.216C293.985 441.376 266.847 428.344 266.847 428.344L268.868 422.728C268.868 422.728 266.992 421.072 266.847 420.28C266.703 419.416 268.291 417.544 268.291 417.544C268.291 417.544 264.249 415.384 264.249 412.648C264.249 410.128 270.889 403 271.972 396.304C272.116 395.584 272.188 394.888 272.188 394.216C271.9 387.016 265.62 380.608 264.754 376.504C263.96 372.4 275.436 362.32 275.436 362.32C265.62 331.216 263.672 289.456 263.672 289.456L261.795 287.224C261.795 287.224 250.03 314.008 239.348 327.112C228.666 340.216 213.076 351.376 210.334 350.8C204.054 350.8 197.053 339.928 190.63 326.464C184.278 313 183.845 274.336 183.556 271.888C183.196 269.512 179.659 264.76 179.442 262.672C186.299 274.408 197.198 270.952 197.198 270.952C189.258 271.168 185.144 256.408 185.144 256.408V256.336L185.072 256.192L181.247 246.04C181.68 246.544 190.702 256.624 199.435 250.432C208.313 244.024 212.932 231.712 212.932 231.712V247.552C212.932 247.552 213.509 250 214.303 250C213.798 257.272 212.21 266.2 210.334 274.912C206.292 293.848 200.734 312.064 200.734 312.064C200.734 312.064 215.819 303.928 221.088 283.192C223.614 273.256 224.047 264.616 223.831 258.352C223.614 252.952 222.892 249.28 222.604 247.984C222.555 247.84 222.531 247.72 222.531 247.624C222.531 247.576 222.507 247.528 222.459 247.48C222.459 247.48 222.459 247.456 222.459 247.408L223.903 250.504L226.718 257.344C229.893 283.984 223.253 324.088 223.253 324.088C232.925 312.064 234.946 285.496 234.513 279.088C234.368 275.992 234.079 272.176 233.935 269.08C233.719 265.696 233.574 263.104 233.574 263.104L253.35 274.912L249.742 263.32L264.105 274.912C264.105 274.912 277.096 290.464 290.377 292.264C303.729 294.064 352.592 292.984 352.592 292.984C352.592 292.984 310.081 295.72 297.666 299.32C285.252 302.992 282.943 307.168 282.943 307.168C291.892 352.672 341.477 368.008 343.065 368.44C298.027 361.744 277.096 323.512 277.096 323.512C277.096 323.512 276.375 345.04 279.839 353.176C283.303 361.384 303.729 381.4 329.929 385.576C332.142 385.912 334.332 386.128 336.497 386.224C358.655 387.232 376.988 376 378.864 374.776C378.96 374.68 379.009 374.632 379.009 374.632C379.009 374.632 378.984 374.656 378.936 374.704C378.287 375.784 369.193 388.528 332.527 389.968C330.314 390.016 328.149 389.992 326.031 389.896C325.983 389.896 325.959 389.896 325.959 389.896C292.037 388.528 274.714 365.92 274.714 365.92C274.714 365.92 262.156 372.688 270.167 382.624C270.264 382.768 270.336 382.888 270.384 382.984C272.766 385.72 277.962 389.032 284.17 392.416C284.314 392.56 284.482 392.656 284.675 392.704C292.109 396.808 300.842 401.056 307.627 404.584C307.627 404.584 307.651 404.584 307.699 404.584C311.813 406.744 315.205 408.616 317.082 409.984C317.13 409.984 317.154 409.984 317.154 409.984C319.03 411.352 319.391 412.288 317.587 412.504C308.06 413.584 272.188 405.736 270.673 407.968C269.229 410.128 272.477 415.744 272.477 415.744C305.461 432.088 375.977 424.024 378.215 423.808C319.175 438.856 270.889 419.776 270.889 419.776L272.477 425.392C272.477 425.392 298.749 434.464 329.785 435.256C360.748 435.976 380.091 428.056 380.091 428.056L383.483 422.296Z" fill="url(#paint30_linear_3357_1128)"/>
<path style="mix-blend-mode:multiply" opacity="0.5" d="M359.305 292.768C359.305 292.768 382.762 294.064 398.28 298.168L390.34 310.264C390.34 310.264 378.287 299.68 359.305 292.768Z" fill="url(#paint31_linear_3357_1128)"/>
<path style="mix-blend-mode:multiply" opacity="0.5" d="M381.246 357.352C381.246 357.352 366.594 369.592 352.231 375.208C337.796 380.824 323.938 381.4 323.938 381.4C323.938 381.4 332.239 383.848 352.592 380.536C372.946 377.296 379.947 366.28 379.947 366.28L381.246 357.352Z" fill="url(#paint32_linear_3357_1128)"/>
<path style="mix-blend-mode:multiply" opacity="0.5" d="M387.814 404.296V404.368C360.748 411.352 326.321 401.272 326.609 400.048C326.898 398.824 335.992 400.624 357.212 396.376C377.782 392.272 385.216 385 385.649 384.568C385.505 385.792 382.618 388.528 381.824 391.48C381.318 393.424 385.144 399.688 387.814 404.296Z" fill="url(#paint33_linear_3357_1128)"/>
<path style="mix-blend-mode:multiply" opacity="0.5" d="M314.195 296.44C291.026 298.816 284.819 305.224 284.819 305.224C278.323 306.088 263.672 289.456 263.672 289.456L261.795 287.224C261.795 287.224 250.03 314.008 239.348 327.112C238.049 328.624 236.75 330.208 235.306 331.648L236.822 328.264C236.822 328.264 239.348 327.112 240.07 314.08C240.792 301.12 234.585 281.68 234.513 279.088C234.513 276.424 233.574 263.104 233.574 263.104L253.35 274.912L249.742 263.32L264.105 274.912C264.105 274.912 269.806 283.336 284.025 290.392C297.45 297.088 312.535 296.512 314.195 296.44Z" fill="url(#paint34_linear_3357_1128)"/>
<path style="mix-blend-mode:multiply" opacity="0.5" d="M261.795 287.224L275.581 285.424C275.581 285.424 281.066 289.096 292.109 293.56L282.943 307.168C282.943 307.168 286.552 326.536 297.089 337.408C297.089 337.408 269.23 322 265.26 308.968L261.795 287.224Z" fill="url(#paint35_linear_3357_1128)"/>
<path style="mix-blend-mode:multiply" opacity="0.5" d="M181.247 246.04L185.145 256.408C185.145 256.408 189.186 270.376 197.198 270.952C205.137 271.6 212.932 247.552 212.932 247.552V231.712C212.932 231.712 204.488 249.856 195.321 251.944C186.155 253.96 181.247 246.04 181.247 246.04Z" fill="url(#paint36_linear_3357_1128)"/>
<path style="mix-blend-mode:multiply" opacity="0.5" d="M228.955 237.904C228.955 237.904 236.028 252.088 244.834 256.408C244.834 256.408 234.368 231.208 236.606 216.376C236.606 216.376 232.78 218.752 228.955 237.904Z" fill="url(#paint37_linear_3357_1128)"/>
<path style="mix-blend-mode:multiply" opacity="0.8" d="M401.816 258.856L404.27 266.776L406.724 331.648C406.724 331.648 400.445 319.336 396.042 301.696L398.279 298.168C398.279 298.168 402.177 273.688 401.816 258.856Z" fill="url(#paint38_linear_3357_1128)"/>
<path style="mix-blend-mode:multiply" opacity="0.5" d="M477.384 278.008C477.384 278.008 476.013 309.832 489.582 312.568L490.232 316.024C490.232 316.024 472.693 315.376 477.384 278.008Z" fill="url(#paint39_linear_3357_1128)"/>
<path style="mix-blend-mode:multiply" opacity="0.3" d="M454.721 287.656C454.721 287.656 454.216 288.808 449.236 285.208C449.236 285.208 432.202 297.304 425.634 314.296C425.634 314.296 436.1 298.672 441.729 297.016C447.359 295.288 448.658 301.552 448.658 301.552C448.658 301.552 450.896 292.768 454.721 287.656Z" fill="url(#paint40_linear_3357_1128)"/>
<path style="mix-blend-mode:multiply" opacity="0.5" d="M179.442 262.672C179.442 262.672 186.01 274.768 198.28 271.024C198.28 271.024 190.918 275.92 183.556 271.888C183.556 271.888 178.937 264.04 179.442 262.672Z" fill="url(#paint41_linear_3357_1128)"/>
<path style="mix-blend-mode:multiply" opacity="0.5" d="M222.459 247.408C222.459 247.408 231.481 281.104 207.952 306.448C207.952 306.448 223.253 298.6 226.718 280.456C230.182 262.312 222.459 247.408 222.459 247.408Z" fill="url(#paint42_linear_3357_1128)"/>
<path style="mix-blend-mode:multiply" opacity="0.5" d="M384.35 220.48C384.35 220.48 383.339 235.672 375.977 246.616C368.688 257.488 354.18 264.904 354.18 264.904C354.18 264.904 372.368 258.208 380.741 248.776C389.113 239.344 384.35 220.48 384.35 220.48Z" fill="url(#paint43_linear_3357_1128)"/>
<path style="mix-blend-mode:multiply" opacity="0.5" d="M291.315 197.584C291.315 197.584 291.315 210.328 295.429 223.288C299.471 236.248 335.126 258.856 335.126 258.856C335.126 258.856 298.388 243.664 291.315 229.984C284.169 216.304 291.315 197.584 291.315 197.584Z" fill="url(#paint44_linear_3357_1128)"/>
<path d="M290.882 258.136V278.872C290.882 278.872 338.662 278.512 392.289 282.04L393.516 263.392C393.516 263.392 346.89 257.848 290.882 258.136Z" fill="url(#paint45_linear_3357_1128)"/>
<path style="mix-blend-mode:multiply" opacity="0.5" d="M366.522 200.32C365.368 213.712 361.326 223.072 356.923 229.336C350.932 237.976 344.437 240.928 344.437 240.928C337.941 238.12 332.311 234.592 327.475 230.776C306.905 214.36 300.265 191.608 299.76 189.736C308.421 210.616 321.196 223.36 330.868 230.488C338.663 236.248 344.437 238.408 344.437 238.408V231.712C342.897 231.136 341.405 230.488 339.962 229.768C322.928 221.2 313.978 203.344 309.792 191.824C309.792 191.776 309.792 191.752 309.792 191.752C307.483 185.488 306.616 181.096 306.616 181.096H309.72L308.71 183.256L308.637 183.328C309.119 185.488 309.696 187.576 310.37 189.592C310.37 189.64 310.37 189.688 310.37 189.736C319.897 219.76 344.437 229.408 344.437 229.408C361.47 216.88 361.109 196.936 361.109 196.936V194.2L364.357 195.136L366.522 200.32Z" fill="url(#paint46_linear_3357_1128)"/>
<path style="mix-blend-mode:multiply" opacity="0.3" d="M467.569 273.112C467.569 273.112 462.949 288.232 467.28 311.704C467.28 311.704 469.517 281.968 471.105 279.376C472.765 276.784 477.384 278.008 477.384 278.008C477.384 278.008 470.167 273.976 467.569 273.112Z" fill="url(#paint47_linear_3357_1128)"/>
<path style="mix-blend-mode:multiply" opacity="0.5" d="M422.603 355.192C418.561 351.664 413.725 345.76 408.889 336.112C399.218 316.816 396.475 303.928 396.042 301.696L398.279 298.168L401.383 268.504L404.27 266.776C404.27 266.776 414.519 255.472 422.314 238.408C422.41 238.696 422.531 239.104 422.675 239.632V239.704C424.263 245.824 427.511 268.936 430.542 277.144C432.419 282.328 435.378 285.136 437.543 286.576C437.543 286.576 419.788 312.928 418.922 331.648C418.128 348.712 421.953 354.328 422.603 355.192Z" fill="url(#paint48_linear_3357_1128)"/>
<path style="mix-blend-mode:multiply" opacity="0.5" d="M317.154 409.984C317.154 409.984 285.108 404.728 272.044 396.376C271.996 396.376 271.972 396.352 271.972 396.304C272.116 395.584 272.188 394.888 272.188 394.216C271.9 387.016 265.621 380.608 264.754 376.504C264.899 376.936 265.837 379.096 270.384 382.984C273.271 385.432 277.602 388.6 284.17 392.416C284.314 392.56 284.482 392.656 284.675 392.704C293.913 398.176 301.853 401.848 307.627 404.584C307.627 404.584 307.651 404.584 307.699 404.584C312.896 407.032 316.216 408.616 317.082 409.984C317.13 409.984 317.154 409.984 317.154 409.984Z" fill="url(#paint49_linear_3357_1128)"/>
<path style="mix-blend-mode:multiply" opacity="0.5" d="M385.649 384.568C385.504 385.792 382.617 388.528 381.823 391.48C381.823 391.48 370.059 403.864 326.609 400.048C326.898 398.824 335.992 400.624 357.211 396.376C377.782 392.272 385.216 385 385.649 384.568Z" fill="url(#paint50_linear_3357_1128)"/>
<g style="mix-blend-mode:multiply" opacity="0.5">
<path d="M392.866 216.592L365.079 225.592L356.923 229.336V229.408H351.582H344.436L339.961 229.768L337.58 229.912L330.867 230.488L327.475 230.776L294.13 218.68L288.139 216.592L260.712 206.656C261.53 206.368 262.372 206.032 263.239 205.648C281.643 198.376 299.687 189.592 299.687 189.592L306.616 181.096H309.72C312.462 175.048 314.267 169.432 315.494 164.968L317.298 156.76C317.443 155.968 317.515 155.536 317.515 155.536L327.331 160.72L360.387 187.144C360.387 188.944 360.459 190.528 360.532 191.896L361.037 195.208C361.109 194.56 361.109 194.2 361.109 194.2L364.357 195.136L366.522 200.32C366.522 200.32 370.203 206.08 384.855 212.488C387.381 213.64 390.051 215.008 392.866 216.592Z" fill="#7A4AC0"/>
</g>
<path d="M371.719 191.32C371.719 191.32 358.727 194.2 344.436 187.288C330.146 180.376 318.092 160 317.37 154.96C316.649 149.848 322.856 136.528 322.856 126.16C322.856 115.792 317.731 98.0084 326.32 88.3604C334.909 78.7124 374.245 77.2724 387.02 89.6564C387.02 89.6564 390.99 99.5204 390.99 105.136C390.99 106.504 390.773 108.448 390.412 110.752C390.268 111.616 390.124 112.552 389.979 113.488C388.824 120.256 387.237 128.536 387.958 132.136C388.247 133.432 388.68 134.584 389.113 135.664V135.736C390.701 139.336 393.011 142.216 393.444 145.384C394.021 149.488 388.464 178.576 371.719 191.32Z" fill="url(#paint51_linear_3357_1128)"/>
<path d="M322.711 123.28C322.711 123.28 319.175 114.424 310.297 114.28C310.297 114.28 305.101 116.296 304.307 120.256C304.307 120.256 306.183 134.584 308.421 141.28C310.586 147.976 318.597 146.968 318.597 146.968C318.597 146.968 325.599 136.312 322.711 123.28Z" fill="url(#paint52_linear_3357_1128)"/>
<path d="M356.923 152.44C356.923 152.44 359.882 152.224 361.109 153.16C362.408 154.096 367.027 158.632 372.946 159.856C378.792 161.08 382.762 156.04 383.989 155.824C385.288 155.536 386.659 157.336 386.659 157.336C386.659 157.336 386.082 155.248 383.051 154.384C383.051 154.384 381.824 159.064 373.307 157.48C364.79 155.824 361.109 152.08 361.109 152.08L360.676 151.288C360.676 151.288 358.294 151.792 356.923 152.44Z" fill="url(#paint53_linear_3357_1128)"/>
<path style="mix-blend-mode:multiply" opacity="0.6" d="M344.292 108.376L344.436 107.44C344.436 107.44 352.953 92.6084 369.77 92.1764C386.587 91.7444 390.412 102.256 390.412 102.256L393.516 97.5764L386.37 83.1764L337.002 82.3844L324.949 92.0324L323.433 115.72L328.774 147.04L341.766 153.952L345.447 150.712C344.075 140.272 336.28 130.696 336.28 130.696L341.982 126.736C341.982 126.736 356.634 133.792 365.079 131.632C365.079 131.632 371.43 113.128 371.069 99.4484C371.069 99.4484 349.416 102.616 344.292 108.376Z" fill="url(#paint54_linear_3357_1128)"/>
<path d="M343.57 109.456C343.57 109.456 344.364 104.128 353.458 101.968C363.563 99.5924 371.791 97.5764 371.791 97.5764C371.791 97.5764 369.987 103.408 366.594 105.64C366.594 105.64 355.912 105.28 350.499 106.504C345.086 107.728 343.57 109.456 343.57 109.456Z" fill="#38368E"/>
<path d="M390.413 102.256C390.413 102.256 385.216 106.216 381.751 115.648C381.751 115.648 385.144 111.256 388.175 111.328C390.268 111.4 389.979 113.488 389.979 113.488C389.979 113.488 392.073 107.872 390.413 102.256Z" fill="#38368E"/>
<path d="M346.962 124.648C346.962 124.648 347.54 113.344 358.583 110.464C358.583 110.464 362.552 115.576 362.985 121.336C362.985 121.336 357.067 120.256 346.962 124.648Z" fill="url(#paint55_linear_3357_1128)"/>
<path d="M378.72 129.112C378.72 129.112 379.586 120.112 384.783 116.8C384.783 116.8 388.319 119.464 387.958 126.952C387.958 126.952 384.855 125.872 378.72 129.112Z" fill="url(#paint56_linear_3357_1128)"/>
<path d="M346.962 124.648C346.962 124.648 350.571 129.04 360.604 129.904C360.604 129.904 362.552 127.024 362.336 121.264C362.336 121.264 353.097 120.4 346.962 124.648Z" fill="#FFEBED"/>
<path d="M378.72 129.112V130.48C378.72 130.48 380.235 133.72 385.793 134.224C385.793 134.224 387.597 131.416 387.742 126.952C387.742 126.952 384.205 126.016 378.72 129.112Z" fill="#FFEBED"/>
<path d="M357.717 121.048C357.717 121.048 355.191 124.144 355.407 129.04C355.407 129.04 358.727 129.832 360.604 129.904C360.604 129.904 362.841 126.88 362.336 121.264C362.336 121.264 359.449 120.688 357.717 121.048Z" fill="#7F9EC9"/>
<path d="M383.989 127.096C383.989 127.096 382.545 128.608 382.256 133.36C382.256 133.36 384.205 134.224 385.793 134.224C385.793 134.224 387.814 131.344 387.742 126.952C387.742 126.952 386.298 126.376 383.989 127.096Z" fill="#7F9EC9"/>
<path d="M356.923 129.4C356.923 129.4 355.985 123.28 359.521 120.904L362.336 121.264C362.336 121.264 363.346 126.16 360.604 129.904C360.604 129.904 357.789 129.616 356.923 129.4Z" fill="#38368E"/>
<path d="M385.216 126.808C385.216 126.808 383.917 129.544 383.339 133.792C383.339 133.792 384.35 134.152 385.793 134.224C385.793 134.224 387.742 131.848 387.742 126.952C387.742 126.952 386.226 126.52 385.216 126.808Z" fill="#38368E"/>
<path d="M346.962 124.648C346.962 124.648 353.675 120.76 365.079 122.992L362.985 121.336C362.985 121.336 354.83 118.816 346.962 124.648Z" fill="#131163"/>
<path d="M378.72 129.112C378.72 129.112 384.061 126.304 390.34 127.816L387.742 125.872C387.742 125.872 383.556 125.224 378.72 129.112Z" fill="#131163"/>
<path d="M354.18 124.648C354.18 124.648 356.057 124.216 357.645 125.872C357.645 125.872 355.407 126.52 354.18 124.648Z" fill="white"/>
<path d="M381.174 129.904C381.174 129.904 383.989 129.328 384.999 130.696C384.999 130.696 383.483 131.704 381.174 129.904Z" fill="white"/>
<path d="M347.612 125.296C347.612 125.296 352.809 130.408 361.181 131.632L361.398 128.608L360.604 129.904C360.604 129.904 352.592 129.472 347.612 125.296Z" fill="#C6659C"/>
<path d="M378.72 130.48C378.72 130.48 379.586 133.792 386.37 135.304L386.154 133.648L385.793 134.224C385.793 134.224 380.957 133.648 378.72 130.48Z" fill="#C6659C"/>
<path d="M365.079 143.728C365.079 143.728 367.605 143.224 372.224 143.728C376.915 144.304 382.112 145.528 384.999 143.728C384.999 143.728 381.174 147.544 377.926 148.12C374.606 148.696 369.626 145.816 369.626 145.816H367.46C367.46 145.816 365.728 145.024 365.079 143.728Z" fill="#CB5F7D"/>
<path d="M367.749 145.816C367.749 145.816 368.904 145.096 369.842 145.312C370.78 145.456 371.791 146.824 371.791 146.824C371.791 146.824 369.77 145.816 367.749 145.816Z" fill="#9F4A8B"/>
<path d="M384.999 143.728C386.226 142.576 379.947 131.344 376.916 130.984C373.884 130.552 371.069 143.512 371.069 143.512C371.069 143.512 375.256 144.088 379.297 144.592C383.339 145.168 384.999 143.728 384.999 143.728Z" fill="#FFBCAF"/>
<path style="mix-blend-mode:multiply" opacity="0.6" d="M389.474 108.52C387.814 108.304 381.751 115.648 381.751 115.648C381.751 115.648 377.926 127.456 378.72 130.984C379.442 134.44 388.752 136.312 388.752 136.312L389.113 135.736V135.664C388.68 134.584 388.247 133.432 387.958 132.136C387.237 128.536 388.824 120.256 389.979 113.488C389.979 113.488 390.34 112.048 390.412 110.752C390.412 109.672 390.268 108.664 389.474 108.52Z" fill="url(#paint57_linear_3357_1128)"/>
<path fill-rule="evenodd" clip-rule="evenodd" d="M392.433 153.376C392.289 154.744 387.597 183.832 374.1 192.616C374.1 192.664 374.1 192.688 374.1 192.688C374.1 192.688 361.831 195.64 343.281 188.728C343.281 188.728 322.35 176.848 317.298 156.76C317.298 156.76 316.143 152.08 318.597 146.968C318.597 146.968 322.134 145.528 323.722 136.312C325.526 126.088 320.113 119.104 320.113 119.104C320.113 119.104 320.835 113.56 319.175 107.296C317.587 100.96 314.483 94.9124 315.855 90.4484C317.226 85.9844 328.63 83.1764 333.826 78.9284C334.765 78.2084 335.486 77.4884 336.136 76.7684C336.184 76.7684 336.232 76.7444 336.28 76.6964C336.93 75.9764 337.507 75.2564 338.013 74.5364L338.59 73.8884L339.167 73.2404C340.683 71.4404 342.56 69.7124 346.529 67.9124C354.469 64.2404 360.026 63.6644 365.728 58.5524C365.776 58.5044 365.8 58.4804 365.8 58.4804C365.8 58.4804 366.089 63.6644 364.212 68.1284C364.212 68.1284 381.679 64.2404 385.793 64.2404C389.907 64.2404 391.278 77.2724 391.278 77.2724V77.3444C391.567 77.7044 396.475 84.2564 398.207 88.7924C399.218 91.2404 390.701 108.376 390.701 108.376C390.701 108.376 391.711 100.24 386.515 92.7524L384.566 94.4804C384.566 94.4804 384.494 94.3364 384.349 94.0484C383.556 92.5364 380.741 88.0004 375.833 86.7044C375.833 86.7044 375.833 87.6404 360.387 86.0564C344.941 84.4004 338.59 83.6084 334.909 87.1364C331.228 90.6644 332.599 99.0164 335.992 101.824C335.992 101.824 326.609 111.832 326.825 125.872C327.114 139.408 337.363 149.416 341.694 151.144C341.838 151.192 342.006 151.24 342.199 151.288C346.168 152.368 348.189 145.168 371.791 148.264C388.463 150.496 387.309 152.584 389.185 156.544C389.69 157.624 392.217 153.736 392.433 153.376ZM387.742 162.232C387.886 156.04 383.483 154.024 382.617 154.384C381.823 154.744 379.369 155.968 372.513 155.536C365.728 155.104 361.109 151.288 361.109 151.288C361.109 151.288 352.303 152.224 349.777 159.28C347.251 166.408 358.944 171.088 361.109 170.944C363.346 170.728 368.759 164.536 368.759 164.536C368.759 164.536 374.75 164.104 375.833 165.184C376.915 166.264 377.565 174.544 380.885 175.12C384.133 175.696 387.67 166.48 387.742 162.232Z" fill="url(#paint58_linear_3357_1128)"/>
<path d="M380.019 133.432C380.019 133.432 385.937 140.776 385.36 143.512C384.71 146.536 377.926 148.12 377.926 148.12C377.926 148.12 383.411 146.248 384.494 143.512C384.494 143.512 383.122 137.968 380.019 133.432Z" fill="#D2726C"/>
<path style="mix-blend-mode:multiply" opacity="0.6" d="M390.701 108.376C390.701 108.376 391.711 100.24 386.515 92.7524C390.629 85.2644 391.278 77.2724 391.278 77.2724V77.3444C392.722 80.8004 393.516 87.5684 393.516 87.5684L398.207 88.7924C399.218 91.2404 390.701 108.376 390.701 108.376Z" fill="url(#paint59_linear_3357_1128)"/>
<path style="mix-blend-mode:multiply" opacity="0.6" d="M384.349 94.0484C383.556 92.5364 380.741 88.0004 375.833 86.7044C375.833 86.7044 375.833 87.6404 360.387 86.0564C344.941 84.4004 338.59 83.6084 334.909 87.1364C331.228 90.6644 332.599 99.0164 335.992 101.824C335.992 101.824 326.609 111.832 326.825 125.872C327.114 139.408 337.363 149.416 341.694 151.144L341.477 152.584C341.477 152.584 342.271 183.544 349.777 186.064C357.356 188.512 373.018 187.216 374.461 188.656C375.833 190.024 374.245 192.4 374.1 192.616C374.1 192.664 374.1 192.688 374.1 192.688C374.1 192.688 361.831 195.64 343.281 188.728C343.281 188.728 322.35 176.848 317.298 156.76C317.298 156.76 316.143 152.08 318.597 146.968C318.597 146.968 322.134 145.528 323.722 136.312C325.526 126.088 320.113 119.104 320.113 119.104C320.113 119.104 320.835 113.56 319.175 107.296C317.587 100.96 314.483 94.9124 315.855 90.4484C324.588 91.8164 330.29 87.2804 330.29 87.2804C330.29 87.2804 331.878 85.1204 338.59 84.0404C345.375 82.9604 372.585 85.6964 372.585 85.6964C372.585 85.6964 369.842 83.4644 364.14 81.9524C358.727 80.5124 340.178 82.1684 338.157 82.3124C340.322 81.9524 361.325 78.3524 363.707 79.0724C366.233 79.7924 375.327 83.9684 375.327 83.9684C374.534 79.7924 366.378 69.7844 366.378 69.7844C366.378 69.7844 354.902 70.0004 347.395 71.5844C340.683 72.9524 337.002 76.0484 336.28 76.6964L338.013 74.5364L338.59 73.8884L339.167 73.2404L341.766 72.8084L354.974 67.4804C359.377 65.1044 365.079 59.2724 365.728 58.5524C365.776 58.5044 365.8 58.4804 365.8 58.4804C365.8 58.4804 366.089 63.6644 364.212 68.1284C375.327 66.7604 379.081 67.4804 379.081 67.4804C384.133 74.6084 384.349 94.0484 384.349 94.0484Z" fill="url(#paint60_linear_3357_1128)"/>
<path style="mix-blend-mode:multiply" opacity="0.5" d="M343.282 188.728C343.282 188.728 350.066 187.144 360.387 187.576C370.709 187.936 376.627 188.008 374.101 192.688C374.101 192.688 361.109 195.568 343.282 188.728Z" fill="url(#paint61_linear_3357_1128)"/>
<path d="M379.081 67.4804C379.081 67.4804 385.36 65.0324 387.814 65.4644C387.814 65.4644 386.876 64.1684 385.865 63.8804C384.783 63.5924 364.212 68.1284 364.212 68.1284C364.212 68.1284 377.06 66.6884 379.081 67.4804Z" fill="url(#paint62_linear_3357_1128)"/>
<path d="M366.378 69.7844C366.378 69.7844 365.873 76.6244 363.707 79.0724L338.157 82.3124L330.651 81.0164C330.651 81.0164 333.61 79.7924 336.786 76.0484C339.962 72.3764 356.634 68.7044 366.378 69.7844Z" fill="url(#paint63_linear_3357_1128)"/>
<path d="M391.278 77.2724C391.278 77.2724 393.371 83.9684 393.516 87.5684L398.207 88.7924C398.207 88.7924 396.764 83.6804 391.278 77.2724Z" fill="url(#paint64_linear_3357_1128)"/>
<path style="mix-blend-mode:multiply" opacity="0.8" d="M321.701 135.304C321.701 135.304 319.897 126.664 315.494 122.416C311.091 118.168 306.039 119.536 306.039 119.536C306.039 119.536 307.41 135.52 308.854 139.408C310.297 143.296 312.463 144.304 312.463 144.304C312.463 144.304 309.431 141.568 308.998 136.312C308.565 131.056 308.493 123.64 309.648 122.704C310.803 121.84 315.494 125.296 315.494 125.296C315.494 125.296 313.978 127.096 313.112 131.776C312.246 136.528 315.494 139.912 316.721 139.84C317.948 139.768 316.649 134.44 316.865 132.856C317.082 131.344 319.825 131.632 321.701 135.304Z" fill="url(#paint65_linear_3357_1128)"/>
<path style="mix-blend-mode:multiply" opacity="0.8" d="M317.298 124.576C317.298 124.576 312.462 127.744 312.968 134.224C313.545 140.704 317.226 140.416 317.226 139.048C317.226 137.68 316.504 134.152 316.937 132.208C317.298 130.264 320.474 131.128 320.474 131.128C320.474 131.128 318.381 126.016 317.298 124.576Z" fill="url(#paint66_linear_3357_1128)"/>
<path d="M392.433 153.376C392.433 153.376 386.515 180.52 374.101 192.688C374.101 192.688 388.247 187.144 392.433 153.376Z" fill="#34C7FF"/>
<path d="M385.865 63.8804C385.865 63.8804 388.969 66.3284 389.546 74.8244C390.196 83.3204 386.515 92.7524 386.515 92.7524C386.515 92.7524 391.206 85.6964 391.711 77.9204C392.145 70.2164 388.319 64.8164 385.865 63.8804Z" fill="#34C7FF"/>
<path d="M347.685 81.6644C347.685 81.6644 354.974 84.1124 362.986 84.8324C370.925 85.5524 372.585 85.6964 372.585 85.6964C372.585 85.6964 369.409 82.6004 362.553 81.6644C355.696 80.7284 347.685 81.6644 347.685 81.6644Z" fill="url(#paint67_linear_3357_1128)"/>
<path d="M382.906 153.952C382.906 153.952 386.371 153.952 387.742 158.344C388.825 161.8 389.185 164.824 389.185 164.824L390.412 160C390.412 160 388.752 153.952 387.092 152.584C385.865 151.648 383.844 150.64 382.834 150.856L382.906 153.952Z" fill="url(#paint68_linear_3357_1128)"/>
<path d="M373.523 149.632L374.101 154.816C374.101 154.816 378.359 155.104 381.174 153.952L381.679 150.856C381.679 150.856 376.266 149.488 373.523 149.632Z" fill="url(#paint69_linear_3357_1128)"/>
<path d="M392.866 216.592C392.866 216.592 417.767 234.736 420.943 240.928C424.191 247.192 425.49 266.704 429.892 275.2C429.892 275.2 426.861 261.376 424.768 250.504C422.675 239.632 423.18 239.488 422.025 236.824C420.87 234.16 402.321 221.344 392.866 216.592Z" fill="#34C7FF"/>
<path d="M388.392 317.464C388.392 317.464 376.411 368.656 376.988 372.112C377.565 375.568 385.288 382.624 385.649 384.568C385.649 384.568 379.731 392.488 380.019 394.216C380.236 396.016 390.413 407.104 390.124 410.488C390.052 411.496 383.484 422.296 383.484 422.296C383.484 422.296 390.918 411.712 391.279 409.984C391.64 408.328 382.185 394.144 381.896 392.704C381.174 388.96 386.587 386.224 386.804 383.776C386.948 381.328 379.442 375.28 379.37 371.32C379.298 367.288 388.392 317.464 388.392 317.464Z" fill="#34C7FF"/>
<path d="M390.846 439.504C390.846 439.504 416.757 497.968 425.634 556.504C425.634 556.504 424.119 499.408 390.846 439.504Z" fill="#34C7FF"/>
<path d="M226.574 204.856C226.574 204.856 219.861 203.416 217.119 197.584C214.304 191.752 216.108 183.328 216.108 183.328C216.108 183.328 221.377 193.336 223.975 196.792C226.574 200.248 227.295 204.136 226.574 204.856Z" fill="#FFBCAF"/>
<path opacity="0.6" d="M433.43 174.328L438.121 306.52C438.265 311.776 442.596 315.952 447.865 315.952H676.085C681.426 315.952 685.756 311.704 685.901 306.448L689.076 172.672C689.221 167.2 684.746 162.664 679.26 162.736L443.101 164.248C437.616 164.32 433.213 168.856 433.43 174.328Z" fill="#36D1F7"/>
<path fill-rule="evenodd" clip-rule="evenodd" d="M676.085 316.312H447.865C442.379 316.312 437.904 311.992 437.76 306.52L433.069 174.328C432.996 171.592 434.007 169 435.883 166.984C437.832 165.04 440.358 163.96 443.101 163.888L679.26 162.376C682.003 162.376 684.601 163.384 686.55 165.4C688.499 167.344 689.509 169.936 689.437 172.672L686.261 306.448C686.117 311.992 681.642 316.312 676.085 316.312ZM679.332 163.096C679.284 163.096 679.26 163.096 679.26 163.096L443.173 164.608C440.575 164.68 438.193 165.688 436.389 167.488C434.656 169.36 433.718 171.808 433.79 174.328L438.482 306.52C438.626 311.632 442.74 315.592 447.865 315.592H676.085C681.209 315.592 685.395 311.488 685.54 306.448L688.715 172.672C688.787 170.152 687.849 167.704 686.045 165.904C684.24 164.104 681.859 163.096 679.332 163.096Z" fill="#744CA2"/>
<path style="mix-blend-mode:multiply" opacity="0.6" d="M433.79 181.096H688.788L689.221 174.112C689.581 167.92 684.601 162.736 678.466 162.808L442.451 164.68C437.471 164.68 433.574 168.784 433.646 173.68L433.79 181.096Z" fill="url(#paint70_linear_3357_1128)"/>
<path style="mix-blend-mode:multiply" opacity="0.3" d="M446.638 191.752V268.216H524.66V191.32L446.638 191.752Z" fill="url(#paint71_linear_3357_1128)"/>
<path style="mix-blend-mode:multiply" opacity="0.3" d="M634.078 230.776H600.083V196.864H634.078V230.776Z" fill="url(#paint72_linear_3357_1128)"/>
<path style="mix-blend-mode:multiply" opacity="0.3" d="M674.136 230.776H640.141V196.864H674.136V230.776Z" fill="url(#paint73_linear_3357_1128)"/>
<path style="mix-blend-mode:multiply" opacity="0.3" d="M593.299 230.776H559.376V196.864H593.299V230.776Z" fill="url(#paint74_linear_3357_1128)"/>
<g style="mix-blend-mode:multiply">
<path d="M674.136 258.64H587.308V250.504H674.136V258.64Z" fill="#D1D4FB"/>
</g>
<g style="mix-blend-mode:multiply">
<path d="M674.136 265.336H565.583V262.816H674.136V265.336Z" fill="#D1D4FB"/>
</g>
<g style="mix-blend-mode:multiply">
<path d="M587.38 237.616H566.594V235.096H587.38V237.616Z" fill="#D1D4FB"/>
</g>
<g style="mix-blend-mode:multiply">
<path d="M627.438 237.616H606.724V235.096H627.438V237.616Z" fill="#D1D4FB"/>
</g>
<g style="mix-blend-mode:multiply">
<path d="M667.496 237.616H646.781V235.096H667.496V237.616Z" fill="#D1D4FB"/>
</g>
<g style="mix-blend-mode:multiply">
<path d="M594.31 269.44H559.376V266.92H594.31V269.44Z" fill="#D1D4FB"/>
</g>
<g style="mix-blend-mode:multiply">
<path d="M674.136 273.472H565.583V270.952H674.136V273.472Z" fill="#D1D4FB"/>
</g>
<g style="mix-blend-mode:multiply">
<path d="M674.136 277.504H559.376V274.984H674.136V277.504Z" fill="#D1D4FB"/>
</g>
<g style="mix-blend-mode:multiply">
<path d="M674.136 281.536H559.376V279.016H674.136V281.536Z" fill="#D1D4FB"/>
</g>
<g style="mix-blend-mode:multiply">
<path d="M674.136 297.88H565.583V295.36H674.136V297.88Z" fill="#D1D4FB"/>
</g>
<g style="mix-blend-mode:multiply">
<path d="M674.136 301.912H559.376V299.392H674.136V301.912Z" fill="#D1D4FB"/>
</g>
<g style="mix-blend-mode:multiply">
<path d="M674.136 305.944H559.376V303.424H674.136V305.944Z" fill="#D1D4FB"/>
</g>
<g style="mix-blend-mode:multiply">
<path d="M669.517 285.568H559.376V283.048H669.517V285.568Z" fill="#D1D4FB"/>
</g>
<g style="mix-blend-mode:multiply">
<path d="M674.136 289.6H565.583V287.08H674.136V289.6Z" fill="#D1D4FB"/>
</g>
<g style="mix-blend-mode:multiply">
<path d="M652.339 293.632H559.376V291.112H652.339V293.632Z" fill="#D1D4FB"/>
</g>
<g style="mix-blend-mode:soft-light">
<path fill-rule="evenodd" clip-rule="evenodd" d="M468.507 252.88C456.237 252.88 446.277 242.944 446.277 230.776C446.277 218.536 456.237 208.6 468.507 208.6C480.705 208.6 490.665 218.536 490.665 230.776C490.665 242.944 480.705 252.88 468.507 252.88ZM468.507 210.04C457.031 210.04 447.72 219.328 447.72 230.776C447.72 242.152 457.031 251.44 468.507 251.44C479.911 251.44 489.221 242.152 489.221 230.776C489.221 219.328 479.911 210.04 468.507 210.04Z" fill="#E0FFFF"/>
</g>
<path d="M480.56 230.776C480.56 237.4 475.147 242.8 468.507 242.8C461.795 242.8 456.381 237.4 456.381 230.776C456.381 224.08 461.795 218.68 468.507 218.68C475.147 218.68 480.56 224.08 480.56 230.776Z" fill="white"/>
<g style="mix-blend-mode:soft-light">
<path fill-rule="evenodd" clip-rule="evenodd" d="M524.66 213.496C512.39 213.496 502.43 203.56 502.43 191.32C502.43 179.152 512.39 169.216 524.66 169.216C536.93 169.216 546.89 179.152 546.89 191.32C546.89 203.56 536.93 213.496 524.66 213.496ZM524.66 170.656C513.184 170.656 503.873 179.944 503.873 191.32C503.873 202.768 513.184 212.056 524.66 212.056C536.136 212.056 545.446 202.768 545.446 191.32C545.446 179.944 536.136 170.656 524.66 170.656Z" fill="#E0FFFF"/>
</g>
<path d="M535.991 191.32C535.991 197.584 530.939 202.696 524.66 202.696C518.38 202.696 513.328 197.584 513.328 191.32C513.328 185.056 518.38 180.016 524.66 180.016C530.939 180.016 535.991 185.056 535.991 191.32Z" fill="white"/>
<g style="mix-blend-mode:soft-light">
<path d="M442.74 170.728L444.328 168.28L453.134 175.912L451.762 177.784L442.74 170.728Z" fill="white"/>
<path d="M453.35 170.728L451.69 168.28L442.957 175.912L444.256 177.784L453.35 170.728Z" fill="white"/>
</g>
<path d="M682.653 173.824H604.053V169.936H682.653V173.824Z" fill="white"/>
<path d="M190.486 113.128V147.184L231.265 147.544L231.843 112.048L190.486 113.128Z" fill="url(#paint75_linear_3357_1128)"/>
<path d="M231.843 112.048L234.513 116.512L233.142 147.472L231.265 147.544L231.843 112.048Z" fill="url(#paint76_linear_3357_1128)"/>
<path d="M197.775 124.648L201.529 119.176L221.882 136.24L218.779 140.416L197.775 124.648Z" fill="white"/>
<path d="M222.46 124.648L218.634 119.176L198.281 136.24L201.384 140.416L222.46 124.648Z" fill="white"/>
<path opacity="0.8" d="M285.613 513.592H146.097C139.89 513.592 134.766 508.624 134.621 502.432L132.023 388.24C131.879 381.832 137.075 376.576 143.499 376.576H288.789C295.212 376.576 300.409 381.832 300.193 388.24L297.089 502.504C296.873 508.624 291.82 513.592 285.613 513.592Z" fill="url(#paint77_linear_3357_1128)"/>
<path fill-rule="evenodd" clip-rule="evenodd" d="M285.613 513.952H146.097C139.746 513.952 134.405 508.768 134.261 502.432L131.662 388.24C131.59 385.072 132.817 382.048 135.054 379.744C137.292 377.44 140.251 376.216 143.499 376.216H288.789C291.965 376.216 294.996 377.44 297.233 379.744C299.471 382.048 300.626 385.072 300.554 388.312L297.45 502.504C297.234 508.912 292.109 513.952 285.613 513.952ZM143.499 376.936C140.468 376.936 137.653 378.088 135.56 380.248C133.467 382.408 132.312 385.216 132.384 388.24L134.982 502.432C135.127 508.336 140.107 513.232 146.097 513.232H285.613C291.676 513.232 296.512 508.48 296.728 502.432L299.832 388.24C299.904 385.288 298.821 382.408 296.728 380.248C294.635 378.088 291.82 376.936 288.789 376.936H143.499Z" fill="#473DA2"/>
<path d="M243.029 403.072H169.626V399.904H243.029V403.072Z" fill="white"/>
<path d="M206.364 410.704H169.626V407.536H206.364V410.704Z" fill="white"/>
<path d="M206.364 417.04H169.626V413.944H206.364V417.04Z" fill="white"/>
<path d="M239.709 417.04H210.478V413.944H239.709V417.04Z" fill="white"/>
<path d="M228.811 423.376H169.626V420.28H228.811V423.376Z" fill="white"/>
<path d="M190.702 429.784H169.626V426.616H190.702V429.784Z" fill="white"/>
<path d="M231.481 448.864H195.032V445.768H231.481V448.864Z" fill="white"/>
<path d="M235.667 436.12H169.626V433.024H235.667V436.12Z" fill="white"/>
<path d="M220.438 442.528H169.626V439.36H220.438V442.528Z" fill="white"/>
<path d="M193.517 448.864H169.626V445.768H193.517V448.864Z" fill="white"/>
<path d="M206.364 455.272H169.626V452.104H206.364V455.272Z" fill="white"/>
<path d="M180.164 461.608H169.626V458.44H180.164V461.608Z" fill="white"/>
<path d="M222.748 461.608H184.495V458.44H222.748V461.608Z" fill="white"/>
<path d="M231.481 467.8H195.032V464.632H231.481V467.8Z" fill="white"/>
<path d="M193.517 467.8H169.626V464.632H193.517V467.8Z" fill="white"/>
<path d="M206.364 474.136H169.626V471.04H206.364V474.136Z" fill="white"/>
<path d="M180.164 480.544H169.626V477.376H180.164V480.544Z" fill="white"/>
<path d="M222.748 480.544H184.495V477.376H222.748V480.544Z" fill="white"/>
<path d="M660.134 137.248C660.134 140.776 657.247 143.656 653.71 143.656C650.174 143.656 647.287 140.776 647.287 137.248C647.287 133.648 650.174 130.768 653.71 130.768C657.247 130.768 660.134 133.648 660.134 137.248Z" fill="url(#paint78_linear_3357_1128)"/>
<path d="M55.4449 286.504C55.4449 290.896 51.9083 294.496 47.4334 294.496C43.0307 294.496 39.4219 290.896 39.4219 286.504C39.4219 282.04 43.0307 278.44 47.4334 278.44C51.9083 278.44 55.4449 282.04 55.4449 286.504Z" fill="url(#paint79_linear_3357_1128)"/>
<path d="M679.116 137.248C679.116 140.776 676.229 143.656 672.62 143.656C669.083 143.656 666.196 140.776 666.196 137.248C666.196 133.648 669.083 130.768 672.62 130.768C676.229 130.768 679.116 133.648 679.116 137.248Z" fill="url(#paint80_linear_3357_1128)"/>
<path d="M261.218 181.456C261.218 183.976 259.197 186.064 256.671 186.064C254.145 186.064 252.124 183.976 252.124 181.456C252.124 178.936 254.145 176.92 256.671 176.92C259.197 176.92 261.218 178.936 261.218 181.456Z" fill="url(#paint81_linear_3357_1128)"/>
<path d="M566.738 382.264C566.738 384.784 564.717 386.8 562.191 386.8C559.665 386.8 557.644 384.784 557.644 382.264C557.644 379.744 559.665 377.728 562.191 377.728C564.717 377.728 566.738 379.744 566.738 382.264Z" fill="url(#paint82_linear_3357_1128)"/>
<path d="M92.0377 427.625C92.0377 429.857 90.2333 431.729 87.9959 431.729C85.7584 431.729 83.8818 429.857 83.8818 427.625C83.8818 425.393 85.7584 423.593 87.9959 423.593C90.2333 423.593 92.0377 425.393 92.0377 427.625Z" fill="url(#paint83_linear_3357_1128)"/>
<path opacity="0.7" d="M157.502 387.664H87.058C81.3561 387.664 76.7369 383.2 76.5204 377.584L75.0047 331.36C74.7881 325.384 79.5517 320.488 85.4702 320.488H158.873C164.864 320.488 169.627 325.384 169.411 331.288L167.967 377.512C167.823 383.2 163.204 387.664 157.502 387.664Z" fill="url(#paint84_linear_3357_1128)"/>
<path fill-rule="evenodd" clip-rule="evenodd" d="M157.501 388.024H87.0579C81.1395 388.024 76.3759 383.416 76.1593 377.584L74.6436 331.36C74.4993 328.408 75.5819 325.6 77.675 323.44C79.7681 321.28 82.5108 320.128 85.47 320.128H158.945C161.904 320.128 164.647 321.28 166.74 323.44C168.761 325.528 169.844 328.336 169.771 331.288L168.328 377.512C168.184 383.416 163.42 388.024 157.501 388.024ZM85.47 320.848C82.7273 320.848 80.129 321.928 78.1803 323.944C76.2315 325.96 75.221 328.552 75.3654 331.36L76.8811 377.512C77.0976 383.056 81.5725 387.304 87.0579 387.304H157.501C162.987 387.304 167.462 383.056 167.606 377.512L169.05 331.288C169.122 328.552 168.111 325.888 166.163 323.944C164.286 321.928 161.688 320.848 158.945 320.848H85.47Z" fill="#953DA2"/>
<path d="M105.824 337.12L88.4292 357.208L106.184 372.184V364.408L95.9355 355.624L105.391 344.896L105.824 337.12Z" fill="white"/>
<path d="M136.354 337.984L153.749 358.072L136.065 373.048V365.344L146.242 356.488L134.911 344.464L136.354 337.984Z" fill="white"/>
<path d="M109.649 372.184L124.734 338.92H131.879L114.701 372.184H109.649Z" fill="white"/>
<path opacity="0.7" d="M631.408 482.776H543.281C536.208 482.776 530.434 477.232 530.145 470.104L528.196 412.288C527.98 404.872 533.898 398.752 541.332 398.752H633.212C640.646 398.752 646.565 404.872 646.348 412.288L644.616 470.104C644.399 477.16 638.553 482.776 631.408 482.776Z" fill="url(#paint85_linear_3357_1128)"/>
<path fill-rule="evenodd" clip-rule="evenodd" d="M631.408 483.136H543.281C535.991 483.136 530.073 477.448 529.784 470.176L527.835 412.288C527.763 408.616 529.062 405.16 531.661 402.496C534.187 399.832 537.651 398.392 541.332 398.392H633.212C636.893 398.392 640.357 399.832 642.884 402.496C645.482 405.088 646.853 408.616 646.709 412.288L644.977 470.104C644.688 477.448 638.77 483.136 631.408 483.136ZM541.332 399.112C537.868 399.112 534.62 400.48 532.166 403C529.712 405.52 528.485 408.832 528.557 412.288L530.506 470.104C530.795 477.016 536.352 482.416 543.281 482.416H631.408C638.409 482.416 644.038 477.016 644.255 470.104L645.987 412.288C646.132 408.76 644.832 405.448 642.378 403C639.997 400.48 636.676 399.112 633.212 399.112H541.332Z" fill="#953DA2"/>
<g style="mix-blend-mode:multiply">
<path d="M626.572 455.848H545.879V408.04H626.572V455.848Z" fill="#D1D4FB"/>
</g>
<path d="M579.08 419.92V444.04L599.722 430.864L579.08 419.92Z" fill="white"/>
<g style="mix-blend-mode:multiply">
<path d="M626.572 469.024H545.879V464.704H626.572V469.024Z" fill="#D1D4FB"/>
</g>
<path d="M566.738 464.704V469.024H545.879V464.704H566.738Z" fill="white"/>
<path fill-rule="evenodd" clip-rule="evenodd" d="M493.913 416.824C492.854 418.504 491.723 420.04 490.52 421.432L492.541 427.048L484.025 433.456L483.158 427.12C481.426 427.912 479.622 428.344 477.962 428.344L477.096 431.224L475.941 435.472L468.362 432.52L471.249 425.824C469.95 424.744 468.868 423.304 468.002 421.576L463.238 426.04L461 415.456L465.981 412.36C465.908 410.056 466.053 407.608 466.558 405.016L461.867 404.224L466.269 392.2L470.383 394.504C471.61 392.272 472.982 390.256 474.497 388.528L472.549 382.84L481.065 376.432L481.931 382.84C483.664 382.048 485.396 381.616 487.128 381.616L489.005 374.848L496.728 377.368L493.768 384.064C494.057 384.304 494.346 384.568 494.634 384.856C495.597 385.864 496.391 387.04 497.016 388.384L501.78 383.848L504.017 394.432L499.109 397.528C499.181 399.472 499.037 401.488 498.676 403.576C498.628 404.008 498.556 404.44 498.46 404.872L503.223 405.664L498.821 417.688L494.707 415.384C494.418 415.864 494.153 416.344 493.913 416.824ZM482.509 404.944L486.767 392.92C488.211 394 484.891 398.32 482.509 404.944ZM478.323 416.968C479.405 416.68 480.199 411.64 482.509 405.016L478.323 416.968Z" fill="url(#paint86_linear_3357_1128)"/>
<path fill-rule="evenodd" clip-rule="evenodd" d="M493.913 416.824L487.272 420.856L492.541 427.048L484.025 433.456L477.096 431.224L473.126 429.928L474.209 432.016L475.941 435.472L465.042 431.944L457.464 428.992L459.918 423.376L452.339 422.512L456.309 408.256L464.248 386.296L461.65 379.312L470.167 372.904L476.807 376.072L478.178 370.888L485.829 373.84L489.005 374.848L496.727 377.368L494.634 381.544L501.78 383.848L503.44 394.144L498.46 396.592L497.954 403.216L498.676 403.576L503.223 405.664L498.821 417.688L493.913 416.824ZM490.881 380.32L492.902 385.144L494.634 381.544L490.881 380.32ZM478.323 417.04L482.509 405.016L486.767 392.992C482.509 391.48 477.168 395.656 474.858 402.352C472.549 408.976 474.064 415.528 478.323 417.04Z" fill="url(#paint87_linear_3357_1128)"/>
<path fill-rule="evenodd" clip-rule="evenodd" d="M483.808 411.856C482.581 414.088 481.21 416.104 479.622 417.904L481.643 423.52L473.126 429.928L472.26 423.592C470.528 424.384 468.796 424.744 467.063 424.816L465.042 431.944L457.464 428.992L460.351 422.296C459.052 421.216 457.969 419.704 457.103 417.976L452.339 422.512L450.102 411.928L455.082 408.832C455.01 406.528 455.227 404.008 455.732 401.488L450.968 400.696L455.371 388.672L459.485 390.976C460.712 388.744 462.083 386.728 463.599 385L461.65 379.312L470.167 372.904L471.033 379.24C472.765 378.52 474.497 378.088 476.23 378.088L478.178 370.888L485.829 373.84L482.87 380.536C484.241 381.616 485.324 383.128 486.118 384.856L490.881 380.32L493.191 390.904L488.211 394C488.283 396.304 488.067 398.824 487.561 401.344L492.325 402.136L487.922 414.16L483.808 411.856ZM479.261 404.08C481.571 397.456 480.055 390.904 475.869 389.392C471.61 387.952 466.269 392.128 463.96 398.752C461.65 405.376 463.166 411.928 467.424 413.44C471.61 414.952 476.951 410.704 479.261 404.08Z" fill="url(#paint88_linear_3357_1128)"/>
<g style="mix-blend-mode:multiply" opacity="0.5">
<path d="M504.017 394.432L493.191 390.904L488.211 394L499.109 397.528L504.017 394.432Z" fill="#601734"/>
</g>
<g style="mix-blend-mode:soft-light">
<path d="M492.542 427.048L481.643 423.52L479.622 417.904L490.521 421.432L492.542 427.048Z" fill="#B3D9FF"/>
</g>
<g style="mix-blend-mode:multiply" opacity="0.5">
<path d="M482.87 380.536L488.86 382.264L490.881 380.32L494.851 381.616L496.727 377.368L485.829 373.84L482.87 380.536Z" fill="#601734"/>
</g>
<g style="mix-blend-mode:multiply" opacity="0.5">
<path d="M467.063 424.816L472.765 427.12L472.26 423.592C472.26 423.592 469.229 425.176 467.063 424.816Z" fill="#601734"/>
</g>
<g style="mix-blend-mode:multiply" opacity="0.5">
<path d="M467.93 392.2L477.529 397.24C477.529 397.24 478.9 395.44 479.983 394.648C479.983 394.648 477.457 384.064 467.93 392.2Z" fill="#601734"/>
</g>
<path d="M247.432 33.7124L256.671 52.2164L250.464 55.0244L241.803 38.0324L247.432 33.7124Z" fill="#FF1D9C"/>
<path d="M38.9165 464.776L47.5054 474.136L50.8255 470.32L42.7418 461.392L38.9165 464.776Z" fill="#6877FF"/>
<path d="M474.498 146.608L465.909 151.864L462.444 145.312L471.899 139.84L474.498 146.608Z" fill="#4F31E0"/>
<path d="M517.009 477.448L504.667 486.16L501.203 479.68L513.184 472.624L517.009 477.448Z" fill="#4F31E0"/>
<path d="M500.698 101.896L498.604 53.4404H562.191L559.593 101.752L500.698 101.896Z" fill="url(#paint89_linear_3357_1128)"/>
<path d="M498.604 53.4404L496.656 56.2484L498.604 101.896H500.698L498.604 53.4404Z" fill="url(#paint90_linear_3357_1128)"/>
<path d="M519.68 63.0884L509.72 62.0084L511.091 95.2724L519.68 94.4084V90.9524L514.7 91.0964L514.122 65.4644L519.68 65.6084V63.0884Z" fill="white"/>
<path d="M540.178 63.0884L550.138 62.0084L548.767 95.2724L540.178 94.4084V90.9524L545.158 91.0964L545.735 65.4644L540.178 65.6084V63.0884Z" fill="white"/>
<path d="M90.1046 142.623L91.5481 109.575H48.1704L49.9748 142.479L90.1046 142.623Z" fill="url(#paint91_linear_3357_1128)"/>
<path d="M91.548 109.575L92.8472 111.519L91.548 142.623H90.1045L91.548 109.575Z" fill="url(#paint92_linear_3357_1128)"/>
<path d="M74.8032 116.199C74.8032 116.199 79.5668 116.055 80.4329 116.415C81.2268 116.775 80.2164 124.551 80.2164 124.551L82.0929 126.279L80.3607 127.935C80.3607 127.935 80.4329 135.783 79.2781 136.431C78.1954 137.079 74.3701 136.431 74.3701 136.431V134.487C74.3701 134.487 77.4737 134.703 77.9789 134.271C78.4841 133.839 78.4841 126.999 78.4841 126.999L79.2781 126.135L78.4841 125.127C78.4841 125.127 78.6285 120.231 78.5563 118.863C78.4841 117.999 74.8032 117.927 74.8032 117.927V116.199Z" fill="white"/>
<path d="M63.9046 116.199C63.9046 116.199 59.2132 116.055 58.3471 116.415C57.4809 116.775 58.5636 124.551 58.5636 124.551L56.687 126.279L58.4192 127.935C58.4192 127.935 58.3471 135.783 59.4297 136.431C60.5845 137.079 64.4098 136.431 64.4098 136.431V134.487C64.4098 134.487 61.3063 134.703 60.801 134.271C60.2236 133.839 60.2958 126.999 60.2958 126.999L59.4297 126.135L60.2958 125.127C60.2958 125.127 60.1515 120.231 60.2236 118.863C60.2958 117.999 63.9046 117.927 63.9046 117.927V116.199Z" fill="white"/>
<path fill-rule="evenodd" clip-rule="evenodd" d="M427.944 106.288L417.334 78.4964L444.906 84.2564L427.944 106.288ZM418.417 79.5044L428.161 104.848L443.606 84.7604L418.417 79.5044Z" fill="#744CA2"/>
<path d="M504.09 499.624L503.513 499.192L512.896 486.52L513.473 486.952L504.09 499.624Z" fill="#744CA2"/>
<path d="M416.468 382.48L406.436 370.024L407.013 369.592L417.046 382.048L416.468 382.48Z" fill="#744CA2"/>
<path d="M107.123 469.961L87.0581 455.417L87.4912 454.841L107.556 469.385L107.123 469.961Z" fill="#744CA2"/>
<path d="M90.0896 472.408L89.5122 471.976L104.525 452.392L105.102 452.824L90.0896 472.408Z" fill="#744CA2"/>
<path d="M74.7881 257.488L61.8687 250.72L62.1574 250.072L75.149 256.912L74.7881 257.488Z" fill="#744CA2"/>
<path d="M572.585 83.2484L572.08 82.8164L587.02 65.7524L587.525 66.2564L572.585 83.2484Z" fill="#744CA2"/>
<path d="M287.851 138.184L281.139 124.792L281.788 124.504L288.428 137.896L287.851 138.184Z" fill="#744CA2"/>
<path d="M175.69 365.2L175.257 364.696L192.435 350.296L192.868 350.872L175.69 365.2Z" fill="#744CA2"/>
<path d="M325.865 274.459C328.399 274.521 330.585 276.143 330.504 279.474C330.422 282.805 328.158 284.318 325.625 284.256L318.515 284.082L318.755 274.285L325.865 274.459ZM324.725 282.119C326.629 282.166 327.926 281.792 327.984 279.413C328.043 277.033 326.765 276.596 324.862 276.549L321.223 276.46L321.086 282.03L324.725 282.119ZM336.837 282.725C338.489 282.765 339.504 282.482 340.127 281.657L342.506 281.715C341.909 283.801 339.841 284.745 336.79 284.67C333.655 284.593 331.25 283.302 331.324 280.279C331.398 277.242 333.794 276.068 337.139 276.15C340.274 276.227 342.753 277.366 342.661 281.117L333.759 280.899C333.993 282.221 335.242 282.686 336.837 282.725ZM337.08 277.969C335.443 277.929 334.287 278.223 333.881 279.375L340.137 279.529C339.759 278.357 338.592 278.006 337.08 277.969ZM351.375 276.639L354.034 276.705L349.647 284.845L346.232 284.762L342.264 276.416L344.923 276.481L347.995 283.11L351.375 276.639ZM359.02 283.269C360.672 283.309 361.687 283.026 362.309 282.201L364.689 282.26C364.091 284.345 362.024 285.289 358.973 285.214C355.837 285.137 353.432 283.846 353.507 280.823C353.581 277.786 355.977 276.612 359.322 276.694C362.457 276.771 364.935 277.91 364.843 281.661L355.942 281.443C356.176 282.765 357.425 283.23 359.02 283.269ZM359.263 278.513C357.625 278.473 356.47 278.767 356.063 279.919L362.32 280.073C361.942 278.901 360.774 278.55 359.263 278.513ZM365.944 274.042L368.337 274.101L368.062 285.297L365.669 285.238L365.944 274.042ZM374.68 285.6C371.265 285.516 369 284.228 369.074 281.205C369.149 278.168 371.474 276.992 374.889 277.076C378.29 277.16 380.569 278.448 380.495 281.485C380.421 284.508 378.081 285.683 374.68 285.6ZM374.729 283.598C376.94 283.652 378.046 283.133 378.087 281.426C378.13 279.704 377.051 279.132 374.84 279.077C372.615 279.023 371.51 279.542 371.467 281.263C371.426 282.971 372.504 283.544 374.729 283.598ZM388.019 277.398C390.678 277.463 392.904 278.638 392.826 281.787C392.749 284.936 390.469 285.987 387.809 285.922C386.032 285.878 384.616 285.367 383.743 284.407L383.626 289.18L381.219 289.121L381.507 277.378L383.914 277.438L383.883 278.711C384.801 277.809 386.241 277.355 388.019 277.398ZM387.061 283.901C389.202 283.953 390.393 283.352 390.433 281.729C390.473 280.091 389.313 279.433 387.172 279.38C385.03 279.327 383.853 279.929 383.813 281.566C383.773 283.19 384.919 283.848 387.061 283.901Z" fill="white"/>
<defs>
<linearGradient id="paint0_linear_3357_1128" x1="65.5496" y1="332.872" x2="65.5496" y2="234.448" gradientUnits="userSpaceOnUse">
<stop stop-color="#DBCCFF"/>
<stop offset="1" stop-color="#D1BBFF"/>
</linearGradient>
<linearGradient id="paint1_linear_3357_1128" x1="67.282" y1="336.472" x2="67.282" y2="238.048" gradientUnits="userSpaceOnUse">
<stop stop-color="#B5A6E7"/>
<stop offset="1" stop-color="#7760BF"/>
</linearGradient>
<linearGradient id="paint2_linear_3357_1128" x1="116.794" y1="313.145" x2="116.794" y2="271.745" gradientUnits="userSpaceOnUse">
<stop stop-color="#B5A6E7"/>
<stop offset="1" stop-color="#7760BF"/>
</linearGradient>
<linearGradient id="paint3_linear_3357_1128" x1="135.488" y1="275.704" x2="146.593" y2="270.5" gradientUnits="userSpaceOnUse">
<stop stop-color="#8B8BE0"/>
<stop offset="1" stop-color="#A177B7"/>
</linearGradient>
<linearGradient id="paint4_linear_3357_1128" x1="141.262" y1="277.072" x2="138.171" y2="270.371" gradientUnits="userSpaceOnUse">
<stop stop-color="white"/>
<stop offset="1" stop-color="#A177B7"/>
</linearGradient>
<linearGradient id="paint5_linear_3357_1128" x1="-40.6932" y1="410.344" x2="-60.8216" y2="367.179" gradientUnits="userSpaceOnUse">
<stop/>
<stop offset="1" stop-color="white"/>
</linearGradient>
<linearGradient id="paint6_linear_3357_1128" x1="286.84" y1="556.504" x2="286.84" y2="428.056" gradientUnits="userSpaceOnUse">
<stop stop-color="#6456C0"/>
<stop offset="1" stop-color="#5F2C95"/>
</linearGradient>
<radialGradient id="paint7_radial_3357_1128" cx="0" cy="0" r="1" gradientUnits="userSpaceOnUse" gradientTransform="translate(267.713 510.28) scale(25.8389 25.776)">
<stop stop-color="#4B474B"/>
<stop offset="1"/>
</radialGradient>
<radialGradient id="paint8_radial_3357_1128" cx="0" cy="0" r="1" gradientUnits="userSpaceOnUse" gradientTransform="translate(387.814 509.632) scale(25.8389 25.776)">
<stop stop-color="#4B474B"/>
<stop offset="1"/>
</radialGradient>
<linearGradient id="paint9_linear_3357_1128" x1="288.789" y1="466.216" x2="322.495" y2="466.216" gradientUnits="userSpaceOnUse">
<stop stop-color="#9E8CEF"/>
<stop offset="1" stop-color="#CAAFEE"/>
</linearGradient>
<linearGradient id="paint10_linear_3357_1128" x1="367.677" y1="466.216" x2="333.898" y2="466.216" gradientUnits="userSpaceOnUse">
<stop stop-color="#9E8CEF"/>
<stop offset="1" stop-color="#CAAFEE"/>
</linearGradient>
<linearGradient id="paint11_linear_3357_1128" x1="263.238" y1="556.504" x2="263.238" y2="428.056" gradientUnits="userSpaceOnUse">
<stop stop-color="#CCCCFF"/>
<stop offset="1" stop-color="#755CBB"/>
</linearGradient>
<linearGradient id="paint12_linear_3357_1128" x1="295.212" y1="492.28" x2="295.212" y2="457.216" gradientUnits="userSpaceOnUse">
<stop stop-color="#CCCCFF"/>
<stop offset="1" stop-color="#755CBB"/>
</linearGradient>
<linearGradient id="paint13_linear_3357_1128" x1="286.84" y1="479.392" x2="286.84" y2="445.048" gradientUnits="userSpaceOnUse">
<stop stop-color="#CCCCFF"/>
<stop offset="1" stop-color="#755CBB"/>
</linearGradient>
<linearGradient id="paint14_linear_3357_1128" x1="310.153" y1="234.592" x2="310.153" y2="183.328" gradientUnits="userSpaceOnUse">
<stop stop-color="#D5CDF8"/>
<stop offset="1" stop-color="#F3EDFB"/>
</linearGradient>
<linearGradient id="paint15_linear_3357_1128" x1="308.637" y1="183.328" x2="361.542" y2="183.328" gradientUnits="userSpaceOnUse">
<stop stop-color="#CCCCFF"/>
<stop offset="1" stop-color="#755CBB"/>
</linearGradient>
<linearGradient id="paint16_linear_3357_1128" x1="183.412" y1="439.504" x2="183.412" y2="181.096" gradientUnits="userSpaceOnUse">
<stop stop-color="#9E8CEF"/>
<stop offset="1" stop-color="#CAAFEE"/>
</linearGradient>
<linearGradient id="paint17_linear_3357_1128" x1="212.499" y1="216.376" x2="275.581" y2="216.376" gradientUnits="userSpaceOnUse">
<stop stop-color="#CCCCFF"/>
<stop offset="1" stop-color="#755CBB"/>
</linearGradient>
<linearGradient id="paint18_linear_3357_1128" x1="92.6153" y1="350.8" x2="92.6153" y2="229.984" gradientUnits="userSpaceOnUse">
<stop stop-color="#9E8CEF"/>
<stop offset="1" stop-color="#DAC7F3"/>
</linearGradient>
<linearGradient id="paint19_linear_3357_1128" x1="418.85" y1="271.888" x2="500.12" y2="271.888" gradientUnits="userSpaceOnUse">
<stop stop-color="#A999F1"/>
<stop offset="1" stop-color="#DAC7F3"/>
</linearGradient>
<linearGradient id="paint20_linear_3357_1128" x1="164.574" y1="213.496" x2="164.574" y2="181.672" gradientUnits="userSpaceOnUse">
<stop offset="0.016" stop-color="#FFC2A9"/>
<stop offset="1" stop-color="#FF9595"/>
</linearGradient>
<linearGradient id="paint21_linear_3357_1128" x1="145.592" y1="212.776" x2="145.592" y2="160" gradientUnits="userSpaceOnUse">
<stop stop-color="#FFEADB"/>
<stop offset="0.994" stop-color="#C27CB6"/>
</linearGradient>
<linearGradient id="paint22_linear_3357_1128" x1="133.9" y1="248.632" x2="133.9" y2="167.344" gradientUnits="userSpaceOnUse">
<stop offset="0.016" stop-color="#FFC2A9"/>
<stop offset="1" stop-color="#FF9595"/>
</linearGradient>
<linearGradient id="paint23_linear_3357_1128" x1="187.887" y1="223.288" x2="213.51" y2="223.288" gradientUnits="userSpaceOnUse">
<stop offset="0.016" stop-color="#D1A1D6"/>
<stop offset="0.994" stop-color="#BD89C4"/>
</linearGradient>
<linearGradient id="paint24_linear_3357_1128" x1="431.697" y1="298.168" x2="431.697" y2="189.448" gradientUnits="userSpaceOnUse">
<stop offset="0.016" stop-color="#FFC2A9"/>
<stop offset="1" stop-color="#FF9595"/>
</linearGradient>
<linearGradient id="paint25_linear_3357_1128" x1="486.622" y1="263.32" x2="486.622" y2="209.32" gradientUnits="userSpaceOnUse">
<stop stop-color="#FFEADB"/>
<stop offset="0.994" stop-color="#C27CB6"/>
</linearGradient>
<linearGradient id="paint26_linear_3357_1128" x1="513.905" y1="244.672" x2="513.905" y2="220.48" gradientUnits="userSpaceOnUse">
<stop stop-color="#FFB0B0"/>
<stop offset="0.984" stop-color="#FFC2A9"/>
</linearGradient>
<linearGradient id="paint27_linear_3357_1128" x1="532.238" y1="248.416" x2="532.238" y2="235.168" gradientUnits="userSpaceOnUse">
<stop stop-color="#FFB0B0"/>
<stop offset="0.984" stop-color="#FFC2A9"/>
</linearGradient>
<linearGradient id="paint28_linear_3357_1128" x1="482.509" y1="262.096" x2="507.265" y2="262.096" gradientUnits="userSpaceOnUse">
<stop offset="0.016" stop-color="#D1A1D6"/>
<stop offset="0.994" stop-color="#BD89C4"/>
</linearGradient>
<linearGradient id="paint29_linear_3357_1128" x1="376.555" y1="360.088" x2="376.555" y2="238.408" gradientUnits="userSpaceOnUse">
<stop stop-color="#CCCCFF"/>
<stop offset="1" stop-color="#755CBB"/>
</linearGradient>
<linearGradient id="paint30_linear_3357_1128" x1="179.442" y1="231.712" x2="383.483" y2="231.712" gradientUnits="userSpaceOnUse">
<stop stop-color="#CCCCFF"/>
<stop offset="1" stop-color="#755CBB"/>
</linearGradient>
<linearGradient id="paint31_linear_3357_1128" x1="359.305" y1="292.768" x2="398.28" y2="292.768" gradientUnits="userSpaceOnUse">
<stop stop-color="#CCEDFF"/>
<stop offset="1" stop-color="#755CBB"/>
</linearGradient>
<linearGradient id="paint32_linear_3357_1128" x1="323.938" y1="357.352" x2="381.246" y2="357.352" gradientUnits="userSpaceOnUse">
<stop stop-color="#CCEDFF"/>
<stop offset="1" stop-color="#755CBB"/>
</linearGradient>
<linearGradient id="paint33_linear_3357_1128" x1="326.609" y1="384.568" x2="387.814" y2="384.568" gradientUnits="userSpaceOnUse">
<stop stop-color="#CCEDFF"/>
<stop offset="1" stop-color="#755CBB"/>
</linearGradient>
<linearGradient id="paint34_linear_3357_1128" x1="244.617" y1="331.648" x2="244.617" y2="263.104" gradientUnits="userSpaceOnUse">
<stop stop-color="#CCEDFF"/>
<stop offset="1" stop-color="#755CBB"/>
</linearGradient>
<linearGradient id="paint35_linear_3357_1128" x1="241.009" y1="337.408" x2="241.009" y2="285.424" gradientUnits="userSpaceOnUse">
<stop stop-color="#CCEDFF"/>
<stop offset="1" stop-color="#755CBB"/>
</linearGradient>
<linearGradient id="paint36_linear_3357_1128" x1="172.658" y1="270.952" x2="172.658" y2="231.712" gradientUnits="userSpaceOnUse">
<stop stop-color="#CCEDFF"/>
<stop offset="1" stop-color="#755CBB"/>
</linearGradient>
<linearGradient id="paint37_linear_3357_1128" x1="228.955" y1="216.376" x2="244.834" y2="216.376" gradientUnits="userSpaceOnUse">
<stop stop-color="#CCEDFF"/>
<stop offset="1" stop-color="#755CBB"/>
</linearGradient>
<linearGradient id="paint38_linear_3357_1128" x1="153.387" y1="331.648" x2="153.387" y2="258.856" gradientUnits="userSpaceOnUse">
<stop stop-color="#CCCCFF"/>
<stop offset="1" stop-color="#755CBB"/>
</linearGradient>
<linearGradient id="paint39_linear_3357_1128" x1="430.181" y1="316.024" x2="430.181" y2="278.008" gradientUnits="userSpaceOnUse">
<stop stop-color="#CCCCFF"/>
<stop offset="1" stop-color="#755CBB"/>
</linearGradient>
<linearGradient id="paint40_linear_3357_1128" x1="425.562" y1="314.296" x2="425.562" y2="285.208" gradientUnits="userSpaceOnUse">
<stop stop-color="#CCCCFF"/>
<stop offset="1" stop-color="#755CBB"/>
</linearGradient>
<linearGradient id="paint41_linear_3357_1128" x1="185.722" y1="273.472" x2="185.722" y2="262.672" gradientUnits="userSpaceOnUse">
<stop stop-color="#CCEDFF"/>
<stop offset="1" stop-color="#755CBB"/>
</linearGradient>
<linearGradient id="paint42_linear_3357_1128" x1="128.847" y1="306.448" x2="128.847" y2="247.408" gradientUnits="userSpaceOnUse">
<stop stop-color="#CCCCFF"/>
<stop offset="1" stop-color="#755CBB"/>
</linearGradient>
<linearGradient id="paint43_linear_3357_1128" x1="338.446" y1="264.904" x2="338.446" y2="220.48" gradientUnits="userSpaceOnUse">
<stop stop-color="#CCEDFF"/>
<stop offset="1" stop-color="#755CBB"/>
</linearGradient>
<linearGradient id="paint44_linear_3357_1128" x1="271.467" y1="258.856" x2="271.467" y2="197.584" gradientUnits="userSpaceOnUse">
<stop stop-color="#CCEDFF"/>
<stop offset="1" stop-color="#755CBB"/>
</linearGradient>
<linearGradient id="paint45_linear_3357_1128" x1="290.882" y1="258.136" x2="393.516" y2="258.136" gradientUnits="userSpaceOnUse">
<stop stop-color="#8642A0"/>
<stop offset="1" stop-color="#6456C0"/>
</linearGradient>
<linearGradient id="paint46_linear_3357_1128" x1="299.76" y1="181.096" x2="366.522" y2="181.096" gradientUnits="userSpaceOnUse">
<stop stop-color="#CCCCFF"/>
<stop offset="1" stop-color="#755CBB"/>
</linearGradient>
<linearGradient id="paint47_linear_3357_1128" x1="408.89" y1="311.704" x2="408.89" y2="273.112" gradientUnits="userSpaceOnUse">
<stop stop-color="#CCCCFF"/>
<stop offset="1" stop-color="#755CBB"/>
</linearGradient>
<linearGradient id="paint48_linear_3357_1128" x1="251.835" y1="355.192" x2="251.835" y2="238.408" gradientUnits="userSpaceOnUse">
<stop stop-color="#CCCCFF"/>
<stop offset="1" stop-color="#755CBB"/>
</linearGradient>
<linearGradient id="paint49_linear_3357_1128" x1="280.2" y1="409.984" x2="280.2" y2="376.504" gradientUnits="userSpaceOnUse">
<stop stop-color="#CCCCFF"/>
<stop offset="1" stop-color="#755CBB"/>
</linearGradient>
<linearGradient id="paint50_linear_3357_1128" x1="353.891" y1="400.84" x2="353.891" y2="384.568" gradientUnits="userSpaceOnUse">
<stop stop-color="#CCCCFF"/>
<stop offset="1" stop-color="#755CBB"/>
</linearGradient>
<linearGradient id="paint51_linear_3357_1128" x1="273.921" y1="191.896" x2="273.921" y2="80.7284" gradientUnits="userSpaceOnUse">
<stop offset="0.016" stop-color="#FFC2A9"/>
<stop offset="1" stop-color="#FF9595"/>
</linearGradient>
<linearGradient id="paint52_linear_3357_1128" x1="285.613" y1="147.04" x2="285.613" y2="114.28" gradientUnits="userSpaceOnUse">
<stop offset="0.016" stop-color="#FFC2A9"/>
<stop offset="1" stop-color="#FF9595"/>
</linearGradient>
<linearGradient id="paint53_linear_3357_1128" x1="368.399" y1="162.232" x2="371.057" y2="148.334" gradientUnits="userSpaceOnUse">
<stop stop-color="#E1616A"/>
<stop offset="1" stop-color="#FF8883"/>
</linearGradient>
<linearGradient id="paint54_linear_3357_1128" x1="321.701" y1="153.952" x2="321.701" y2="82.3844" gradientUnits="userSpaceOnUse">
<stop stop-color="#FFEADB"/>
<stop offset="0.994" stop-color="#C27CB6"/>
</linearGradient>
<linearGradient id="paint55_linear_3357_1128" x1="348.622" y1="124.648" x2="348.622" y2="110.464" gradientUnits="userSpaceOnUse">
<stop stop-color="#CF6074"/>
<stop offset="1" stop-color="#F37270"/>
</linearGradient>
<linearGradient id="paint56_linear_3357_1128" x1="375.111" y1="129.112" x2="375.111" y2="116.8" gradientUnits="userSpaceOnUse">
<stop stop-color="#CF6074"/>
<stop offset="1" stop-color="#FF817F"/>
</linearGradient>
<linearGradient id="paint57_linear_3357_1128" x1="351.654" y1="136.312" x2="351.654" y2="108.52" gradientUnits="userSpaceOnUse">
<stop stop-color="#FFEADB"/>
<stop offset="0.994" stop-color="#C27CB6"/>
</linearGradient>
<linearGradient id="paint58_linear_3357_1128" x1="246.638" y1="193.336" x2="246.638" y2="58.4804" gradientUnits="userSpaceOnUse">
<stop stop-color="#2E33A0"/>
<stop offset="1" stop-color="#0665A5"/>
</linearGradient>
<linearGradient id="paint59_linear_3357_1128" x1="351.293" y1="108.376" x2="351.293" y2="77.2724" gradientUnits="userSpaceOnUse">
<stop stop-color="#FFEADB"/>
<stop offset="0.994" stop-color="#8860C7"/>
</linearGradient>
<linearGradient id="paint60_linear_3357_1128" x1="217.263" y1="193.336" x2="217.263" y2="58.4804" gradientUnits="userSpaceOnUse">
<stop stop-color="#CCC2DB"/>
<stop offset="0.994" stop-color="#8860C7"/>
</linearGradient>
<linearGradient id="paint61_linear_3357_1128" x1="358.439" y1="193.264" x2="358.439" y2="187.504" gradientUnits="userSpaceOnUse">
<stop stop-color="#776D7E"/>
<stop offset="1" stop-color="#9D68C2"/>
</linearGradient>
<linearGradient id="paint62_linear_3357_1128" x1="375.616" y1="68.1284" x2="375.616" y2="63.8804" gradientUnits="userSpaceOnUse">
<stop stop-color="#1F77D1"/>
<stop offset="1" stop-color="#0686C9"/>
</linearGradient>
<linearGradient id="paint63_linear_3357_1128" x1="346.241" y1="82.3124" x2="346.241" y2="69.5684" gradientUnits="userSpaceOnUse">
<stop stop-color="#1F77D1"/>
<stop offset="1" stop-color="#0686C9"/>
</linearGradient>
<linearGradient id="paint64_linear_3357_1128" x1="385.288" y1="88.7924" x2="385.288" y2="77.2724" gradientUnits="userSpaceOnUse">
<stop stop-color="#1F77D1"/>
<stop offset="1" stop-color="#0686C9"/>
</linearGradient>
<linearGradient id="paint65_linear_3357_1128" x1="304.956" y1="157.912" x2="286.534" y2="135.26" gradientUnits="userSpaceOnUse">
<stop stop-color="#FFEADB"/>
<stop offset="0.994" stop-color="#B060F4"/>
</linearGradient>
<linearGradient id="paint66_linear_3357_1128" x1="308.926" y1="149.2" x2="298.491" y2="136.36" gradientUnits="userSpaceOnUse">
<stop stop-color="#FFEADB"/>
<stop offset="0.994" stop-color="#B060F4"/>
</linearGradient>
<linearGradient id="paint67_linear_3357_1128" x1="347.685" y1="81.2324" x2="372.585" y2="81.2324" gradientUnits="userSpaceOnUse">
<stop stop-color="#1F77D1"/>
<stop offset="1" stop-color="#0686C9"/>
</linearGradient>
<linearGradient id="paint68_linear_3357_1128" x1="382.834" y1="150.856" x2="390.412" y2="150.856" gradientUnits="userSpaceOnUse">
<stop stop-color="#1F77D1"/>
<stop offset="1" stop-color="#0686C9"/>
</linearGradient>
<linearGradient id="paint69_linear_3357_1128" x1="373.523" y1="149.56" x2="381.679" y2="149.56" gradientUnits="userSpaceOnUse">
<stop stop-color="#1F77D1"/>
<stop offset="1" stop-color="#0686C9"/>
</linearGradient>
<linearGradient id="paint70_linear_3357_1128" x1="433.646" y1="162.808" x2="689.221" y2="162.808" gradientUnits="userSpaceOnUse">
<stop stop-color="#9D68C2"/>
<stop offset="1" stop-color="#AEC2FF"/>
</linearGradient>
<linearGradient id="paint71_linear_3357_1128" x1="447.576" y1="268.216" x2="447.576" y2="191.32" gradientUnits="userSpaceOnUse">
<stop stop-color="#CCEDFF"/>
<stop offset="1" stop-color="#9D68C2"/>
</linearGradient>
<linearGradient id="paint72_linear_3357_1128" x1="600.083" y1="230.776" x2="600.083" y2="196.864" gradientUnits="userSpaceOnUse">
<stop stop-color="#CCEDFF"/>
<stop offset="1" stop-color="#9D68C2"/>
</linearGradient>
<linearGradient id="paint73_linear_3357_1128" x1="640.141" y1="230.776" x2="640.141" y2="196.864" gradientUnits="userSpaceOnUse">
<stop stop-color="#CCEDFF"/>
<stop offset="1" stop-color="#9D68C2"/>
</linearGradient>
<linearGradient id="paint74_linear_3357_1128" x1="559.376" y1="230.776" x2="559.376" y2="196.864" gradientUnits="userSpaceOnUse">
<stop stop-color="#CCEDFF"/>
<stop offset="1" stop-color="#9D68C2"/>
</linearGradient>
<linearGradient id="paint75_linear_3357_1128" x1="195.899" y1="147.544" x2="195.899" y2="112.048" gradientUnits="userSpaceOnUse">
<stop stop-color="#D93DE3"/>
<stop offset="1" stop-color="#FF6DBA"/>
</linearGradient>
<linearGradient id="paint76_linear_3357_1128" x1="36.2461" y1="147.544" x2="36.2461" y2="112.048" gradientUnits="userSpaceOnUse">
<stop stop-color="#A242EA"/>
<stop offset="1" stop-color="#FE117E"/>
</linearGradient>
<linearGradient id="paint77_linear_3357_1128" x1="142.633" y1="514.888" x2="162.099" y2="359.285" gradientUnits="userSpaceOnUse">
<stop stop-color="#067EFF"/>
<stop offset="1" stop-color="#3E37A0"/>
</linearGradient>
<linearGradient id="paint78_linear_3357_1128" x1="647.287" y1="143.656" x2="647.287" y2="130.768" gradientUnits="userSpaceOnUse">
<stop stop-color="#459FFF"/>
<stop offset="1" stop-color="#A96DFF"/>
</linearGradient>
<linearGradient id="paint79_linear_3357_1128" x1="39.4219" y1="294.496" x2="39.4219" y2="278.44" gradientUnits="userSpaceOnUse">
<stop stop-color="#459FFF"/>
<stop offset="1" stop-color="#A96DFF"/>
</linearGradient>
<linearGradient id="paint80_linear_3357_1128" x1="666.196" y1="143.656" x2="666.196" y2="130.768" gradientUnits="userSpaceOnUse">
<stop stop-color="#B31A8F"/>
<stop offset="1" stop-color="#FE117E"/>
</linearGradient>
<linearGradient id="paint81_linear_3357_1128" x1="252.124" y1="186.064" x2="252.124" y2="176.92" gradientUnits="userSpaceOnUse">
<stop stop-color="#B31A8F"/>
<stop offset="1" stop-color="#FE117E"/>
</linearGradient>
<linearGradient id="paint82_linear_3357_1128" x1="557.644" y1="386.8" x2="557.644" y2="377.728" gradientUnits="userSpaceOnUse">
<stop stop-color="#8642A0"/>
<stop offset="1" stop-color="#6456C0"/>
</linearGradient>
<linearGradient id="paint83_linear_3357_1128" x1="83.8818" y1="431.729" x2="83.8818" y2="423.593" gradientUnits="userSpaceOnUse">
<stop stop-color="#8642A0"/>
<stop offset="1" stop-color="#6456C0"/>
</linearGradient>
<linearGradient id="paint84_linear_3357_1128" x1="98.1731" y1="387.664" x2="98.1731" y2="320.488" gradientUnits="userSpaceOnUse">
<stop stop-color="#D906E3"/>
<stop offset="1" stop-color="#FF6DF9"/>
</linearGradient>
<linearGradient id="paint85_linear_3357_1128" x1="557.211" y1="482.776" x2="557.211" y2="398.752" gradientUnits="userSpaceOnUse">
<stop stop-color="#D906E3"/>
<stop offset="1" stop-color="#FF6DF9"/>
</linearGradient>
<linearGradient id="paint86_linear_3357_1128" x1="440.43" y1="442.888" x2="432.96" y2="378.156" gradientUnits="userSpaceOnUse">
<stop stop-color="#1852A0"/>
<stop offset="1" stop-color="#067ED3"/>
</linearGradient>
<linearGradient id="paint87_linear_3357_1128" x1="436.822" y1="435.472" x2="436.822" y2="370.888" gradientUnits="userSpaceOnUse">
<stop stop-color="#1852A0"/>
<stop offset="1" stop-color="#067ED3"/>
</linearGradient>
<linearGradient id="paint88_linear_3357_1128" x1="428.955" y1="439.432" x2="421.341" y2="374.196" gradientUnits="userSpaceOnUse">
<stop stop-color="#188DC1"/>
<stop offset="1" stop-color="#06BFE7"/>
</linearGradient>
<linearGradient id="paint89_linear_3357_1128" x1="498.749" y1="101.968" x2="515.202" y2="40.8202" gradientUnits="userSpaceOnUse">
<stop stop-color="#188DC1"/>
<stop offset="1" stop-color="#06BFE7"/>
</linearGradient>
<linearGradient id="paint90_linear_3357_1128" x1="210.841" y1="25.1444" x2="223.271" y2="-21.0948" gradientUnits="userSpaceOnUse">
<stop stop-color="#1852A0"/>
<stop offset="1" stop-color="#067ED3"/>
</linearGradient>
<linearGradient id="paint91_linear_3357_1128" x1="91.4037" y1="142.623" x2="80.1954" y2="100.921" gradientUnits="userSpaceOnUse">
<stop stop-color="#188DC1"/>
<stop offset="1" stop-color="#06BFE7"/>
</linearGradient>
<linearGradient id="paint92_linear_3357_1128" x1="287.722" y1="90.2786" x2="279.244" y2="58.7323" gradientUnits="userSpaceOnUse">
<stop stop-color="#1852A0"/>
<stop offset="1" stop-color="#067ED3"/>
</linearGradient>
</defs>
</svg>
