<svg width="20" height="21" viewBox="0 0 20 21" fill="none" xmlns="http://www.w3.org/2000/svg">
<g id="Star" clipPath="url(#clip0_4029_11)">
<path id="Star_2" d="M9.53834 1.70078C9.70914 1.29014 10.2909 1.29014 10.4617 1.70078L12.5278 6.66826C12.5998 6.84138 12.7626 6.95967 12.9495 6.97465L18.3123 7.40458C18.7556 7.44012 18.9354 7.99338 18.5976 8.28271L14.5117 11.7827C14.3693 11.9047 14.3071 12.0961 14.3506 12.2785L15.5989 17.5117C15.7021 17.9443 15.2315 18.2862 14.8519 18.0544L10.2606 15.25C10.1006 15.1523 9.89938 15.1523 9.73937 15.25L5.14806 18.0544C4.76851 18.2862 4.29788 17.9443 4.40108 17.5117L5.64939 12.2785C5.69289 12.0961 5.6307 11.9047 5.48831 11.7827L1.40241 8.28271C1.06464 7.99338 1.24441 7.44012 1.68773 7.40458L7.05054 6.97465C7.23744 6.95967 7.40024 6.84138 7.47225 6.66826L9.53834 1.70078Z" fill="#FEC84B"/>
</g>
<defs>
<clipPath id="clip0_4029_11">
<rect width="20" height="20" fill="white" transform="translate(0 0.0908203)"/>
</clipPath>
</defs>
</svg>
