<svg width="16" height="13" viewBox="0 0 16 13" fill="none" xmlns="http://www.w3.org/2000/svg">
<path id="Arrow 9" d="M0.875732 5.7C0.433905 5.7 0.0757324 6.05817 0.0757324 6.5C0.0757324 6.94183 0.433905 7.3 0.875732 7.3V5.7ZM15.4414 7.06569C15.7538 6.75327 15.7538 6.24673 15.4414 5.93431L10.3502 0.843146C10.0378 0.530726 9.5313 0.530726 9.21888 0.843146C8.90646 1.15557 8.90646 1.6621 9.21888 1.97452L13.7444 6.5L9.21888 11.0255C8.90646 11.3379 8.90646 11.8444 9.21888 12.1569C9.5313 12.4693 10.0378 12.4693 10.3502 12.1569L15.4414 7.06569ZM0.875732 7.3H14.8757V5.7H0.875732V7.3Z" fill="white"/>
</svg>
