<svg width="58" height="58" viewBox="0 0 58 58" fill="none" xmlns="http://www.w3.org/2000/svg">
<g id="LOGO">
<path id="Vector" d="M29.0122 53.1474V43.778C38.9302 43.778 46.6249 33.947 42.821 23.507C42.1159 21.5959 41.0034 19.8612 39.5608 18.4232C38.1181 16.9851 36.3799 15.8782 34.4666 15.1791C24.029 11.4019 14.1932 19.07 14.1932 28.988H4.85278C4.85278 13.1806 20.1382 0.853139 36.7141 6.03205C43.9424 8.30372 49.723 14.0578 51.9705 21.2885C57.1446 37.862 44.8172 53.1474 29.0122 53.1474Z" fill="#0252CD"/>
<path id="Vector_2" d="M29.041 43.836H19.7006V34.4932H29.041V43.836ZM19.7006 50.9869H12.5497V43.836H19.7006V50.9869ZM12.5497 43.836H6.55151V37.8354H12.5497V43.836Z" fill="#0252CD"/>
</g>
</svg>
