<svg width="58" height="58" viewBox="0 0 58 58" fill="none" xmlns="http://www.w3.org/2000/svg">
<g id="LOGO">
<path id="Vector" d="M14.9689 35.3897C14.9689 38.1931 12.69 40.4816 9.88667 40.4816C8.53805 40.4778 7.24588 39.9399 6.29294 38.9856C5.34 38.0313 4.80391 36.7383 4.802 35.3897C4.80455 34.0415 5.34092 32.7492 6.29379 31.7954C7.24666 30.8416 8.53847 30.3041 9.88667 30.3002H14.9689V35.3897ZM17.533 35.3897C17.533 32.5864 19.8143 30.3002 22.6177 30.3002C23.9654 30.3047 25.2566 30.8426 26.209 31.7963C27.1613 32.75 27.6974 34.0419 27.6999 35.3897V48.1352C27.6974 49.483 27.1613 50.775 26.209 51.7287C25.2566 52.6824 23.9654 53.2202 22.6177 53.2247C21.2691 53.2222 19.9765 52.685 19.0234 51.7309C18.0702 50.7769 17.5343 49.4838 17.533 48.1352V35.3897ZM22.6177 14.9568C19.8143 14.9568 17.533 12.6658 17.533 9.86489C17.533 7.06397 19.8143 4.77539 22.6177 4.77539C23.9654 4.77986 25.2566 5.31774 26.209 6.27144C27.1613 7.22515 27.6974 8.51711 27.6999 9.86489V14.9568H22.6177ZM22.6177 17.5185C23.9659 17.5229 25.2574 18.0612 26.2098 19.0154C27.1623 19.9696 27.698 21.2622 27.6999 22.6104C27.6974 23.9582 27.1613 25.2501 26.209 26.2038C25.2566 27.1575 23.9654 27.6954 22.6177 27.6999H9.88909C8.54089 27.6961 7.24908 27.1585 6.29621 26.2047C5.34334 25.2509 4.80697 23.9586 4.80442 22.6104C4.80633 21.2618 5.34242 19.9688 6.29536 19.0145C7.2483 18.0602 8.54047 17.5223 9.88909 17.5185H22.6177ZM43.0313 22.6104C43.0313 19.8071 45.3102 17.5185 48.1135 17.5185C49.4621 17.5223 50.7543 18.0602 51.7072 19.0145C52.6602 19.9688 53.1963 21.2618 53.1982 22.6104C53.1956 23.9586 52.6593 25.2509 51.7064 26.2047C50.7535 27.1585 49.4617 27.6961 48.1135 27.6999H43.0313V22.6104ZM40.4672 22.6104C40.4672 25.4137 38.1858 27.6999 35.3825 27.6999C34.0347 27.6954 32.7435 27.1575 31.7912 26.2038C30.8388 25.2501 30.3028 23.9582 30.3003 22.6104V9.86489C30.3028 8.51711 30.8388 7.22515 31.7912 6.27144C32.7435 5.31774 34.0347 4.77986 35.3825 4.77539C38.1858 4.77539 40.4672 7.06156 40.4672 9.86489V22.6104ZM35.3825 43.0433C38.1858 43.0433 40.4672 45.3343 40.4672 48.1352C40.4672 50.9361 38.1858 53.2247 35.3825 53.2247C34.0347 53.2202 32.7435 52.6824 31.7912 51.7287C30.8388 50.775 30.3028 49.483 30.3003 48.1352V43.0433H35.3825ZM35.3825 40.4816C34.0343 40.4772 32.7428 39.9389 31.7903 38.9847C30.8379 38.0305 30.3022 36.7379 30.3003 35.3897C30.3028 34.0419 30.8388 32.75 31.7912 31.7963C32.7435 30.8426 34.0347 30.3047 35.3825 30.3002H48.1135C49.4617 30.3041 50.7535 30.8416 51.7064 31.7954C52.6593 32.7492 53.1956 34.0415 53.1982 35.3897C53.1963 36.7383 52.6602 38.0313 51.7072 38.9856C50.7543 39.9399 49.4621 40.4778 48.1135 40.4816H35.3825Z" fill="#428DFF"/>
</g>
</svg>
